<?xml version="1.0" standalone="no"?>
<!DOCTYPE svg PUBLIC "-//W3C//DTD SVG 1.1//EN" "http://www.w3.org/Graphics/SVG/1.1/DTD/svg11.dtd" >
<svg xmlns="http://www.w3.org/2000/svg">
<metadata></metadata>
<defs>
<font id="armitage_lightregular" horiz-adv-x="1024" >
<font-face units-per-em="2048" ascent="1638" descent="-410" />
<missing-glyph horiz-adv-x="491" />
<glyph horiz-adv-x="2048" />
<glyph horiz-adv-x="2048" />
<glyph unicode="&#xd;" horiz-adv-x="2048" />
<glyph unicode=" "  horiz-adv-x="491" />
<glyph unicode="&#x09;" horiz-adv-x="491" />
<glyph unicode="&#xa0;" horiz-adv-x="491" />
<glyph unicode="!" horiz-adv-x="559" d="M207 0v188h145v-188h-145zM207 1300v134h145v-134l-30 -886h-82z" />
<glyph unicode="&#x22;" horiz-adv-x="733" d="M182 848v586h107v-586h-107zM444 848v586h107v-586h-107z" />
<glyph unicode="#" horiz-adv-x="1300" d="M29 416l20 94h277l80 371h-279l20 94h279l90 416h100l-88 -416h371l88 416h100l-88 -416h273l-21 -94h-272l-80 -371h272l-18 -94h-274l-88 -416h-101l88 416h-370l-89 -416h-102l88 416h-276zM428 510h371l80 371h-371z" />
<glyph unicode="$" horiz-adv-x="1116" d="M63 262l95 62q125 -215 354 -236v551q-69 18 -118.5 35t-103 41t-88.5 53t-64.5 67.5t-43.5 90t-14 114.5q0 165 120.5 263t311.5 106v168h90v-168q280 -18 440 -225l-88 -72q-131 174 -352 188v-561q58 -15 100.5 -27.5t91.5 -32t83 -40t68 -50.5t54 -64.5t32.5 -81 t12.5 -101.5q0 -177 -117.5 -268.5t-326.5 -96.5v-145h-88v150q-304 27 -449 280zM201 1040q0 -53 17 -94.5t42.5 -68.5t69.5 -50t83 -36t99 -29v536q-151 -6 -231 -74t-80 -184zM600 86q149 2 236.5 62t87.5 192q0 51 -18.5 92t-45.5 68t-73.5 50t-86.5 36.5t-100 29.5 v-530z" />
<glyph unicode="%" horiz-adv-x="1855" d="M86 1006q0 192 103.5 299.5t261.5 107.5t261 -107.5t103 -299.5t-103.5 -300t-260.5 -108q-158 0 -261.5 108t-103.5 300zM184 1006q0 -160 75.5 -242t191.5 -82t191 82t75 242t-75 241.5t-191 81.5q-117 0 -192 -81.5t-75 -241.5zM399 -20l963 1445h98l-960 -1445h-101z M1040 383q0 192 103.5 300t261.5 108q157 0 260.5 -108t103.5 -300t-103.5 -300t-260.5 -108q-158 0 -261.5 108t-103.5 300zM1139 383q0 -160 75 -242t191 -82t191 82t75 242t-75 242t-191 82t-191 -82t-75 -242z" />
<glyph unicode="&#x26;" horiz-adv-x="1546" d="M43 412q0 67 13.5 124.5t36 101t56.5 80.5t70 63.5t82 49t86.5 37t89.5 27.5q-86 145 -86 274q0 142 90 214.5t236 72.5q127 0 202.5 -73.5t75.5 -206.5q0 -59 -17.5 -107.5t-46.5 -82.5t-74.5 -62.5t-93 -47t-110.5 -36.5l9 -11l348 -534q98 113 155 279t60 309h123 q0 -157 -75 -347t-204 -329q44 -61 84 -86t98 -25q160 0 160 293v29h119q0 -432 -285 -432q-85 0 -146 31t-120 108q-97 -84 -205.5 -117t-241.5 -33q-66 0 -131.5 13.5t-131 46.5t-115 81.5t-80.5 125t-31 170.5zM172 430q0 -87 31.5 -154.5t84.5 -108t117.5 -61 t135.5 -20.5q104 0 196.5 24.5t184.5 100.5l-369 565l-23 31q-60 -17 -105.5 -35.5t-95.5 -49.5t-82.5 -69.5t-53.5 -95.5t-21 -127zM514 1169q0 -105 84 -241q55 14 91 26t77 32.5t65 44.5t40 60.5t16 82.5q0 91 -46.5 136.5t-127.5 45.5q-88 0 -143.5 -44.5t-55.5 -142.5z " />
<glyph unicode="'" horiz-adv-x="473" d="M182 848v586h109v-586h-109z" />
<glyph unicode="(" horiz-adv-x="688" d="M170 557q0 70 9 143.5t37 174t73 194t125 196.5t186 189l55 -53q-366 -354 -366 -848q0 -217 95.5 -445.5t274.5 -398.5l-57 -61q-102 89 -181 193.5t-125 199t-75.5 194.5t-40 176t-10.5 146z" />
<glyph unicode=")" horiz-adv-x="688" d="M29 -291q179 170 274.5 398.5t95.5 445.5q0 494 -366 848l55 53q106 -86 186 -189t125 -196.5t73 -194t37 -174t9 -143.5t-10.5 -146t-40 -176t-75.5 -194.5t-125 -199t-181 -193.5z" />
<glyph unicode="*" d="M100 991v115l344 -19l-188 289l100 58l156 -310l156 310l100 -58l-188 -289l344 17v-115l-344 17l188 -285l-100 -57l-156 305l-156 -305l-100 57l188 287z" />
<glyph unicode="+" horiz-adv-x="1173" d="M125 641v107h405v413h113v-413h406v-107h-406v-416h-113v416h-405z" />
<glyph unicode="," horiz-adv-x="516" d="M182 0v184h152v-159q0 -96 -25 -156t-80 -107l-47 45q40 42 53 81t13 112h-66z" />
<glyph unicode="-" horiz-adv-x="825" d="M182 530v111h461v-111h-461z" />
<glyph unicode="." horiz-adv-x="516" d="M182 0v184h152v-184h-152z" />
<glyph unicode="/" horiz-adv-x="798" d="M-20 -143l702 1650h102l-704 -1650h-100z" />
<glyph unicode="0" horiz-adv-x="1247" d="M113 694q0 146 25 265.5t70.5 202.5t109.5 139.5t140 83t165 26.5q112 0 204 -43t161.5 -128t108 -224.5t38.5 -321.5q0 -181 -38.5 -320t-108 -224.5t-161.5 -129t-204 -43.5q-111 0 -202.5 43.5t-161 129t-108 224.5t-38.5 320zM233 694q0 -302 102 -454t288 -152 q187 0 289 151.5t102 454.5t-102 454.5t-289 151.5q-186 0 -288 -152t-102 -454z" />
<glyph unicode="1" horiz-adv-x="858" d="M113 1214l336 177h81v-1278h297v-113h-712v113h295v1126l-252 -115z" />
<glyph unicode="2" horiz-adv-x="1122" d="M84 0v104q67 53 186 145q120 94 173.5 136t134.5 108.5t110.5 95.5t76 78t60 77t32.5 71.5t22.5 81.5t3.5 88q0 149 -93 233.5t-231 84.5q-154 0 -243.5 -77.5t-110.5 -215.5l-119 22q31 181 156.5 281t316.5 100q202 0 324.5 -118t122.5 -306q0 -69 -15.5 -130 t-35 -110.5t-74.5 -113t-95.5 -106.5t-139.5 -123t-165 -131t-211 -160h748v-115h-934z" />
<glyph unicode="3" horiz-adv-x="1089" d="M57 317l121 23q10 -68 42 -118.5t80.5 -79.5t106 -42.5t125.5 -13.5q66 0 124 16.5t106 49.5t76 91t28 134q0 144 -95.5 212t-252.5 68h-119v115h119q171 0 246.5 62.5t75.5 199.5q0 130 -90 199.5t-230 69.5q-131 0 -216.5 -60t-108.5 -172l-117 29q31 145 151.5 229 t294.5 84q194 0 315.5 -105.5t121.5 -271.5q0 -122 -60 -206t-172 -113q119 -30 189.5 -119t70.5 -225q0 -187 -126.5 -291.5t-327.5 -104.5q-196 0 -323.5 86.5t-154.5 253.5z" />
<glyph unicode="4" horiz-adv-x="1099" d="M20 365v112l730 914h133v-914h182v-112h-182v-365h-117v365h-746zM154 477h612v768z" />
<glyph unicode="5" horiz-adv-x="1116" d="M88 309l119 23q16 -89 70.5 -146t124 -78.5t155.5 -21.5q56 0 104 9t94.5 33.5t79 62.5t52.5 100.5t20 144.5q0 77 -22 137.5t-56.5 97.5t-82.5 61.5t-95.5 34t-99.5 9.5q-132 0 -210.5 -43t-115.5 -106l-114 24l86 740h768v-113h-672l-51 -502q51 48 134 77.5t191 29.5 q90 0 171 -27t146.5 -79t104.5 -139.5t39 -199.5q0 -119 -37 -209t-102 -144t-148 -81t-182 -27q-120 0 -216.5 34t-165.5 110t-89 188z" />
<glyph unicode="6" horiz-adv-x="1142" d="M115 610q0 74 4 140.5t17.5 150.5t35 153t60 137.5t90 116t127.5 76.5t169 29q166 0 265.5 -73.5t142.5 -190.5l-113 -37q-43 100 -113 146.5t-184 46.5q-71 0 -128.5 -22t-96 -57t-67.5 -88.5t-45.5 -106.5t-26 -120.5t-13 -121.5t-3.5 -119q39 86 137 151.5t239 65.5 q212 0 329.5 -126.5t117.5 -334.5q0 -70 -18 -135.5t-56 -123t-92 -100.5t-129.5 -67.5t-165.5 -24.5q-104 0 -187 34t-138 92t-91 140t-51.5 173t-15.5 196zM250 442q0 -65 21 -126.5t61.5 -113.5t109 -84t154.5 -32q153 0 247.5 92t94.5 248q0 171 -93 262.5t-249 91.5 q-85 0 -153 -28.5t-109 -77t-62.5 -108t-21.5 -124.5z" />
<glyph unicode="7" horiz-adv-x="892" d="M20 1278v113h832v-95q-75 -107 -151 -252t-147 -318.5t-116 -367t-45 -358.5h-125q3 212 75.5 462t171 452.5t210.5 363.5h-705z" />
<glyph unicode="8" horiz-adv-x="1130" d="M92 373q0 132 73.5 226t201.5 128q-106 39 -171 129t-65 195q0 90 36 161t97.5 114t138 65t162.5 22t162.5 -22t138 -65t97.5 -114.5t36 -162.5q0 -103 -65 -192.5t-170 -129.5q128 -34 201 -127.5t73 -226.5q0 -120 -62.5 -211t-169.5 -138t-241 -47 q-208 0 -340.5 106.5t-132.5 289.5zM213 375q0 -128 94.5 -208.5t257.5 -80.5t258 80.5t95 208.5q0 140 -100 217.5t-253 77.5t-252.5 -77.5t-99.5 -217.5zM252 1047q0 -118 87.5 -194.5t225.5 -76.5q139 0 226.5 76.5t87.5 194.5q0 125 -84 194.5t-230 69.5 q-145 0 -229 -70t-84 -194z" />
<glyph unicode="9" horiz-adv-x="1142" d="M84 963q0 88 29.5 168t85 143.5t144.5 101t200 37.5q106 0 189.5 -34t138 -92t90.5 -140t51.5 -173t15.5 -196q0 -75 -4 -142t-16.5 -151t-34 -152.5t-59 -137t-87.5 -115.5t-124.5 -76t-165.5 -29q-171 0 -273 73.5t-147 191.5l112 36q45 -100 117.5 -146t192.5 -46 q68 0 123 21.5t92.5 56.5t65.5 87.5t44 105t25.5 120.5t13 122t4.5 120q-40 -85 -136.5 -150t-238.5 -65q-214 0 -331 126.5t-117 334.5zM205 963q0 -171 92.5 -263t249.5 -92q84 0 151 28.5t108 76.5t63 107.5t22 125.5q0 51 -12.5 101t-40 96.5t-66.5 81.5t-97.5 56.5 t-127.5 21.5q-153 0 -247.5 -92t-94.5 -248z" />
<glyph unicode=":" horiz-adv-x="516" d="M182 0v184h152v-184h-152zM182 655v185h152v-185h-152z" />
<glyph unicode=";" horiz-adv-x="516" d="M182 0v184h152v-159q0 -96 -25 -156t-80 -107l-47 45q40 42 53 81t13 112h-66zM182 655v185h152v-185h-152z" />
<glyph unicode="&#x3c;" horiz-adv-x="1204" d="M113 631v127l974 438v-123l-858 -381l858 -377v-122z" />
<glyph unicode="=" horiz-adv-x="1173" d="M125 469v106h924v-106h-924zM125 811v109h924v-109h-924z" />
<glyph unicode="&#x3e;" horiz-adv-x="1204" d="M117 193v122l858 377l-858 381v123l975 -438v-127z" />
<glyph unicode="?" horiz-adv-x="911" d="M18 1143q41 146 147 229.5t267 83.5q113 0 202 -40t144.5 -128t55.5 -213q0 -87 -29.5 -161.5t-84 -132t-113 -99t-134.5 -80.5v-246h-117v297q65 32 114 60.5t97 67t78.5 80t49 95t18.5 115.5q0 134 -76 209.5t-213 75.5q-110 0 -185.5 -60.5t-105.5 -179.5zM342 0v188 h145v-188h-145z" />
<glyph unicode="@" horiz-adv-x="1861" d="M111 397q0 172 53.5 320.5t145.5 254.5t213.5 182t257.5 112.5t278 36.5q59 0 119.5 -7.5t130.5 -26.5t132.5 -49.5t121 -80t101 -113t68 -154t25.5 -198.5q0 -129 -32 -235.5t-81.5 -175t-113 -115.5t-123.5 -67t-115 -20q-176 0 -182 154q-49 -75 -126.5 -121.5 t-180.5 -46.5q-45 0 -87.5 15t-83.5 47t-66 93.5t-25 143.5q0 74 18.5 147.5t55.5 139.5t88 117.5t121.5 81.5t150.5 30q78 0 138 -37.5t83 -105.5l23 106h98l-105 -497q-14 -65 -14 -103q0 -47 24.5 -69.5t86.5 -22.5q43 0 90.5 18t97.5 59.5t89.5 101.5t65 152.5 t25.5 203.5q0 140 -46.5 248t-130.5 176t-196.5 102.5t-248.5 34.5q-98 0 -198 -22t-197.5 -65t-182.5 -113t-149.5 -159t-102 -211t-37.5 -262q0 -121 27.5 -221.5t71.5 -169t106.5 -121t126.5 -83t136.5 -49.5t131.5 -25.5t117 -6.5q371 0 660 222l45 -66 q-308 -229 -705 -229q-117 0 -224 21.5t-213 76t-183.5 137t-125.5 214.5t-48 300zM641 346q0 -108 52.5 -156.5t142.5 -48.5q77 0 140 40t101 104t58 138.5t20 149.5q0 195 -192 195q-68 0 -124 -29t-91.5 -74.5t-60.5 -103t-35.5 -111.5t-10.5 -104z" />
<glyph unicode="A" horiz-adv-x="1374" d="M20 0l603 1446h135l600 -1446h-137l-177 432h-720l-177 -432h-127zM369 543h630l-315 768z" />
<glyph unicode="B" horiz-adv-x="1396" d="M190 0v1434h521q50 0 91 -2t97 -11t99 -24t88.5 -43.5t75 -67t48.5 -97t19 -130.5q0 -64 -16.5 -116.5t-42.5 -87t-61.5 -60t-70 -38t-71.5 -16.5q150 -23 225.5 -115t75.5 -243q0 -213 -131 -298t-418 -85h-529zM317 113h396q91 0 154 6.5t117.5 25t86 50.5t49 82.5 t17.5 121.5q0 82 -26 137.5t-78 86t-117.5 43t-157.5 12.5h-441v-565zM317 791h402q101 0 166.5 10.5t117.5 38.5t75.5 80.5t23.5 134.5q0 69 -22 119t-56 78t-88.5 44t-105.5 20.5t-121 4.5h-392v-530z" />
<glyph unicode="C" horiz-adv-x="1468" d="M129 717q0 176 54 319t147 235.5t215.5 142.5t261.5 50q364 0 563 -297l-104 -69q-71 120 -187.5 186t-269.5 66q-242 0 -394.5 -167t-152.5 -466q0 -151 43 -273t117.5 -199.5t172.5 -119t210 -41.5q313 0 463 252l104 -70q-197 -297 -565 -297q-140 0 -263 50.5 t-215.5 144t-146 236.5t-53.5 317z" />
<glyph unicode="D" horiz-adv-x="1490" d="M190 0v1434h422q139 0 250.5 -20.5t208 -70.5t160.5 -130t100.5 -203t36.5 -285q0 -166 -38 -293t-102.5 -207.5t-159.5 -132t-200 -72t-233 -20.5h-445zM319 117h265q77 0 135.5 4t129.5 19t123.5 40.5t104.5 71t84.5 108.5t53 155.5t20.5 209.5q0 115 -20.5 205.5 t-53 152t-85 106t-104 68.5t-123 38t-130 18t-135.5 4h-265v-1200z" />
<glyph unicode="E" horiz-adv-x="1255" d="M190 0v1434h926v-117h-797v-529h426v-114h-426v-555h822v-119h-951z" />
<glyph unicode="F" horiz-adv-x="1159" d="M190 0v1434h869v-115h-740v-535h441v-116h-441v-668h-129z" />
<glyph unicode="G" horiz-adv-x="1591" d="M129 715q0 176 54 320t146.5 236.5t214.5 142.5t261 50q194 0 338 -69t246 -219l-105 -70q-151 244 -475 244q-118 0 -217.5 -42t-173 -120.5t-115 -200t-41.5 -272.5q0 -293 149.5 -462t387.5 -169q228 0 363.5 145t144.5 416h-420v113h543v-758h-89l-22 276 q-145 -307 -531 -307q-134 0 -252.5 50t-209.5 142t-144 235.5t-53 318.5z" />
<glyph unicode="H" horiz-adv-x="1488" d="M190 0v1434h129v-654h850v654h129v-1434h-129v664h-850v-664h-129z" />
<glyph unicode="I" horiz-adv-x="509" d="M190 0v1434h129v-1434h-129z" />
<glyph unicode="J" horiz-adv-x="980" d="M37 164l94 78q79 -146 266 -146q62 0 109.5 17t86.5 56.5t60 112t21 175.5v977h129v-981q0 -126 -29.5 -219t-84 -148.5t-124.5 -82t-157 -26.5q-261 0 -371 187z" />
<glyph unicode="K" horiz-adv-x="1294" d="M190 0v1434h129v-785l764 785h158l-555 -574l576 -860h-156l-512 774l-275 -282v-492h-129z" />
<glyph unicode="L" horiz-adv-x="1177" d="M190 0v1434h129v-1317h816v-117h-945z" />
<glyph unicode="M" horiz-adv-x="1878" d="M197 0v1434h155l584 -1237l584 1237h161v-1434h-127v1233l-585 -1231h-74l-582 1229v-1231h-116z" />
<glyph unicode="N" horiz-adv-x="1556" d="M190 0v1434h148l907 -1258v1258h121v-1434h-147l-910 1260v-1260h-119z" />
<glyph unicode="O" horiz-adv-x="1607" d="M129 717q0 174 53.5 317t145.5 236t214.5 143.5t262.5 50.5q139 0 261 -50.5t214 -143.5t145.5 -236t53.5 -317t-53.5 -317t-145.5 -236.5t-214 -144t-261 -50.5q-140 0 -262.5 50.5t-214.5 144t-145.5 236.5t-53.5 317zM262 717q0 -149 41.5 -269.5t115 -199.5 t172 -121.5t214.5 -42.5q115 0 213.5 42.5t171.5 121.5t114.5 199.5t41.5 269.5t-41.5 269.5t-114.5 199.5t-171.5 121.5t-213.5 42.5q-116 0 -214.5 -42.5t-172 -121.5t-115 -199.5t-41.5 -269.5z" />
<glyph unicode="P" horiz-adv-x="1337" d="M190 0v1434h512q87 0 155 -7.5t142 -33.5t123 -69.5t81 -121.5t32 -184t-33 -184.5t-84 -123t-127 -71t-147 -35t-160 -8.5h-365v-596h-129zM319 711h386q206 0 302.5 66.5t96.5 240.5q0 89 -25 148.5t-78 92t-123 45.5t-173 13h-386v-606z" />
<glyph unicode="Q" horiz-adv-x="1607" d="M129 717q0 174 53.5 317t145.5 236t214.5 143.5t262.5 50.5q139 0 261 -50.5t214 -143.5t145.5 -236t53.5 -317q0 -167 -49 -305.5t-134 -231t-198 -146.5t-244 -63q1 -47 23 -75.5t79.5 -44t159.5 -15.5v-123q-92 0 -160.5 14.5t-108 38t-63.5 58.5t-31.5 69.5 t-7.5 77.5q-130 11 -241.5 66t-195.5 147.5t-131.5 229.5t-47.5 303zM262 717q0 -149 41.5 -269.5t115 -199.5t172 -121.5t214.5 -42.5q115 0 213.5 42.5t171.5 121.5t114.5 199.5t41.5 269.5t-41.5 269.5t-114.5 199.5t-171.5 121.5t-213.5 42.5q-116 0 -214.5 -42.5 t-172 -121.5t-115 -199.5t-41.5 -269.5z" />
<glyph unicode="R" horiz-adv-x="1368" d="M190 0v1434h515q60 0 110 -3.5t106.5 -15t100 -30t85 -50t68.5 -74.5t43.5 -104.5t16.5 -138.5q0 -355 -367 -406l398 -612h-154l-381 596h-412v-596h-129zM319 711h386q103 0 174 14t123 48.5t77 94.5t25 150t-24.5 149t-77.5 91.5t-123 45.5t-174 13h-386v-606z" />
<glyph unicode="S" horiz-adv-x="1234" d="M100 264l105 68q68 -123 184.5 -185.5t257.5 -62.5q352 0 352 281q0 65 -30 114t-81 79t-116.5 52.5t-138.5 41.5t-146 39.5t-138.5 51.5t-116.5 73t-81 109.5t-30 155.5q0 181 135 281t354 100q175 0 308.5 -70.5t211.5 -191.5l-102 -72q-142 218 -416 218 q-101 0 -173.5 -22t-112 -61t-57 -84t-17.5 -100q0 -65 30 -114t81 -79t116.5 -53t138.5 -41.5t146 -39t138.5 -51.5t116.5 -73t81 -109t30 -154q0 -195 -130 -295.5t-353 -100.5q-82 0 -157 15.5t-147 48.5t-135 92t-108 139z" />
<glyph unicode="T" horiz-adv-x="1128" d="M35 1317v117h1059v-117h-465v-1317h-129v1317h-465z" />
<glyph unicode="U" horiz-adv-x="1445" d="M180 539v895h129v-885q0 -243 109 -351t309 -108t310 109.5t110 359.5v875h121v-867q0 -138 -31 -244t-82 -171t-124 -105.5t-147.5 -56t-162.5 -15.5q-67 0 -128 10.5t-124 34t-113.5 66.5t-91 103t-62.5 149.5t-22 200.5z" />
<glyph unicode="V" horiz-adv-x="1343" d="M25 1434h137l516 -1301l512 1301h129l-584 -1446h-131z" />
<glyph unicode="W" horiz-adv-x="2029" d="M63 1434h134l376 -1239l398 1239h96l397 -1239l375 1239h125l-442 -1434h-123l-385 1200l-385 -1200h-123z" />
<glyph unicode="X" horiz-adv-x="1230" d="M53 0l482 729l-467 705h153l391 -605l396 605h143l-463 -699l488 -735h-152l-414 633l-411 -633h-146z" />
<glyph unicode="Y" horiz-adv-x="1193" d="M18 1434h148l434 -711l440 711h134l-515 -826v-608h-129v608z" />
<glyph unicode="Z" horiz-adv-x="1300" d="M86 0v98l928 1217h-899v119h1071v-101l-924 -1212h946v-121h-1122z" />
<glyph unicode="[" horiz-adv-x="657" d="M195 -373v1823h421v-96h-311v-1628h311v-99h-421z" />
<glyph unicode="\" horiz-adv-x="786" d="M14 1507h103l702 -1650h-100z" />
<glyph unicode="]" horiz-adv-x="657" d="M41 -274h311v1628h-311v96h422v-1823h-422v99z" />
<glyph unicode="^" horiz-adv-x="1097" d="M109 823l383 596h114l383 -596h-115l-325 465l-326 -465h-114z" />
<glyph unicode="_" horiz-adv-x="1026" d="M0 -102h1026v-97h-1026v97z" />
<glyph unicode="`" d="M256 1329h152l157 -305h-100z" />
<glyph unicode="a" horiz-adv-x="1003" d="M74 236q0 57 18 103t48 79.5t79.5 59.5t100 43t122 30t135 20.5t148.5 14.5v32q0 112 -56.5 165t-172.5 53q-163 0 -267 -148l-88 62q57 86 149.5 134t213.5 48q162 0 250 -83t88 -251v-397q0 -68 11.5 -91.5t45.5 -23.5q24 0 39 6v-88q-23 -10 -57 -10q-140 0 -150 158 q-41 -81 -128 -128t-208 -47q-160 0 -240.5 71t-80.5 188zM199 244q0 -168 213 -168q59 0 113.5 17t100 50.5t72.5 89t27 125.5v138q-68 -6 -114.5 -11t-106.5 -14.5t-99.5 -21t-82 -30.5t-67 -43t-40.5 -57.5t-16 -74.5z" />
<glyph unicode="b" horiz-adv-x="1093" d="M166 0v1434h117v-680q46 85 127.5 130.5t191.5 45.5q180 0 289.5 -124t109.5 -351t-108.5 -350t-290.5 -123q-113 0 -197 46.5t-131 135.5l-14 -164h-94zM281 455q0 -74 15.5 -137.5t49 -118t93.5 -86t141 -31.5q138 0 217.5 94t79.5 279q0 186 -79.5 280t-217.5 94 q-81 0 -141 -31.5t-93.5 -86t-49 -118.5t-15.5 -138z" />
<glyph unicode="c" horiz-adv-x="974" d="M88 455q0 229 123.5 353t318.5 124q251 0 375 -199l-94 -57q-87 158 -279 158q-141 0 -232 -97.5t-91 -281.5q0 -183 92 -280t234 -97q195 0 282 155l88 -55q-132 -201 -377 -201q-92 0 -171.5 31t-139.5 89.5t-94.5 150.5t-34.5 207z" />
<glyph unicode="d" horiz-adv-x="1093" d="M92 455q0 227 110 351t290 124q107 0 189 -44.5t130 -125.5v674h117v-1434h-94l-13 162q-47 -88 -132 -134t-195 -46q-182 0 -292 123.5t-110 349.5zM217 455q0 -185 80.5 -279t218.5 -94q80 0 139.5 31t93.5 85t50 118t16 139q0 60 -9.5 113t-32 101.5t-56.5 83.5 t-85.5 55.5t-115.5 20.5q-139 0 -219 -94t-80 -280z" />
<glyph unicode="e" horiz-adv-x="1030" d="M88 451q0 118 34 210.5t94.5 151t140.5 89t175 30.5q85 0 159 -27.5t132.5 -81t92.5 -142t34 -202.5q0 -25 -2 -41h-737q1 -94 28 -165t73.5 -113t103.5 -62t125 -20q110 0 180 45.5t121 144.5l94 -49q-44 -74 -92.5 -124t-127 -84t-177.5 -34q-93 0 -173.5 29.5 t-143 86.5t-98.5 149t-36 209zM217 539h610q-7 81 -34.5 140t-69.5 92t-89.5 48t-103.5 15q-132 0 -213.5 -79.5t-99.5 -215.5z" />
<glyph unicode="f" horiz-adv-x="563" d="M53 811v100h144v283q0 144 65 202t182 58q58 0 88 -10v-98q-30 10 -77 10q-73 0 -107.5 -35.5t-34.5 -122.5v-287h199v-100h-199v-811h-116v811h-144z" />
<glyph unicode="g" horiz-adv-x="1089" d="M88 469q0 117 32 207t88 144t126.5 81t152.5 27q112 0 193.5 -44.5t126.5 -119.5v147h117v-921q0 -92 -26.5 -160.5t-66 -107.5t-96 -62.5t-106.5 -31t-107 -7.5q-152 0 -253.5 53t-164.5 164l97 60q52 -96 127 -137.5t192 -41.5q29 0 49 1t52.5 7t55.5 16t49.5 31 t43.5 49.5t28 73.5t11 101v180q-44 -77 -125 -122.5t-197 -45.5q-82 0 -153 28.5t-126.5 83.5t-87.5 144t-32 203zM213 469q0 -97 26 -169t70.5 -112t95 -58.5t107.5 -18.5q129 0 214 90.5t85 269.5q0 76 -17 137t-45 101t-67 67t-81 39t-89 12q-46 0 -86.5 -10t-80.5 -35.5 t-68.5 -65t-46 -103t-17.5 -144.5z" />
<glyph unicode="h" horiz-adv-x="1093" d="M166 0v1434h117v-711q33 92 119.5 150.5t213.5 58.5q163 0 243.5 -97.5t80.5 -254.5v-580h-117v526q0 154 -52.5 229.5t-182.5 75.5q-85 0 -153.5 -44.5t-106.5 -129.5q-45 -96 -45 -239v-418h-117z" />
<glyph unicode="i" horiz-adv-x="448" d="M162 1114v191h125v-191h-125zM166 0v911h117v-911h-117z" />
<glyph unicode="j" horiz-adv-x="448" d="M-14 -242q46 -12 77 -12q52 0 77.5 36t25.5 114v1015h117v-1028q0 -133 -56.5 -185t-150.5 -52q-42 0 -90 10v102zM162 1114v191h125v-191h-125z" />
<glyph unicode="k" horiz-adv-x="978" d="M166 0v1434h117v-1000l495 477h152l-350 -340l383 -571h-142l-329 496l-209 -201v-295h-117z" />
<glyph unicode="l" horiz-adv-x="448" d="M166 0v1434h117v-1434h-117z" />
<glyph unicode="m" horiz-adv-x="1701" d="M166 0v911h117v-196q30 94 116.5 155.5t204.5 61.5q235 0 293 -225q103 225 344 225q159 0 233 -100.5t74 -272.5v-559h-116v528q0 153 -49 228t-171 75q-82 0 -148.5 -47.5t-102.5 -126.5q-46 -104 -46 -237v-420h-116v528q0 153 -48.5 228t-170.5 75q-82 0 -150 -47.5 t-104 -126.5q-43 -97 -43 -237v-420h-117z" />
<glyph unicode="n" horiz-adv-x="1093" d="M166 0v911h117v-188q33 92 119.5 150.5t213.5 58.5q163 0 243.5 -97.5t80.5 -254.5v-580h-117v526q0 154 -52.5 229.5t-182.5 75.5q-93 0 -168.5 -53t-110.5 -160q-26 -83 -26 -200v-418h-117z" />
<glyph unicode="o" horiz-adv-x="1050" d="M88 455q0 116 34 208t93.5 150t138 88.5t170.5 30.5q91 0 170 -30.5t139.5 -88.5t95 -150t34.5 -208q0 -115 -34.5 -207t-95 -150.5t-139.5 -89.5t-170 -31q-189 0 -312.5 125.5t-123.5 352.5zM213 455q0 -183 87.5 -280t223.5 -97t225 97.5t89 279.5q0 184 -88.5 281.5 t-225.5 97.5q-136 0 -223.5 -97.5t-87.5 -281.5z" />
<glyph unicode="p" horiz-adv-x="1093" d="M166 -352v1263h117v-155q48 84 129.5 129t189.5 45q180 0 289.5 -124t109.5 -351t-108.5 -350t-290.5 -123q-108 0 -190.5 44t-128.5 124v-502h-117zM281 455q0 -75 16 -139t50 -118t93.5 -85t139.5 -31q138 0 217.5 94t79.5 279q0 186 -79.5 280t-217.5 94 q-64 0 -115.5 -20.5t-85.5 -55.5t-56.5 -83.5t-32 -101.5t-9.5 -113z" />
<glyph unicode="q" horiz-adv-x="1093" d="M92 455q0 227 110 351t290 124q107 0 189 -44.5t130 -125.5v151h117v-1263h-117v497q-48 -79 -129 -121t-188 -42q-182 0 -292 123.5t-110 349.5zM217 455q0 -185 80.5 -279t218.5 -94q80 0 139.5 31t93.5 85t50 118t16 139q0 60 -9.5 113t-32 101.5t-56.5 83.5 t-85.5 55.5t-115.5 20.5q-139 0 -219 -94t-80 -280z" />
<glyph unicode="r" horiz-adv-x="624" d="M166 0v911h117v-215q61 231 311 234v-129h-27q-154 0 -241 -148q-43 -77 -43 -198v-455h-117z" />
<glyph unicode="s" horiz-adv-x="829" d="M70 162l86 65q90 -149 274 -149q92 0 149.5 38.5t57.5 114.5q0 50 -31 84t-80 52t-108.5 32.5t-119.5 34t-109 47.5t-80 80.5t-31 126.5q0 113 95 178.5t237 65.5q222 0 342 -154l-82 -69q-91 125 -260 125q-97 0 -153 -37t-56 -109q0 -49 31 -82t80 -50.5t108.5 -32.5 t119.5 -34t109 -47t80 -80.5t31 -125.5q0 -121 -93 -190t-235 -69q-121 0 -214.5 49t-147.5 136z" />
<glyph unicode="t" horiz-adv-x="577" d="M45 811v100h145l21 283h94v-283h197v-100h-197v-625q0 -61 26 -81.5t85 -20.5q41 0 82 8v-94q-52 -14 -109 -14q-201 0 -201 180v647h-143z" />
<glyph unicode="u" horiz-adv-x="1083" d="M154 344v567h116v-528q0 -153 52.5 -228t181.5 -75q82 0 149.5 43.5t104.5 126.5q43 89 43 227v434h117v-911h-115v182q-36 -87 -119 -144.5t-211 -57.5q-163 0 -241 99t-78 265z" />
<glyph unicode="v" horiz-adv-x="897" d="M18 911h127l308 -794l309 794h117l-367 -919h-127z" />
<glyph unicode="w" horiz-adv-x="1355" d="M29 911h118l234 -761l252 761h98l248 -768l244 768h112l-295 -911h-129l-235 719l-238 -719h-125z" />
<glyph unicode="x" horiz-adv-x="823" d="M39 0l309 459l-301 452h139l232 -356l233 356h127l-295 -440l320 -471h-139l-250 379l-244 -379h-131z" />
<glyph unicode="y" horiz-adv-x="899" d="M18 911h127l308 -794l309 794h119l-432 -1079q-17 -41 -29 -66.5t-33 -54t-44.5 -44t-60 -26t-83.5 -10.5q-63 0 -136 15v106q57 -22 134 -22q54 0 88 24.5t57 81.5l51 133z" />
<glyph unicode="z" horiz-adv-x="909" d="M88 0v90l567 715h-557v106h711v-94l-567 -711h579v-106h-733z" />
<glyph unicode="{" horiz-adv-x="673" d="M98 494v100q66 0 89.5 38.5t23.5 137.5v469q0 98 52 154.5t153 56.5h217v-96h-176q-84 0 -111 -37.5t-27 -114.5v-457q0 -90 -21 -137.5t-71 -62.5q50 -17 71 -65.5t21 -137.5v-465q0 -77 27 -114t111 -37h176v-99h-217q-101 0 -153 57t-52 156v477q0 99 -23.5 138 t-89.5 39z" />
<glyph unicode="|" horiz-adv-x="512" d="M203 -381v1917h106v-1917h-106z" />
<glyph unicode="}" horiz-adv-x="673" d="M41 -274h176q84 0 110.5 37t26.5 114v465q0 89 21 137.5t71 65.5q-50 15 -71 62.5t-21 137.5v457q0 77 -26.5 114.5t-110.5 37.5h-176v96h217q101 0 153 -56.5t52 -154.5v-469q0 -99 23 -137.5t89 -38.5v-100q-66 0 -89 -38.5t-23 -138.5v-477q0 -99 -52 -156t-153 -57 h-217v99z" />
<glyph unicode="~" horiz-adv-x="1157" d="M109 702q80 168 258 168q74 0 219.5 -41t216.5 -41q58 0 96 25t68 74l82 -45q-82 -166 -256 -166q-76 0 -222 41t-217 41q-104 0 -164 -99z" />
<glyph unicode="&#xa1;" horiz-adv-x="559" d="M207 0v133l33 887h82l30 -887v-133h-145zM207 1245v189h145v-189h-145z" />
<glyph unicode="&#xa2;" horiz-adv-x="720" d="M55 1059q0 153 81.5 245.5t209.5 104.5v107h82v-107q155 -15 240 -145l-74 -50q-57 111 -209 111q-102 0 -166.5 -69t-64.5 -197q0 -130 64.5 -199t164.5 -69q152 0 215 108l70 -53q-90 -124 -240 -139v-107h-82v107q-128 11 -209.5 104t-81.5 248z" />
<glyph unicode="&#xa3;" horiz-adv-x="1144" d="M2 131q0 66 50 105.5t132 39.5q74 0 166 -47q15 55 15 121q0 115 -62 260h-194v95h153q-29 65 -44.5 105.5t-29.5 102t-14 119.5q0 179 118.5 279t301.5 100q92 0 166 -24.5t121.5 -63.5t80.5 -94t48.5 -111t19.5 -119l-119 -10q-4 50 -13.5 92t-32 85.5t-55.5 73 t-88 48.5t-126 19q-148 0 -224.5 -79t-76.5 -202q0 -22 1.5 -42t5 -41.5t6 -36t10 -37.5t10.5 -33t13.5 -34.5t13 -31t14.5 -34t14 -31.5h324v-95h-287q41 -112 41 -237q0 -96 -31 -187q61 -34 92 -50t86 -33t103 -17q70 0 113 15t66 50.5t30.5 83.5t5.5 125h110 q6 -53 6 -84q0 -292 -317 -292q-105 0 -181.5 31t-154.5 85q-73 -114 -213 -114q-68 0 -121 36t-53 109zM82 129q0 -34 27.5 -54t70.5 -20q88 0 139 90q-81 52 -143 52q-44 0 -69 -18t-25 -50z" />
<glyph unicode="&#xa5;" horiz-adv-x="1048" d="M-10 1391h139l399 -676l408 676h123l-445 -736h324v-90h-352v-137h352v-88h-352v-340h-119v340h-356v88h356v137h-356v90h323z" />
<glyph unicode="&#xa6;" horiz-adv-x="512" d="M203 -381v842h106v-842h-106zM203 694v842h106v-842h-106z" />
<glyph unicode="&#xa7;" horiz-adv-x="968" d="M94 66l74 77q56 -58 135.5 -87t163.5 -29q125 0 187.5 48.5t62.5 121.5q0 50 -26 88t-68 60t-96.5 43t-110.5 36t-110.5 40.5t-96.5 56t-68 82.5t-26 120q0 86 44 146.5t101 91.5q-125 79 -125 225q0 132 99.5 206t271.5 74q105 0 204.5 -37.5t163.5 -105.5l-73 -78 q-56 58 -136 87.5t-163 29.5q-125 0 -187.5 -48.5t-62.5 -121.5q0 -50 26 -88t68 -60t96.5 -43t110.5 -36t110.5 -40.5t96.5 -56t68 -82.5t26 -120q0 -85 -44 -145.5t-101 -94.5q125 -76 125 -223q0 -132 -99.5 -206.5t-271.5 -74.5q-105 0 -205 37.5t-164 106.5zM225 743 q0 -46 18.5 -82t46.5 -58t73 -42.5t84.5 -32.5t94.5 -30t91 -33q46 26 78 73.5t32 106.5q0 45 -18.5 80.5t-47 58t-73 43t-84 32.5t-94 30t-90.5 33q-47 -26 -79 -73t-32 -106z" />
<glyph unicode="&#xa8;" d="M283 1085v185h141v-185h-141zM600 1085v185h141v-185h-141z" />
<glyph unicode="&#xa9;" horiz-adv-x="1716" d="M115 717q0 205 98.5 374.5t269 267t375.5 97.5q153 0 290.5 -57.5t237 -155.5t158 -235.5t58.5 -290.5t-58.5 -290t-158 -235.5t-237 -156.5t-290.5 -58q-205 0 -375.5 98t-269 268t-98.5 374zM197 717q0 -181 87.5 -333t240 -240.5t333.5 -88.5t333 88.5t240.5 240.5 t88.5 333t-88.5 333.5t-240.5 240t-333 87.5q-136 0 -258.5 -52t-210.5 -140t-140 -210.5t-52 -258.5zM522 717q0 177 97 277t247 100q196 0 297 -152l-73 -55q-68 123 -226 123q-104 0 -171.5 -76t-67.5 -217q0 -140 67.5 -215.5t171.5 -75.5q153 0 226 125l75 -53 q-58 -80 -129 -118t-170 -38q-148 0 -246 100t-98 275z" />
<glyph unicode="&#xaa;" horiz-adv-x="821" d="M74 905q0 126 116.5 182t374.5 76v23q0 155 -174 155q-136 0 -201 -116l-71 41q86 153 276 153q127 0 195.5 -61.5t68.5 -183.5v-291q0 -80 39 -80q15 0 31 4v-74q-42 -6 -51 -6q-94 0 -107 111q-32 -55 -102.5 -89t-163.5 -34q-100 0 -165.5 48.5t-65.5 141.5zM100 512 v78h615v-78h-615zM168 915q0 -122 151 -122q59 0 113 20.5t93.5 68.5t39.5 115v97q-213 -20 -305 -58t-92 -121z" />
<glyph unicode="&#xab;" horiz-adv-x="790" d="M33 453l293 364h116l-270 -366l266 -365h-112zM350 453l293 364h117l-271 -366l267 -365h-113z" />
<glyph unicode="&#xad;" horiz-adv-x="825" d="M182 530v111h461v-111h-461z" />
<glyph unicode="&#xae;" horiz-adv-x="897" d="M63 1075q0 160 113 272.5t273 112.5t272.5 -112.5t112.5 -272.5t-112.5 -272.5t-272.5 -112.5t-273 112.5t-113 272.5zM117 1075q0 -136 97.5 -233t234.5 -97t234 97t97 233t-97 233t-234 97t-234.5 -97t-97.5 -233zM287 856v434h162q34 0 60.5 -4.5t55 -17t44.5 -41 t16 -70.5q0 -51 -25 -82t-61 -43l90 -176h-74l-82 166h-117v-166h-69zM356 1081h93q54 0 81 16.5t27 59.5q0 41 -29 56.5t-82 15.5h-90v-148z" />
<glyph unicode="&#xaf;" d="M244 1126v103h536v-103h-536z" />
<glyph unicode="&#xb0;" horiz-adv-x="823" d="M72 1094q0 148 98.5 245t241.5 97t241.5 -97t98.5 -245t-98.5 -245t-241.5 -97t-241.5 97t-98.5 245zM174 1094q0 -109 67 -176.5t171 -67.5t170.5 67.5t66.5 176.5t-66.5 176t-170.5 67t-171 -67t-67 -176z" />
<glyph unicode="&#xb1;" horiz-adv-x="1173" d="M125 0v106h924v-106h-924zM125 655v109h405v414h113v-414h406v-109h-406v-413h-113v413h-405z" />
<glyph unicode="&#xb2;" horiz-adv-x="720" d="M43 686v74l139 104q81 61 124 95t92.5 75.5t72 67.5t43.5 58.5t28 61.5t7 64q0 89 -56 140t-141 51q-90 0 -145.5 -48.5t-67.5 -132.5l-94 19q23 117 105 182.5t202 65.5q134 0 213.5 -77.5t79.5 -201.5q0 -38 -8.5 -73t-20.5 -64t-39.5 -62.5t-52 -59.5t-72 -65 t-85 -67.5t-105.5 -79.5l-53 -39h446v-88h-612z" />
<glyph unicode="&#xb3;" horiz-adv-x="702" d="M43 891l94 18q13 -83 66.5 -121t134.5 -38q87 0 145 41t58 127q0 83 -56.5 124t-146.5 41h-92v86h92q99 0 142.5 36t43.5 114t-52 118t-132 40q-76 0 -127 -38t-66 -108l-90 21q19 97 96.5 154t188.5 57q123 0 199.5 -67.5t76.5 -174.5q0 -70 -31 -121t-89 -74 q137 -51 137 -211q0 -120 -81.5 -185.5t-213.5 -65.5q-120 0 -198 56.5t-99 170.5z" />
<glyph unicode="&#xb4;" d="M459 1024l155 305h152l-209 -305h-98z" />
<glyph unicode="&#xb6;" horiz-adv-x="983" d="M63 1071q0 115 52.5 199t135.5 124t185 40h512v-95h-133v-1339h-96v1339h-113v-1339h-96v707h-61q-163 0 -274.5 98.5t-111.5 265.5z" />
<glyph unicode="&#xb7;" horiz-adv-x="516" d="M182 535v184h152v-184h-152z" />
<glyph unicode="&#xb8;" d="M334 -332l41 70q53 -39 139 -39q117 0 117 78q0 73 -156 76q-24 0 -39 -3l35 150h76l-19 -84q195 -7 195 -139q0 -72 -51.5 -114t-155.5 -42q-111 0 -182 47z" />
<glyph unicode="&#xb9;" horiz-adv-x="563" d="M82 1427l211 115h63v-768h181v-88h-453v88h178v649l-145 -65z" />
<glyph unicode="&#xba;" horiz-adv-x="808" d="M80 1067q0 164 92.5 257t233.5 93t233 -92.5t92 -257.5t-92 -257.5t-233 -92.5t-233.5 93t-92.5 257zM104 512v78h603v-78h-603zM180 1067q0 -130 63 -198t163 -68t162.5 68t62.5 198t-62.5 198t-162.5 68t-163 -68t-63 -198z" />
<glyph unicode="&#xbb;" horiz-adv-x="790" d="M31 817h116l293 -364l-293 -367h-112l266 365zM348 817h117l293 -364l-293 -367h-113l266 365z" />
<glyph unicode="&#xbc;" horiz-adv-x="1644" d="M119 1311l211 114h63v-768h180v-88h-452v88h178v650l-145 -66zM285 -20l962 1445h99l-961 -1445h-100zM895 223v82l442 551h99v-547h108v-86h-108v-223h-95v223h-446zM1008 309h333v418z" />
<glyph unicode="&#xbd;" horiz-adv-x="1820" d="M131 1311l211 114h64v-768h180v-88h-453v88h178v650l-145 -66zM297 -20l963 1445h98l-961 -1445h-100zM1071 0v74l139 104q79 59 124 94t93 76t71 67.5t44 58.5t28 61.5t7 64.5q0 89 -56 138.5t-141 49.5q-91 0 -146 -47.5t-67 -130.5l-94 17q23 119 105 184.5t202 65.5 q134 0 213.5 -77.5t79.5 -201.5q0 -45 -9 -83.5t-33 -77t-49 -69t-76.5 -74t-94 -76.5t-121.5 -91l-53 -39h446v-88h-612z" />
<glyph unicode="&#xbe;" horiz-adv-x="1736" d="M88 774l94 19q25 -160 201 -160q87 0 145 41t58 127q0 83 -57 124.5t-146 41.5h-92v86h92q99 0 142.5 36t43.5 113q0 78 -52 118t-132 40q-76 0 -126.5 -38t-65.5 -108l-91 21q19 97 96.5 154t188.5 57q123 0 200 -67.5t77 -174.5q0 -69 -31.5 -120t-89.5 -74 q137 -51 137 -211q0 -120 -81.5 -186t-213.5 -66q-120 0 -198 56.5t-99 170.5zM375 -20l962 1445h99l-961 -1445h-100zM985 223v82l442 551h99v-547h108v-86h-108v-223h-94v223h-447zM1098 309h334v418z" />
<glyph unicode="&#xbf;" horiz-adv-x="911" d="M78 358q0 87 29.5 161.5t83.5 132t112.5 99t134.5 80.5v246h117v-297q-65 -31 -114 -60t-96.5 -67.5t-78 -80t-49 -95t-18.5 -115.5q0 -134 75.5 -209t212.5 -75q110 0 185.5 60t105.5 179l115 -26q-41 -146 -147.5 -230t-266.5 -84q-84 0 -155.5 23.5t-127 69t-87 119.5 t-31.5 169zM424 1245v189h145v-189h-145z" />
<glyph unicode="&#xc0;" horiz-adv-x="1374" d="M20 0l603 1446h135l600 -1446h-137l-177 432h-720l-177 -432h-127zM369 543h630l-315 768zM434 1853h162l147 -290h-106z" />
<glyph unicode="&#xc1;" horiz-adv-x="1374" d="M20 0l603 1446h135l600 -1446h-137l-177 432h-720l-177 -432h-127zM369 543h630l-315 768zM635 1561l149 290h160l-201 -290h-108z" />
<glyph unicode="&#xc2;" horiz-adv-x="1374" d="M20 0l603 1446h135l600 -1446h-137l-177 432h-720l-177 -432h-127zM369 543h630l-315 768zM434 1561l182 290h148l182 -290h-108l-148 192l-147 -192h-109z" />
<glyph unicode="&#xc3;" horiz-adv-x="1374" d="M20 0l603 1446h135l600 -1446h-137l-177 432h-720l-177 -432h-127zM369 543h630l-315 768zM373 1636q42 183 200 183q35 0 65.5 -11t51.5 -26.5t40.5 -31.5t41.5 -27t45 -11q37 0 62 21.5t43 76.5l86 -22q-12 -54 -35 -92.5t-52 -57t-56.5 -26.5t-57.5 -8q-43 0 -80 17 t-58.5 37t-49.5 37t-56 17q-37 0 -61.5 -22t-42.5 -78z" />
<glyph unicode="&#xc4;" horiz-adv-x="1374" d="M20 0l603 1446h135l600 -1446h-137l-177 432h-720l-177 -432h-127zM369 543h630l-315 768zM434 1618v186h158v-186h-158zM788 1618v186h158v-186h-158z" />
<glyph unicode="&#xc5;" horiz-adv-x="1374" d="M20 0l603 1446h135l600 -1446h-137l-177 432h-720l-177 -432h-127zM369 543h630l-315 768zM506 1712q0 75 54 128.5t130 53.5q77 0 132 -53.5t55 -128.5q0 -76 -55 -129t-132 -53t-130.5 53t-53.5 129zM582 1712q0 -50 31 -81.5t77 -31.5q47 0 79 31.5t32 81.5 q0 49 -32 80t-79 31q-46 0 -77 -31t-31 -80z" />
<glyph unicode="&#xc6;" horiz-adv-x="1773" d="M10 0l619 1434h995v-115h-803l72 -531h397v-112h-383l76 -559h674v-117h-783l-51 385h-526l-164 -385h-123zM342 489h469l-111 838z" />
<glyph unicode="&#xc7;" horiz-adv-x="1468" d="M129 717q0 176 54 319t147 235.5t215.5 142.5t261.5 50q364 0 563 -297l-104 -69q-71 120 -187.5 186t-269.5 66q-242 0 -394.5 -167t-152.5 -466q0 -151 43 -273t117.5 -199.5t172.5 -119t210 -41.5q313 0 463 252l104 -70q-188 -282 -530 -295l-13 -57q195 -3 195 -141 q0 -158 -215 -158q-123 0 -205 53l47 76q62 -45 160 -45q117 0 117 76q0 70 -154 73q-35 0 -49 -2l29 125q-131 9 -244.5 63.5t-198.5 147.5t-133.5 231t-48.5 304z" />
<glyph unicode="&#xc8;" horiz-adv-x="1255" d="M190 0v1434h926v-117h-797v-529h426v-114h-426v-555h822v-119h-951zM412 1853h161l148 -290h-107z" />
<glyph unicode="&#xc9;" horiz-adv-x="1255" d="M190 0v1434h926v-117h-797v-529h426v-114h-426v-555h822v-119h-951zM612 1561l150 290h160l-201 -290h-109z" />
<glyph unicode="&#xca;" horiz-adv-x="1255" d="M190 0v1434h926v-117h-797v-529h426v-114h-426v-555h822v-119h-951zM412 1561l182 290h147l183 -290h-109l-147 192l-148 -192h-108z" />
<glyph unicode="&#xcb;" horiz-adv-x="1255" d="M190 0v1434h926v-117h-797v-529h426v-114h-426v-555h822v-119h-951zM412 1618v186h157v-186h-157zM766 1618v186h158v-186h-158z" />
<glyph unicode="&#xcc;" horiz-adv-x="509" d="M-2 1853h162l147 -290h-106zM190 0v1434h129v-1434h-129z" />
<glyph unicode="&#xcd;" horiz-adv-x="509" d="M190 0v1434h129v-1434h-129zM199 1561l149 290h160l-201 -290h-108z" />
<glyph unicode="&#xce;" horiz-adv-x="509" d="M-2 1561l182 290h148l182 -290h-109l-147 192l-148 -192h-108zM190 0v1434h129v-1434h-129z" />
<glyph unicode="&#xcf;" horiz-adv-x="509" d="M-2 1618v186h158v-186h-158zM190 0v1434h129v-1434h-129zM352 1618v186h158v-186h-158z" />
<glyph unicode="&#xd0;" horiz-adv-x="1490" d="M16 664v114h174v656h422q139 0 250.5 -20.5t208 -70.5t160.5 -130t100.5 -203t36.5 -285q0 -166 -38 -293t-102.5 -207.5t-159.5 -132t-200 -72t-233 -20.5h-445v664h-174zM319 117h265q77 0 135.5 4t129.5 19t123.5 40.5t104.5 71t84.5 108.5t53 155.5t20.5 209.5 q0 115 -20.5 205.5t-53 152t-85 106t-104 68.5t-123 38t-130 18t-135.5 4h-265v-539h408v-114h-408v-547z" />
<glyph unicode="&#xd1;" horiz-adv-x="1556" d="M190 0v1434h148l907 -1258v1258h121v-1434h-147l-910 1260v-1260h-119zM463 1636q42 183 201 183q43 0 79.5 -16.5t58 -37t49.5 -37t56 -16.5q37 0 62 21.5t43 76.5l86 -22q-12 -54 -35 -92.5t-52 -57t-56.5 -26.5t-57.5 -8q-43 0 -80 17t-58.5 37t-49.5 37t-56 17 q-37 0 -61.5 -22t-42.5 -78z" />
<glyph unicode="&#xd2;" horiz-adv-x="1607" d="M129 717q0 174 53.5 317t145.5 236t214.5 143.5t262.5 50.5q139 0 261 -50.5t214 -143.5t145.5 -236t53.5 -317t-53.5 -317t-145.5 -236.5t-214 -144t-261 -50.5q-140 0 -262.5 50.5t-214.5 144t-145.5 236.5t-53.5 317zM262 717q0 -149 41.5 -269.5t115 -199.5 t172 -121.5t214.5 -42.5q115 0 213.5 42.5t171.5 121.5t114.5 199.5t41.5 269.5t-41.5 269.5t-114.5 199.5t-171.5 121.5t-213.5 42.5q-116 0 -214.5 -42.5t-172 -121.5t-115 -199.5t-41.5 -269.5zM549 1853h162l147 -290h-106z" />
<glyph unicode="&#xd3;" horiz-adv-x="1607" d="M129 717q0 174 53.5 317t145.5 236t214.5 143.5t262.5 50.5q139 0 261 -50.5t214 -143.5t145.5 -236t53.5 -317t-53.5 -317t-145.5 -236.5t-214 -144t-261 -50.5q-140 0 -262.5 50.5t-214.5 144t-145.5 236.5t-53.5 317zM262 717q0 -149 41.5 -269.5t115 -199.5 t172 -121.5t214.5 -42.5q115 0 213.5 42.5t171.5 121.5t114.5 199.5t41.5 269.5t-41.5 269.5t-114.5 199.5t-171.5 121.5t-213.5 42.5q-116 0 -214.5 -42.5t-172 -121.5t-115 -199.5t-41.5 -269.5zM750 1561l149 290h160l-201 -290h-108z" />
<glyph unicode="&#xd4;" horiz-adv-x="1607" d="M129 717q0 174 53.5 317t145.5 236t214.5 143.5t262.5 50.5q139 0 261 -50.5t214 -143.5t145.5 -236t53.5 -317t-53.5 -317t-145.5 -236.5t-214 -144t-261 -50.5q-140 0 -262.5 50.5t-214.5 144t-145.5 236.5t-53.5 317zM262 717q0 -149 41.5 -269.5t115 -199.5 t172 -121.5t214.5 -42.5q115 0 213.5 42.5t171.5 121.5t114.5 199.5t41.5 269.5t-41.5 269.5t-114.5 199.5t-171.5 121.5t-213.5 42.5q-116 0 -214.5 -42.5t-172 -121.5t-115 -199.5t-41.5 -269.5zM549 1561l182 290h148l182 -290h-109l-147 192l-148 -192h-108z" />
<glyph unicode="&#xd5;" horiz-adv-x="1607" d="M129 717q0 174 53.5 317t145.5 236t214.5 143.5t262.5 50.5q139 0 261 -50.5t214 -143.5t145.5 -236t53.5 -317t-53.5 -317t-145.5 -236.5t-214 -144t-261 -50.5q-140 0 -262.5 50.5t-214.5 144t-145.5 236.5t-53.5 317zM262 717q0 -149 41.5 -269.5t115 -199.5 t172 -121.5t214.5 -42.5q115 0 213.5 42.5t171.5 121.5t114.5 199.5t41.5 269.5t-41.5 269.5t-114.5 199.5t-171.5 121.5t-213.5 42.5q-116 0 -214.5 -42.5t-172 -121.5t-115 -199.5t-41.5 -269.5zM487 1636q42 183 201 183q35 0 65.5 -11t51.5 -26.5t40.5 -31.5t41.5 -27 t45 -11q37 0 61.5 21.5t42.5 76.5l86 -22q-24 -103 -79 -143.5t-121 -40.5q-43 0 -80 17t-58.5 37t-49.5 37t-56 17q-37 0 -62 -22t-43 -78z" />
<glyph unicode="&#xd6;" horiz-adv-x="1607" d="M129 717q0 174 53.5 317t145.5 236t214.5 143.5t262.5 50.5q139 0 261 -50.5t214 -143.5t145.5 -236t53.5 -317t-53.5 -317t-145.5 -236.5t-214 -144t-261 -50.5q-140 0 -262.5 50.5t-214.5 144t-145.5 236.5t-53.5 317zM262 717q0 -149 41.5 -269.5t115 -199.5 t172 -121.5t214.5 -42.5q115 0 213.5 42.5t171.5 121.5t114.5 199.5t41.5 269.5t-41.5 269.5t-114.5 199.5t-171.5 121.5t-213.5 42.5q-116 0 -214.5 -42.5t-172 -121.5t-115 -199.5t-41.5 -269.5zM549 1618v186h158v-186h-158zM903 1618v186h158v-186h-158z" />
<glyph unicode="&#xd7;" horiz-adv-x="1173" d="M143 393l361 301l-361 303l72 80l373 -313l373 313l69 -80l-360 -303l360 -301l-69 -82l-373 314l-373 -314z" />
<glyph unicode="&#xd8;" horiz-adv-x="1607" d="M129 717q0 174 53.5 317t145.5 236t214.5 143.5t262.5 50.5q159 0 299 -67l51 96h121l-82 -152q134 -96 209.5 -255t75.5 -369q0 -174 -53.5 -317t-145.5 -236.5t-214 -144t-261 -50.5q-162 0 -305 70l-51 -96h-121l80 151q-131 96 -205 254.5t-74 368.5zM262 717 q0 -173 53.5 -303.5t149.5 -212.5l584 1091q-116 58 -244 58q-116 0 -214.5 -42.5t-172 -121.5t-115 -199.5t-41.5 -269.5zM555 141q108 -57 250 -57q115 0 213.5 42.5t171.5 121.5t114.5 199.5t41.5 269.5q0 172 -55.5 304t-153.5 214z" />
<glyph unicode="&#xd9;" horiz-adv-x="1445" d="M180 539v895h129v-885q0 -243 109 -351t309 -108t310 109.5t110 359.5v875h121v-867q0 -138 -31 -244t-82 -171t-124 -105.5t-147.5 -56t-162.5 -15.5q-67 0 -128 10.5t-124 34t-113.5 66.5t-91 103t-62.5 149.5t-22 200.5zM471 1853h162l147 -290h-106z" />
<glyph unicode="&#xda;" horiz-adv-x="1445" d="M180 539v895h129v-885q0 -243 109 -351t309 -108t310 109.5t110 359.5v875h121v-867q0 -138 -31 -244t-82 -171t-124 -105.5t-147.5 -56t-162.5 -15.5q-67 0 -128 10.5t-124 34t-113.5 66.5t-91 103t-62.5 149.5t-22 200.5zM672 1561l149 290h160l-201 -290h-108z" />
<glyph unicode="&#xdb;" horiz-adv-x="1445" d="M180 539v895h129v-885q0 -243 109 -351t309 -108t310 109.5t110 359.5v875h121v-867q0 -138 -31 -244t-82 -171t-124 -105.5t-147.5 -56t-162.5 -15.5q-67 0 -128 10.5t-124 34t-113.5 66.5t-91 103t-62.5 149.5t-22 200.5zM471 1561l182 290h148l182 -290h-109l-147 192 l-147 -192h-109z" />
<glyph unicode="&#xdc;" horiz-adv-x="1445" d="M180 539v895h129v-885q0 -243 109 -351t309 -108t310 109.5t110 359.5v875h121v-867q0 -138 -31 -244t-82 -171t-124 -105.5t-147.5 -56t-162.5 -15.5q-67 0 -128 10.5t-124 34t-113.5 66.5t-91 103t-62.5 149.5t-22 200.5zM471 1618v186h158v-186h-158zM825 1618v186 h158v-186h-158z" />
<glyph unicode="&#xdd;" horiz-adv-x="1193" d="M18 1434h148l434 -711l440 711h134l-515 -826v-608h-129v608zM541 1561l149 290h160l-201 -290h-108z" />
<glyph unicode="&#xde;" horiz-adv-x="1363" d="M190 0v1434h129v-293h381q60 0 110.5 -4t106.5 -15t100 -30t85.5 -51t68.5 -74.5t43.5 -104.5t16.5 -139q0 -88 -21.5 -157.5t-62.5 -114.5t-90.5 -75.5t-115.5 -46.5t-126 -22t-133 -6h-363v-301h-129zM319 416h381q208 0 305 66.5t97 240.5q0 90 -25 149.5t-78.5 92.5 t-124 46t-174.5 13h-381v-608z" />
<glyph unicode="&#xdf;" horiz-adv-x="1085" d="M166 0v1133q0 99 23 165t68 99t95 45t121 12q155 0 233 -87t78 -239q0 -108 -37.5 -183.5t-95.5 -110.5q48 -4 91 -15t93.5 -39t86.5 -70.5t60 -115t24 -166.5q0 -222 -116.5 -334t-314.5 -112q-86 0 -135 8v102q45 -10 135 -10q146 0 226 86t80 260q0 182 -87 254 t-292 72h-51v100q26 0 49.5 3.5t57.5 19.5t57.5 43t41 79.5t17.5 124.5q0 230 -203 230q-103 0 -145.5 -48t-42.5 -163v-1143h-117z" />
<glyph unicode="&#xe0;" horiz-adv-x="1003" d="M74 236q0 57 18 103t48 79.5t79.5 59.5t100 43t122 30t135 20.5t148.5 14.5v32q0 112 -56.5 165t-172.5 53q-163 0 -267 -148l-88 62q57 86 149.5 134t213.5 48q162 0 250 -83t88 -251v-397q0 -68 11.5 -91.5t45.5 -23.5q24 0 39 6v-88q-23 -10 -57 -10q-140 0 -150 158 q-41 -81 -128 -128t-208 -47q-160 0 -240.5 71t-80.5 188zM199 244q0 -168 213 -168q59 0 113.5 17t100 50.5t72.5 89t27 125.5v138q-68 -6 -114.5 -11t-106.5 -14.5t-99.5 -21t-82 -30.5t-67 -43t-40.5 -57.5t-16 -74.5zM248 1329h151l158 -305h-100z" />
<glyph unicode="&#xe1;" horiz-adv-x="1003" d="M74 236q0 57 18 103t48 79.5t79.5 59.5t100 43t122 30t135 20.5t148.5 14.5v32q0 112 -56.5 165t-172.5 53q-163 0 -267 -148l-88 62q57 86 149.5 134t213.5 48q162 0 250 -83t88 -251v-397q0 -68 11.5 -91.5t45.5 -23.5q24 0 39 6v-88q-23 -10 -57 -10q-140 0 -150 158 q-41 -81 -128 -128t-208 -47q-160 0 -240.5 71t-80.5 188zM199 244q0 -168 213 -168q59 0 113.5 17t100 50.5t72.5 89t27 125.5v138q-68 -6 -114.5 -11t-106.5 -14.5t-99.5 -21t-82 -30.5t-67 -43t-40.5 -57.5t-16 -74.5zM451 1024l155 305h152l-209 -305h-98z" />
<glyph unicode="&#xe2;" horiz-adv-x="1003" d="M74 236q0 57 18 103t48 79.5t79.5 59.5t100 43t122 30t135 20.5t148.5 14.5v32q0 112 -56.5 165t-172.5 53q-163 0 -267 -148l-88 62q57 86 149.5 134t213.5 48q162 0 250 -83t88 -251v-397q0 -68 11.5 -91.5t45.5 -23.5q24 0 39 6v-88q-23 -10 -57 -10q-140 0 -150 158 q-41 -81 -128 -128t-208 -47q-160 0 -240.5 71t-80.5 188zM199 244q0 -168 213 -168q59 0 113.5 17t100 50.5t72.5 89t27 125.5v138q-68 -6 -114.5 -11t-106.5 -14.5t-99.5 -21t-82 -30.5t-67 -43t-40.5 -57.5t-16 -74.5zM246 1024l190 305h135l191 -305h-100l-158 213 l-158 -213h-100z" />
<glyph unicode="&#xe3;" horiz-adv-x="1003" d="M74 236q0 57 18 103t48 79.5t79.5 59.5t100 43t122 30t135 20.5t148.5 14.5v32q0 112 -56.5 165t-172.5 53q-163 0 -267 -148l-88 62q57 86 149.5 134t213.5 48q162 0 250 -83t88 -251v-397q0 -68 11.5 -91.5t45.5 -23.5q24 0 39 6v-88q-23 -10 -57 -10q-140 0 -150 158 q-41 -81 -128 -128t-208 -47q-160 0 -240.5 71t-80.5 188zM199 244q0 -168 213 -168q59 0 113.5 17t100 50.5t72.5 89t27 125.5v138q-68 -6 -114.5 -11t-106.5 -14.5t-99.5 -21t-82 -30.5t-67 -43t-40.5 -57.5t-16 -74.5zM217 1104q17 91 67 130.5t109 39.5q39 0 73 -15 t55 -33t47.5 -33t52.5 -15q63 0 90 90l80 -19q-12 -62 -43 -102t-64 -54t-70 -14q-39 0 -73.5 15.5t-55.5 34t-47.5 34t-50.5 15.5q-63 0 -90 -91z" />
<glyph unicode="&#xe4;" horiz-adv-x="1003" d="M74 236q0 57 18 103t48 79.5t79.5 59.5t100 43t122 30t135 20.5t148.5 14.5v32q0 112 -56.5 165t-172.5 53q-163 0 -267 -148l-88 62q57 86 149.5 134t213.5 48q162 0 250 -83t88 -251v-397q0 -68 11.5 -91.5t45.5 -23.5q24 0 39 6v-88q-23 -10 -57 -10q-140 0 -150 158 q-41 -81 -128 -128t-208 -47q-160 0 -240.5 71t-80.5 188zM199 244q0 -168 213 -168q59 0 113.5 17t100 50.5t72.5 89t27 125.5v138q-68 -6 -114.5 -11t-106.5 -14.5t-99.5 -21t-82 -30.5t-67 -43t-40.5 -57.5t-16 -74.5zM274 1085v185h142v-185h-142zM592 1085v185h141 v-185h-141z" />
<glyph unicode="&#xe5;" horiz-adv-x="1003" d="M74 236q0 57 18 103t48 79.5t79.5 59.5t100 43t122 30t135 20.5t148.5 14.5v32q0 112 -56.5 165t-172.5 53q-163 0 -267 -148l-88 62q57 86 149.5 134t213.5 48q162 0 250 -83t88 -251v-397q0 -68 11.5 -91.5t45.5 -23.5q24 0 39 6v-88q-23 -10 -57 -10q-140 0 -150 158 q-41 -81 -128 -128t-208 -47q-160 0 -240.5 71t-80.5 188zM199 244q0 -168 213 -168q59 0 113.5 17t100 50.5t72.5 89t27 125.5v138q-68 -6 -114.5 -11t-106.5 -14.5t-99.5 -21t-82 -30.5t-67 -43t-40.5 -57.5t-16 -74.5zM334 1182q0 71 48.5 117.5t121.5 46.5t121.5 -46.5 t48.5 -117.5t-48.5 -117.5t-121.5 -46.5t-121.5 46.5t-48.5 117.5zM406 1182q0 -43 27.5 -71t70.5 -28t70.5 28t27.5 71t-27.5 70.5t-70.5 27.5t-70.5 -27.5t-27.5 -70.5z" />
<glyph unicode="&#xe6;" horiz-adv-x="1658" d="M74 236q0 62 22 110.5t65.5 82t100 56.5t132.5 36t156 18.5t177 5.5v73q0 112 -57.5 165t-173.5 53q-173 0 -263 -144l-92 58q57 86 149.5 134t213.5 48q242 0 307 -182q53 90 144.5 136t209.5 46q85 0 159.5 -27.5t134 -81t94 -142.5t34.5 -202q0 -21 -2 -33h-743 q3 -186 96.5 -277t235.5 -91q109 0 180 46t121 144l92 -49q-43 -74 -91.5 -124t-127 -84t-177.5 -34q-135 0 -239.5 59t-155.5 173q-94 -232 -381 -232q-157 0 -239 70.5t-82 188.5zM199 236q0 -77 54.5 -118.5t158.5 -41.5q128 0 219 72t94 212l2 89q-79 0 -138.5 -2.5 t-124 -10t-109 -22.5t-82 -38t-56 -58.5t-18.5 -81.5zM844 545h618q-14 149 -98 219t-203 70q-134 0 -216.5 -78.5t-100.5 -210.5z" />
<glyph unicode="&#xe7;" horiz-adv-x="974" d="M88 455q0 229 123.5 353t318.5 124q251 0 375 -199l-94 -57q-87 158 -279 158q-141 0 -232 -97.5t-91 -281.5q0 -183 92 -280t234 -97q195 0 282 155l88 -55q-121 -186 -346 -198l-12 -64q194 -7 194 -139q0 -72 -51.5 -114t-154.5 -42q-112 0 -183 47l41 70 q53 -39 139 -39q117 0 117 78q0 73 -155 76q-24 0 -39 -3l28 130q-175 14 -285 137t-110 338z" />
<glyph unicode="&#xe8;" horiz-adv-x="1030" d="M88 451q0 118 34 210.5t94.5 151t140.5 89t175 30.5q85 0 159 -27.5t132.5 -81t92.5 -142t34 -202.5q0 -25 -2 -41h-737q1 -94 28 -165t73.5 -113t103.5 -62t125 -20q110 0 180 45.5t121 144.5l94 -49q-44 -74 -92.5 -124t-127 -84t-177.5 -34q-93 0 -173.5 29.5 t-143 86.5t-98.5 149t-36 209zM217 539h610q-7 81 -34.5 140t-69.5 92t-89.5 48t-103.5 15q-132 0 -213.5 -79.5t-99.5 -215.5zM283 1329h151l158 -305h-100z" />
<glyph unicode="&#xe9;" horiz-adv-x="1030" d="M88 451q0 118 34 210.5t94.5 151t140.5 89t175 30.5q85 0 159 -27.5t132.5 -81t92.5 -142t34 -202.5q0 -25 -2 -41h-737q1 -94 28 -165t73.5 -113t103.5 -62t125 -20q110 0 180 45.5t121 144.5l94 -49q-44 -74 -92.5 -124t-127 -84t-177.5 -34q-93 0 -173.5 29.5 t-143 86.5t-98.5 149t-36 209zM217 539h610q-7 81 -34.5 140t-69.5 92t-89.5 48t-103.5 15q-132 0 -213.5 -79.5t-99.5 -215.5zM485 1024l156 305h152l-209 -305h-99z" />
<glyph unicode="&#xea;" horiz-adv-x="1030" d="M88 451q0 118 34 210.5t94.5 151t140.5 89t175 30.5q85 0 159 -27.5t132.5 -81t92.5 -142t34 -202.5q0 -25 -2 -41h-737q1 -94 28 -165t73.5 -113t103.5 -62t125 -20q110 0 180 45.5t121 144.5l94 -49q-44 -74 -92.5 -124t-127 -84t-177.5 -34q-93 0 -173.5 29.5 t-143 86.5t-98.5 149t-36 209zM217 539h610q-7 81 -34.5 140t-69.5 92t-89.5 48t-103.5 15q-132 0 -213.5 -79.5t-99.5 -215.5zM281 1024l190 305h135l191 -305h-101l-157 213l-158 -213h-100z" />
<glyph unicode="&#xeb;" horiz-adv-x="1030" d="M88 451q0 118 34 210.5t94.5 151t140.5 89t175 30.5q85 0 159 -27.5t132.5 -81t92.5 -142t34 -202.5q0 -25 -2 -41h-737q1 -94 28 -165t73.5 -113t103.5 -62t125 -20q110 0 180 45.5t121 144.5l94 -49q-44 -74 -92.5 -124t-127 -84t-177.5 -34q-93 0 -173.5 29.5 t-143 86.5t-98.5 149t-36 209zM217 539h610q-7 81 -34.5 140t-69.5 92t-89.5 48t-103.5 15q-132 0 -213.5 -79.5t-99.5 -215.5zM309 1085v185h142v-185h-142zM627 1085v185h141v-185h-141z" />
<glyph unicode="&#xec;" horiz-adv-x="452" d="M-31 1329h152l158 -305h-101zM166 0v911h121v-911h-121z" />
<glyph unicode="&#xed;" horiz-adv-x="452" d="M166 0v911h121v-911h-121zM172 1024l156 305h151l-209 -305h-98z" />
<glyph unicode="&#xee;" horiz-adv-x="452" d="M-33 1024l191 305h135l190 -305h-100l-158 213l-157 -213h-101zM166 0v911h121v-911h-121z" />
<glyph unicode="&#xef;" horiz-adv-x="452" d="M-4 1085v185h141v-185h-141zM166 0v911h121v-911h-121zM313 1085v185h142v-185h-142z" />
<glyph unicode="&#xf0;" horiz-adv-x="1073" d="M86 430q0 206 115 331.5t315 125.5q68 0 127 -21t99 -54.5t67 -70t41 -73.5q-8 264 -107 438l-282 -94l-27 82l260 84q-96 124 -248 170l41 108q209 -72 324 -239l154 49l26 -78l-137 -45q111 -217 111 -574q0 -99 -14 -183.5t-46.5 -160.5t-83 -129.5t-128.5 -84.5 t-177 -31q-103 0 -186.5 38t-136 101.5t-80 143.5t-27.5 167zM211 430q0 -159 87 -256.5t224 -97.5q75 0 137 31.5t100.5 83.5t59.5 116t21 131q0 61 -19.5 121t-56 111.5t-98.5 83.5t-138 32q-140 0 -228.5 -93.5t-88.5 -262.5z" />
<glyph unicode="&#xf1;" horiz-adv-x="1093" d="M166 0v911h117v-188q33 92 119.5 150.5t213.5 58.5q163 0 243.5 -97.5t80.5 -254.5v-580h-117v526q0 154 -52.5 229.5t-182.5 75.5q-93 0 -168.5 -53t-110.5 -160q-26 -83 -26 -200v-418h-117zM264 1104q17 91 67 130.5t109 39.5q39 0 73 -15t55 -33t47.5 -33t52.5 -15 q63 0 90 90l80 -19q-12 -62 -42.5 -102t-63.5 -54t-70 -14q-39 0 -73.5 15.5t-56 34t-48 34t-50.5 15.5q-63 0 -90 -91z" />
<glyph unicode="&#xf2;" horiz-adv-x="1050" d="M88 455q0 116 34 208t93.5 150t138 88.5t170.5 30.5q91 0 170 -30.5t139.5 -88.5t95 -150t34.5 -208q0 -115 -34.5 -207t-95 -150.5t-139.5 -89.5t-170 -31q-189 0 -312.5 125.5t-123.5 352.5zM213 455q0 -183 87.5 -280t223.5 -97t225 97.5t89 279.5q0 184 -88.5 281.5 t-225.5 97.5q-136 0 -223.5 -97.5t-87.5 -281.5zM268 1329h152l158 -305h-101z" />
<glyph unicode="&#xf3;" horiz-adv-x="1050" d="M88 455q0 116 34 208t93.5 150t138 88.5t170.5 30.5q91 0 170 -30.5t139.5 -88.5t95 -150t34.5 -208q0 -115 -34.5 -207t-95 -150.5t-139.5 -89.5t-170 -31q-189 0 -312.5 125.5t-123.5 352.5zM213 455q0 -183 87.5 -280t223.5 -97t225 97.5t89 279.5q0 184 -88.5 281.5 t-225.5 97.5q-136 0 -223.5 -97.5t-87.5 -281.5zM471 1024l156 305h151l-209 -305h-98z" />
<glyph unicode="&#xf4;" horiz-adv-x="1050" d="M88 455q0 116 34 208t93.5 150t138 88.5t170.5 30.5q91 0 170 -30.5t139.5 -88.5t95 -150t34.5 -208q0 -115 -34.5 -207t-95 -150.5t-139.5 -89.5t-170 -31q-189 0 -312.5 125.5t-123.5 352.5zM213 455q0 -183 87.5 -280t223.5 -97t225 97.5t89 279.5q0 184 -88.5 281.5 t-225.5 97.5q-136 0 -223.5 -97.5t-87.5 -281.5zM266 1024l191 305h135l190 -305h-100l-158 213l-157 -213h-101z" />
<glyph unicode="&#xf5;" horiz-adv-x="1050" d="M88 455q0 116 34 208t93.5 150t138 88.5t170.5 30.5q91 0 170 -30.5t139.5 -88.5t95 -150t34.5 -208q0 -115 -34.5 -207t-95 -150.5t-139.5 -89.5t-170 -31q-189 0 -312.5 125.5t-123.5 352.5zM213 455q0 -183 87.5 -280t223.5 -97t225 97.5t89 279.5q0 184 -88.5 281.5 t-225.5 97.5q-136 0 -223.5 -97.5t-87.5 -281.5zM238 1104q17 91 67 130.5t109 39.5q39 0 73 -15t54.5 -33t47 -33t52.5 -15q63 0 90 90l80 -19q-12 -62 -42.5 -102t-63.5 -54t-70 -14q-39 0 -73.5 15.5t-55.5 34t-47.5 34t-50.5 15.5q-64 0 -91 -91z" />
<glyph unicode="&#xf6;" horiz-adv-x="1050" d="M88 455q0 116 34 208t93.5 150t138 88.5t170.5 30.5q91 0 170 -30.5t139.5 -88.5t95 -150t34.5 -208q0 -115 -34.5 -207t-95 -150.5t-139.5 -89.5t-170 -31q-189 0 -312.5 125.5t-123.5 352.5zM213 455q0 -183 87.5 -280t223.5 -97t225 97.5t89 279.5q0 184 -88.5 281.5 t-225.5 97.5q-136 0 -223.5 -97.5t-87.5 -281.5zM295 1085v185h141v-185h-141zM612 1085v185h142v-185h-142z" />
<glyph unicode="&#xf7;" horiz-adv-x="1173" d="M125 641v107h924v-107h-924zM520 297v192h135v-192h-135zM520 897v199h135v-199h-135z" />
<glyph unicode="&#xf8;" horiz-adv-x="1050" d="M88 455q0 116 34 208t93.5 150t138 88.5t170.5 30.5q99 0 183 -35l30 57h111l-57 -106q172 -129 172 -393q0 -115 -34.5 -207t-95 -150.5t-139.5 -89.5t-170 -31q-98 0 -182 35l-31 -55h-110l55 104q-79 61 -123.5 160.5t-44.5 233.5zM213 455q0 -192 98 -293l346 643 q-66 29 -133 29q-136 0 -223.5 -97.5t-87.5 -281.5zM391 104q59 -26 133 -26q136 0 225 97.5t89 279.5q0 191 -101 295z" />
<glyph unicode="&#xf9;" horiz-adv-x="1083" d="M154 344v567h116v-528q0 -153 52.5 -228t181.5 -75q82 0 149.5 43.5t104.5 126.5q43 89 43 227v434h117v-911h-115v182q-36 -87 -119 -144.5t-211 -57.5q-163 0 -241 99t-78 265zM283 1329h151l158 -305h-100z" />
<glyph unicode="&#xfa;" horiz-adv-x="1083" d="M154 344v567h116v-528q0 -153 52.5 -228t181.5 -75q82 0 149.5 43.5t104.5 126.5q43 89 43 227v434h117v-911h-115v182q-36 -87 -119 -144.5t-211 -57.5q-163 0 -241 99t-78 265zM485 1024l156 305h152l-209 -305h-99z" />
<glyph unicode="&#xfb;" horiz-adv-x="1083" d="M154 344v567h116v-528q0 -153 52.5 -228t181.5 -75q82 0 149.5 43.5t104.5 126.5q43 89 43 227v434h117v-911h-115v182q-36 -87 -119 -144.5t-211 -57.5q-163 0 -241 99t-78 265zM281 1024l190 305h135l191 -305h-101l-157 213l-158 -213h-100z" />
<glyph unicode="&#xfc;" horiz-adv-x="1083" d="M154 344v567h116v-528q0 -153 52.5 -228t181.5 -75q82 0 149.5 43.5t104.5 126.5q43 89 43 227v434h117v-911h-115v182q-36 -87 -119 -144.5t-211 -57.5q-163 0 -241 99t-78 265zM309 1085v185h142v-185h-142zM627 1085v185h141v-185h-141z" />
<glyph unicode="&#xfd;" horiz-adv-x="899" d="M18 911h127l308 -794l309 794h119l-432 -1079q-17 -41 -29 -66.5t-33 -54t-44.5 -44t-60 -26t-83.5 -10.5q-63 0 -136 15v106q57 -22 134 -22q54 0 88 24.5t57 81.5l51 133zM395 1024l156 305h151l-208 -305h-99z" />
<glyph unicode="&#xfe;" horiz-adv-x="1093" d="M166 -360v1794h117v-678q98 172 319 172q180 0 289.5 -123t109.5 -350q0 -226 -108.5 -348.5t-290.5 -122.5q-108 0 -190.5 43t-128.5 123v-510h-117zM281 455q0 -59 9.5 -111.5t32 -101t56.5 -83t85.5 -55t115.5 -20.5q138 0 217.5 93t79.5 278q0 186 -79 279t-218 93 q-80 0 -139.5 -30.5t-93.5 -84t-50 -117.5t-16 -140z" />
<glyph unicode="&#xff;" horiz-adv-x="899" d="M18 911h127l308 -794l309 794h119l-432 -1079q-17 -41 -29 -66.5t-33 -54t-44.5 -44t-60 -26t-83.5 -10.5q-63 0 -136 15v106q57 -22 134 -22q54 0 88 24.5t57 81.5l51 133zM219 1085v185h141v-185h-141zM537 1085v185h141v-185h-141z" />
<glyph unicode="&#x152;" horiz-adv-x="1855" d="M129 717q0 173 59 310.5t164.5 226t248 134.5t312.5 46h803v-117h-698v-529h346v-112h-346v-555h723v-121h-828q-132 0 -249 27.5t-215.5 85t-169.5 141.5t-110.5 202t-39.5 261zM260 717q0 -150 47.5 -266.5t133 -189t199 -109.5t249.5 -37v1206q-136 0 -249.5 -37.5 t-199 -110.5t-133 -189.5t-47.5 -266.5z" />
<glyph unicode="&#x153;" horiz-adv-x="1779" d="M88 455q0 116 34 208t93.5 150t138 88.5t170.5 30.5q121 0 219.5 -53t155.5 -154q58 101 158 154t225 53q85 0 159 -27.5t132.5 -81t92.5 -142t34 -202.5q0 -25 -2 -41h-737q1 -94 28 -165t73 -113t103 -62t125 -20q110 0 180 45.5t121 144.5l95 -49q-44 -74 -93 -124 t-127.5 -84t-177.5 -34q-125 0 -228 52.5t-161 154.5q-56 -101 -155 -154t-220 -53q-189 0 -312.5 125.5t-123.5 352.5zM213 455q0 -183 87.5 -280t223.5 -97t225 97.5t89 279.5q0 184 -88.5 281.5t-225.5 97.5q-136 0 -223.5 -97.5t-87.5 -281.5zM967 539h610 q-7 81 -34.5 140t-69.5 92t-89.5 48t-103.5 15q-132 0 -213.5 -79.5t-99.5 -215.5z" />
<glyph unicode="&#x178;" horiz-adv-x="1193" d="M18 1434h148l434 -711l440 711h134l-515 -826v-608h-129v608zM340 1618v186h158v-186h-158zM694 1618v186h158v-186h-158z" />
<glyph unicode="&#x2c6;" d="M254 1024l190 305h136l190 -305h-100l-158 213l-158 -213h-100z" />
<glyph unicode="&#x2dc;" d="M225 1104q17 91 67 130.5t109 39.5q39 0 73 -15t55 -33t47.5 -33t52.5 -15q63 0 90 90l80 -19q-12 -62 -42.5 -102t-63.5 -54t-70 -14q-39 0 -73.5 15.5t-56 34t-48 34t-50.5 15.5q-63 0 -90 -91z" />
<glyph unicode="&#x2000;" horiz-adv-x="947" />
<glyph unicode="&#x2001;" horiz-adv-x="1894" />
<glyph unicode="&#x2002;" horiz-adv-x="947" />
<glyph unicode="&#x2003;" horiz-adv-x="1894" />
<glyph unicode="&#x2004;" horiz-adv-x="631" />
<glyph unicode="&#x2005;" horiz-adv-x="473" />
<glyph unicode="&#x2006;" horiz-adv-x="315" />
<glyph unicode="&#x2007;" horiz-adv-x="315" />
<glyph unicode="&#x2008;" horiz-adv-x="236" />
<glyph unicode="&#x2009;" horiz-adv-x="378" />
<glyph unicode="&#x200a;" horiz-adv-x="105" />
<glyph unicode="&#x2010;" horiz-adv-x="825" d="M182 530v111h461v-111h-461z" />
<glyph unicode="&#x2011;" horiz-adv-x="825" d="M182 530v111h461v-111h-461z" />
<glyph unicode="&#x2012;" horiz-adv-x="825" d="M182 530v111h461v-111h-461z" />
<glyph unicode="&#x2013;" d="M182 539v102h660v-102h-660z" />
<glyph unicode="&#x2014;" horiz-adv-x="2048" d="M182 539v102h1684v-102h-1684z" />
<glyph unicode="&#x2018;" horiz-adv-x="516" d="M182 1026v166q0 96 24.5 155.5t80.5 106.5l45 -47q-39 -41 -52.5 -80.5t-13.5 -109.5h68v-191h-152z" />
<glyph unicode="&#x2019;" horiz-adv-x="516" d="M182 1243v191h152v-166q0 -96 -24.5 -155.5t-80.5 -106.5l-45 47q39 41 52.5 80.5t13.5 109.5h-68z" />
<glyph unicode="&#x201a;" horiz-adv-x="516" d="M182 0v184h152v-159q0 -96 -25 -156t-80 -107l-47 45q40 42 53 81t13 112h-66z" />
<glyph unicode="&#x201c;" horiz-adv-x="776" d="M182 1026v166q0 96 24.5 155.5t80.5 106.5l41 -43q-41 -44 -56.5 -85t-15.5 -109h68v-191h-142zM449 1026v166q0 96 24.5 155.5t79.5 106.5l41 -43q-41 -44 -56.5 -85t-15.5 -109h68v-191h-141z" />
<glyph unicode="&#x201d;" horiz-adv-x="776" d="M182 1049q41 44 56.5 85t15.5 109h-68v191h142v-166q0 -96 -24.5 -155.5t-80.5 -106.5zM449 1049q40 43 55.5 84.5t15.5 109.5h-67v191h141v-166q0 -96 -24.5 -155.5t-80.5 -106.5z" />
<glyph unicode="&#x201e;" horiz-adv-x="776" d="M182 -195q40 43 56 85t16 110h-68v190h142v-165q0 -96 -25 -156t-80 -107zM449 -195q40 43 55.5 85t15.5 110h-67v190h141v-165q0 -96 -25 -156t-80 -107z" />
<glyph unicode="&#x2022;" horiz-adv-x="966" d="M272 657q0 88 61.5 149.5t149.5 61.5t149.5 -61.5t61.5 -149.5t-61.5 -149.5t-149.5 -61.5t-149.5 61.5t-61.5 149.5z" />
<glyph unicode="&#x2026;" horiz-adv-x="1585" d="M188 0v184h152v-184h-152zM717 0v184h151v-184h-151zM1245 0v184h152v-184h-152z" />
<glyph unicode="&#x202f;" horiz-adv-x="378" />
<glyph unicode="&#x2039;" horiz-adv-x="473" d="M31 453l293 364h116l-270 -366l266 -365h-110z" />
<glyph unicode="&#x203a;" horiz-adv-x="473" d="M33 817h117l292 -364l-295 -367h-110l266 365z" />
<glyph unicode="&#x205f;" horiz-adv-x="473" />
<glyph unicode="&#x20ac;" horiz-adv-x="1101" d="M29 545v90h147q-2 20 -2 63q0 44 2 64h-147v88h155q36 265 193 412t377 147q176 0 309 -59l-43 -101q-137 56 -264 56q-174 0 -296 -120t-155 -335h584l-33 -88h-559q-2 -20 -2 -64q0 -45 2 -63h514l-33 -90h-473q33 -217 156.5 -339t300.5 -122q146 0 272 66l47 -99 q-139 -71 -321 -71q-147 0 -267 64t-202 193t-107 308h-155z" />
<glyph unicode="&#x2122;" horiz-adv-x="1638" d="M41 1356v78h553v-78h-232v-654h-90v654h-231zM715 702v732h123l264 -594l262 594h125v-732h-86v625l-283 -631h-45l-280 625v-619h-80z" />
<glyph unicode="&#xe000;" horiz-adv-x="911" d="M0 0v911h911v-911h-911z" />
</font>
</defs>
</svg>
