<?xml version="1.0" standalone="no"?>
<!DOCTYPE svg PUBLIC "-//W3C//DTD SVG 1.1//EN" "http://www.w3.org/Graphics/SVG/1.1/DTD/svg11.dtd" >
<svg xmlns="http://www.w3.org/2000/svg">
<metadata></metadata>
<defs>
<font id="armitage_semiboldregular" horiz-adv-x="1191" >
<font-face units-per-em="2048" ascent="1638" descent="-410" />
<missing-glyph horiz-adv-x="501" />
<glyph horiz-adv-x="2048" />
<glyph horiz-adv-x="2048" />
<glyph unicode="&#xd;" horiz-adv-x="2048" />
<glyph unicode=" "  horiz-adv-x="501" />
<glyph unicode="&#x09;" horiz-adv-x="501" />
<glyph unicode="&#xa0;" horiz-adv-x="501" />
<glyph unicode="!" horiz-adv-x="671" d="M201 1225v209h270v-209l-74 -762h-123zM209 0v270h254v-270h-254z" />
<glyph unicode="&#x22;" horiz-adv-x="868" d="M178 774v660h176v-660h-176zM514 774v660h176v-660h-176z" />
<glyph unicode="#" horiz-adv-x="1355" d="M39 395l31 144h262l69 325h-262l31 144h262l84 393h152l-86 -393h323l84 393h152l-84 -393h262l-31 -144h-262l-70 -325h263l-33 -144h-260l-84 -395h-152l84 395h-323l-84 -395h-150l84 395h-262zM481 539h324l69 325h-323z" />
<glyph unicode="$" horiz-adv-x="1198" d="M61 240l138 120q160 -198 348 -208v448q-85 24 -145.5 47t-123.5 59t-102 78.5t-63.5 105.5t-24.5 140q0 120 62.5 207.5t164.5 131.5t234 50v172h110v-174q282 -20 467 -225l-129 -127q-140 159 -338 178v-455q171 -53 238 -85q171 -82 213 -229q16 -54 16 -118 q0 -180 -127.5 -276.5t-343.5 -104.5v-155h-108v157q-140 11 -267 76t-219 187zM299 1047q0 -50 18 -87.5t56 -63.5t77 -42.5t99 -34.5v426q-123 -6 -186.5 -57t-63.5 -141zM655 152q122 3 190 49t68 135q0 51 -20 90.5t-59 66t-79.5 43t-99.5 33.5v-417z" />
<glyph unicode="%" horiz-adv-x="1941" d="M72 1006q0 100 30.5 180.5t83 131.5t121.5 78t148 27t148 -27t121.5 -78t83 -131.5t30.5 -180.5q0 -101 -30.5 -181.5t-83 -131.5t-121.5 -78t-148 -27t-148 27t-121.5 78t-83 131.5t-30.5 181.5zM227 1006q0 -155 62.5 -227t165.5 -72t165 72t62 227q0 154 -62 226.5 t-165 72.5q-102 0 -165 -73t-63 -226zM426 -20l967 1450h133l-965 -1450h-135zM1104 395q0 100 30.5 180.5t83 132t121.5 78.5t148 27t148 -27t121.5 -78.5t83 -132t30.5 -180.5q0 -101 -30.5 -181.5t-83 -131.5t-121.5 -78t-148 -27t-148 27t-121.5 78t-83 131.5 t-30.5 181.5zM1260 395q0 -155 62 -227t165 -72t165 72t62 227q0 154 -62 226.5t-165 72.5q-102 0 -164.5 -73t-62.5 -226z" />
<glyph unicode="&#x26;" horiz-adv-x="1652" d="M53 424q0 370 426 487q-78 132 -78 258q0 137 96 214t275 77q157 0 240.5 -75.5t83.5 -208.5q0 -246 -316 -338l301 -449q145 164 164 479h203q0 -143 -68.5 -311.5t-199.5 -310.5q36 -45 70.5 -63.5t82.5 -18.5q62 0 91.5 45.5t29.5 140.5q0 44 -4 80h186 q0 -126 -23.5 -215t-68 -138.5t-101 -71t-130.5 -21.5q-99 0 -170.5 29t-130.5 96q-172 -134 -432 -134q-80 0 -155 16.5t-143 52t-118.5 87t-80.5 127t-30 166.5zM299 467q0 -132 85 -217.5t245 -85.5q167 0 286 84l-348 528q-44 -13 -79.5 -28.5t-72 -41t-61 -57.5 t-40 -79t-15.5 -103zM621 1180q0 -95 75 -217q114 30 171 74.5t57 131.5q0 68 -39 109t-109 41t-112.5 -34.5t-42.5 -104.5z" />
<glyph unicode="'" horiz-adv-x="532" d="M178 774v660h176v-660h-176z" />
<glyph unicode="(" horiz-adv-x="745" d="M168 545q0 56 6 114t22 138t49.5 162t82 169t126 176.5t175.5 168.5l84 -82q-332 -358 -332 -852q0 -192 81.5 -411.5t254.5 -410.5l-94 -94q-110 94 -194 202.5t-132 204.5t-78.5 196.5t-40.5 175t-10 143.5z" />
<glyph unicode=")" horiz-adv-x="745" d="M29 -283q173 191 254.5 410.5t81.5 411.5q0 494 -332 852l84 82q98 -79 175.5 -168.5t126 -176.5t82 -169t49.5 -162t22 -138t6 -114q0 -69 -10 -143.5t-40.5 -175t-78.5 -196.5t-132 -204.5t-194 -202.5z" />
<glyph unicode="*" horiz-adv-x="1015" d="M96 967v170l316 -31l-183 260l148 84l131 -289l131 289l149 -84l-184 -260l316 31v-170l-316 28l184 -258l-149 -84l-131 287l-131 -287l-148 84l183 258z" />
<glyph unicode="+" horiz-adv-x="1214" d="M121 610v176h391v408h186v-408h396v-176h-396v-407h-186v407h-391z" />
<glyph unicode="," horiz-adv-x="608" d="M178 0v270h252v-247q0 -61 -11.5 -109t-28 -79t-46 -57.5t-55 -41.5t-64.5 -33l-47 88q68 35 92.5 76t24.5 133h-117z" />
<glyph unicode="-" horiz-adv-x="868" d="M178 477v189h512v-189h-512z" />
<glyph unicode="." horiz-adv-x="608" d="M178 0v270h252v-270h-252z" />
<glyph unicode="/" horiz-adv-x="878" d="M-18 -143l702 1648h182l-702 -1648h-182z" />
<glyph unicode="0" horiz-adv-x="1331" d="M104 700q0 180 43 320.5t120 227t178 131t221 44.5q119 0 220 -44.5t177.5 -131t120 -227t43.5 -320.5t-43.5 -321t-120 -228.5t-177.5 -132.5t-220 -45q-120 0 -221 45t-178 132.5t-120 228.5t-43 321zM330 700q0 -548 336 -548q335 0 335 548q0 547 -335 547 q-336 0 -336 -547z" />
<glyph unicode="1" horiz-adv-x="995" d="M113 1198l385 203h153v-1217h318v-184h-854v184h315v971l-248 -104z" />
<glyph unicode="2" horiz-adv-x="1175" d="M72 0v162q91 73 193.5 153.5t161.5 126.5t126.5 100.5t102.5 85.5t73.5 71t55.5 67.5t32.5 64.5t20 72.5t4.5 81.5q0 122 -70 192t-188 70q-264 0 -303 -274l-209 41q39 197 170.5 303t347.5 106q218 0 345.5 -116t127.5 -316q0 -59 -7 -108.5t-31 -100t-43.5 -87.5 t-72.5 -90.5t-88 -87t-120 -100t-139.5 -106.5t-172.5 -127h686v-184h-1003z" />
<glyph unicode="3" horiz-adv-x="1175" d="M51 340l213 43q27 -233 299 -233q129 0 209 58.5t80 178.5q0 121 -78.5 177.5t-216.5 56.5h-131v184h125q152 0 216 53t64 176q0 106 -74 160.5t-196 54.5q-239 0 -285 -207l-200 52q37 159 171.5 244t330.5 85q209 0 341 -108.5t132 -280.5q0 -116 -55 -198t-162 -117 q241 -72 241 -336q0 -191 -136.5 -300.5t-367.5 -109.5q-216 0 -354.5 90.5t-165.5 276.5z" />
<glyph unicode="4" horiz-adv-x="1181" d="M20 326v180l705 895h242v-895h182v-180h-182v-326h-219v326h-728zM236 506h512v663z" />
<glyph unicode="5" horiz-adv-x="1200" d="M82 334l211 39q9 -63 38 -108t72.5 -69t92 -35t104.5 -11q60 0 110 15t92.5 48t66.5 93t24 143q0 68 -18 122t-47 87.5t-69.5 55.5t-82 31t-86.5 9q-214 0 -285 -146l-196 39l90 754h845v-184h-677l-39 -394q111 97 301 97q78 0 148 -17t132 -54t107.5 -91t71.5 -131.5 t26 -171.5q0 -99 -27 -180.5t-74 -136.5t-112 -93t-138 -55t-155 -17q-95 0 -178 18t-158 57.5t-125 112.5t-65 173z" />
<glyph unicode="6" horiz-adv-x="1208" d="M104 649q0 120 18.5 229.5t60.5 210t104 174t156 117t210 43.5q97 0 176 -23.5t131.5 -65t86.5 -90.5t53 -109l-201 -52q-37 85 -95.5 125.5t-160.5 40.5q-66 0 -117 -20.5t-83.5 -60t-54 -85.5t-32.5 -109t-15 -118t-5 -125q43 77 133.5 129.5t218.5 52.5 q207 0 324.5 -128.5t117.5 -342.5q0 -92 -32 -175.5t-92 -149.5t-155 -105t-212 -39q-174 0 -295.5 85t-180.5 235.5t-59 355.5zM344 446q0 -125 77 -210.5t208 -85.5q123 0 200.5 76.5t77.5 213.5q0 147 -77.5 225t-202.5 78t-204 -80.5t-79 -216.5z" />
<glyph unicode="7" horiz-adv-x="944" d="M18 1217v184h885v-144q-418 -645 -418 -1257h-223q17 611 440 1217h-684z" />
<glyph unicode="8" horiz-adv-x="1218" d="M92 389q0 121 68 214.5t186 131.5q-96 42 -151.5 130t-55.5 192q0 116 65.5 200.5t170.5 125t235 40.5q129 0 234 -40.5t171 -125t66 -200.5q0 -104 -55.5 -192t-151.5 -130q117 -38 185.5 -132t68.5 -214q0 -193 -144 -304.5t-374 -111.5q-231 0 -374.5 111.5 t-143.5 304.5zM317 393q0 -113 78.5 -178t214.5 -65q135 0 214 65.5t79 177.5q0 118 -83.5 185t-209.5 67t-209.5 -67t-83.5 -185zM350 1044q0 -106 72.5 -170.5t187.5 -64.5q114 0 187 65t73 170q0 103 -70.5 161.5t-189.5 58.5t-189.5 -59.5t-70.5 -160.5z" />
<glyph unicode="9" horiz-adv-x="1208" d="M80 956q0 91 32 174.5t92 149t154.5 104.5t210.5 39q176 0 297.5 -85t179.5 -234t58 -354q0 -125 -17 -234.5t-57.5 -211t-102 -173.5t-157 -115t-215.5 -43q-97 0 -175.5 24t-131 66t-86 91t-53.5 108l202 51q35 -84 93.5 -123.5t160.5 -39.5q57 0 102.5 16t77 41.5 t55 66t37 82t22 97t11.5 103t4 108.5q-46 -76 -134.5 -127.5t-215.5 -51.5q-208 0 -326 128.5t-118 342.5zM301 958q0 -147 77.5 -225t201.5 -78q125 0 204.5 80.5t79.5 214.5q0 126 -76 212.5t-206 86.5q-123 0 -202 -77t-79 -214z" />
<glyph unicode=":" horiz-adv-x="608" d="M178 0v268h252v-268h-252zM178 633v268h252v-268h-252z" />
<glyph unicode=";" horiz-adv-x="608" d="M178 0v270h252v-247q0 -61 -11.5 -109t-28 -79t-46 -57.5t-55 -41.5t-64.5 -33l-47 88q68 35 92.5 76t24.5 133h-117zM178 629v270h252v-270h-252z" />
<glyph unicode="&#x3c;" horiz-adv-x="1224" d="M98 596v207l1014 467v-209l-813 -363l813 -362v-209z" />
<glyph unicode="=" horiz-adv-x="1214" d="M121 418v176h973v-176h-973zM121 803v176h973v-176h-973z" />
<glyph unicode="&#x3e;" horiz-adv-x="1224" d="M113 127v209l813 362l-813 363v209l1013 -467v-207z" />
<glyph unicode="?" horiz-adv-x="964" d="M6 1106q29 165 150 259.5t307 94.5q84 0 158.5 -22.5t135.5 -67t96.5 -121t35.5 -176.5q0 -68 -22.5 -129.5t-54 -106t-85 -90.5t-95 -73.5t-104.5 -65.5v-188h-200v266q71 37 125 73.5t105.5 84t79.5 105t28 120.5q0 108 -56 167.5t-161 59.5q-204 0 -242 -221zM303 0 v270h252v-270h-252z" />
<glyph unicode="@" horiz-adv-x="1837" d="M100 395q0 176 52.5 328t143 260.5t210.5 185.5t255 114.5t277 37.5q65 0 129.5 -8.5t135 -30t133 -54.5t119 -85t97.5 -118t65 -157.5t24 -199.5q0 -133 -32.5 -242t-82.5 -176.5t-114.5 -113.5t-123.5 -64.5t-114 -18.5q-92 0 -142 41.5t-51 122.5q-46 -76 -126.5 -124 t-182.5 -48q-33 0 -66 8.5t-68 30t-61.5 54.5t-43.5 86.5t-17 121.5q0 100 31 196t85.5 172.5t139 123.5t182.5 47q78 0 135.5 -37t75.5 -103l23 107h139l-113 -522q-12 -61 -12 -92q0 -44 23.5 -62t79.5 -18q40 0 82.5 15t88.5 52.5t82 92t59 143.5t23 198 q0 279 -165.5 422.5t-448.5 143.5q-112 0 -225 -30t-221.5 -96t-192.5 -160.5t-135 -235.5t-51 -308q0 -117 27 -214.5t70.5 -164t105 -118t124.5 -81t134.5 -48t129.5 -25t115 -6.5q375 0 668 219l57 -82q-315 -233 -723 -233q-119 0 -228 21.5t-217 76t-187 137.5 t-128 216t-49 302zM668 356q0 -97 40.5 -136.5t114.5 -39.5q70 0 126.5 37.5t90.5 97.5t52 127t18 133q0 83 -39.5 130t-118.5 47q-60 0 -110 -28t-81.5 -71.5t-53 -98t-30.5 -104.5t-9 -94z" />
<glyph unicode="A" horiz-adv-x="1425" d="M16 0l586 1440h236l577 -1440h-254l-145 381h-625l-145 -381h-230zM461 561h487l-241 635z" />
<glyph unicode="B" horiz-adv-x="1464" d="M188 0v1434h629q483 0 483 -381q0 -75 -21 -134t-57 -95.5t-76.5 -57.5t-86.5 -29q133 -25 206.5 -114t73.5 -234q0 -97 -28 -168.5t-73 -113t-116 -66.5t-143 -33t-168 -8h-623zM420 184h371q60 0 101.5 4t84 18t68 38.5t41.5 67t16 102.5q0 125 -72.5 176t-220.5 51 h-389v-457zM420 817h366q154 0 221.5 47t67.5 170q0 65 -19.5 108t-59 65.5t-87 31t-116.5 8.5h-373v-430z" />
<glyph unicode="C" horiz-adv-x="1515" d="M125 717q0 181 57.5 325.5t156.5 236t227.5 139.5t275.5 48q372 0 579 -295l-161 -120q-148 227 -412 227q-219 0 -348 -142t-129 -419q0 -144 37.5 -254t103.5 -175.5t149.5 -98.5t182.5 -33q274 0 418 223l163 -119q-201 -293 -585 -293q-150 0 -279.5 50t-226.5 143 t-153 236.5t-56 320.5z" />
<glyph unicode="D" horiz-adv-x="1566" d="M188 0v1434h525q173 0 304 -37.5t229 -119t149 -220.5t51 -332q0 -159 -35.5 -283.5t-98 -206.5t-153 -135.5t-194.5 -76.5t-228 -23h-549zM426 201h256q93 0 162 10.5t139.5 43.5t115.5 89t73 152.5t28 228.5q0 129 -28 222.5t-73 147.5t-115.5 86t-139.5 42t-162 10 h-256v-1032z" />
<glyph unicode="E" horiz-adv-x="1314" d="M188 0v1434h986v-195h-748v-420h422v-188h-422v-434h778v-197h-1016z" />
<glyph unicode="F" horiz-adv-x="1214" d="M188 0v1434h932v-195h-694v-422h418v-192h-418v-625h-238z" />
<glyph unicode="G" horiz-adv-x="1644" d="M125 711q0 181 57.5 327t156.5 238t227.5 141t275.5 49q188 0 331 -66t257 -216l-158 -123q-71 105 -171.5 161t-252.5 56q-218 0 -347.5 -143t-129.5 -422q0 -269 127.5 -413t343.5 -144q186 0 300 117.5t126 326.5h-357v182h574v-782h-139l-27 223q-152 -256 -504 -256 q-108 0 -209 30t-188.5 92t-152.5 149t-102.5 209t-37.5 264z" />
<glyph unicode="H" horiz-adv-x="1564" d="M188 0v1434h238v-609h713v609h237v-1434h-237v629h-713v-629h-238z" />
<glyph unicode="I" horiz-adv-x="614" d="M188 0v1434h238v-1434h-238z" />
<glyph unicode="J" horiz-adv-x="1032" d="M29 113l131 166q99 -103 233 -103q111 0 167 73.5t56 250.5v934h238v-940q0 -142 -32.5 -245.5t-91.5 -162.5t-133.5 -86t-166.5 -27q-253 0 -401 140z" />
<glyph unicode="K" horiz-adv-x="1380" d="M188 0v1434h238v-686l633 686h280l-538 -584l561 -850h-279l-446 690l-211 -225v-465h-238z" />
<glyph unicode="L" horiz-adv-x="1230" d="M188 0v1434h238v-1233h760v-201h-998z" />
<glyph unicode="M" horiz-adv-x="1978" d="M195 0v1434h311l483 -1053l479 1053h318v-1434h-240v1110l-512 -1110h-116l-517 1114v-1114h-206z" />
<glyph unicode="N" horiz-adv-x="1615" d="M188 0v1434h230l799 -1074v1074h210v-1434h-229l-801 1073v-1073h-209z" />
<glyph unicode="O" horiz-adv-x="1652" d="M121 717q0 176 56 320t152.5 236.5t223.5 142.5t272 50t272 -50t224 -142.5t153 -236.5t56 -320t-56 -320t-153 -237t-224 -143t-272 -50q-115 0 -219.5 31t-193 94t-153.5 152t-101.5 210t-36.5 263zM369 717q0 -268 127 -414.5t329 -146.5q203 0 330 146.5t127 414.5 t-127 414.5t-330 146.5q-202 0 -329 -146.5t-127 -414.5z" />
<glyph unicode="P" horiz-adv-x="1431" d="M188 0v1434h609q85 0 157.5 -11.5t143.5 -41.5t120.5 -78t80 -126.5t30.5 -181.5q0 -98 -28.5 -175.5t-77.5 -128.5t-119.5 -84t-149.5 -47.5t-172 -14.5h-356v-545h-238zM426 731h350q161 0 237.5 57t76.5 203q0 140 -76 195t-238 55h-350v-510z" />
<glyph unicode="Q" horiz-adv-x="1652" d="M121 717q0 176 56 320t152.5 236.5t223.5 142.5t272 50t272 -50t224 -142.5t153 -236.5t56 -320q0 -163 -48 -299t-132.5 -228.5t-196 -148.5t-240.5 -70q1 -67 67 -92.5t224 -25.5v-203q-246 0 -352.5 81t-106.5 228v12q-131 13 -243.5 68.5t-198 147.5t-134 228.5 t-48.5 301.5zM369 717q0 -268 127 -414.5t329 -146.5q203 0 330 146.5t127 414.5t-127 414.5t-330 146.5q-202 0 -329 -146.5t-127 -414.5z" />
<glyph unicode="R" horiz-adv-x="1458" d="M188 0v1434h611q85 0 157 -11.5t143 -41.5t120 -78t79.5 -126.5t30.5 -181.5q0 -172 -81 -275.5t-222 -144.5l332 -575h-273l-307 549h-352v-549h-238zM426 731h352q159 0 235.5 57.5t76.5 202.5q0 140 -75.5 195t-236.5 55h-352v-510z" />
<glyph unicode="S" horiz-adv-x="1341" d="M98 242l150 133q78 -104 196.5 -161.5t245.5 -57.5q68 0 120 10t94.5 33t65.5 65.5t23 102.5q0 55 -29.5 96t-79.5 66t-115 44.5t-136.5 37t-143 38t-136.5 53t-115 77t-79.5 115t-29.5 161.5q0 131 73 225.5t192 140t268 45.5q184 0 327.5 -64.5t239.5 -176.5l-144 -140 q-165 193 -421 193q-141 0 -219 -53.5t-78 -157.5q0 -55 29.5 -95t79.5 -64.5t115 -43t136.5 -35.5t143 -36.5t136.5 -52t115 -76t79.5 -113.5t29.5 -160q0 -95 -30.5 -169t-81 -121.5t-121.5 -78t-146 -43t-160 -12.5q-177 0 -332 67t-262 208z" />
<glyph unicode="T" horiz-adv-x="1193" d="M33 1239v195h1128v-195h-446v-1239h-238v1239h-444z" />
<glyph unicode="U" horiz-adv-x="1509" d="M176 559v875h238v-877q0 -216 93 -309.5t265 -93.5q163 0 256.5 98t93.5 315v867h211v-844q0 -143 -30 -252t-81.5 -178t-127.5 -112.5t-159 -61t-185 -17.5q-58 0 -112 7t-112.5 25t-108 46t-95 74.5t-77.5 106.5t-50.5 144.5t-18.5 186.5z" />
<glyph unicode="V" horiz-adv-x="1400" d="M25 1434h249l445 -1153l434 1153h223l-565 -1440h-221z" />
<glyph unicode="W" horiz-adv-x="2072" d="M59 1434h248l303 -1076l361 1076h162l358 -1078l303 1078h219l-422 -1434h-221l-334 1004l-329 -1004h-226z" />
<glyph unicode="X" horiz-adv-x="1327" d="M51 0l475 731l-456 703h272l328 -523l331 523h244l-452 -695l483 -739h-279l-348 553l-348 -553h-250z" />
<glyph unicode="Y" horiz-adv-x="1273" d="M14 1434h269l366 -625l375 625h233l-501 -826v-608h-238v602z" />
<glyph unicode="Z" horiz-adv-x="1357" d="M82 0v168l844 1063h-815v203h1130v-170l-840 -1061h867v-203h-1186z" />
<glyph unicode="[" horiz-adv-x="716" d="M190 -381v1833h488v-152h-301v-1529h301v-152h-488z" />
<glyph unicode="\" horiz-adv-x="854" d="M12 1505h181l702 -1648h-180z" />
<glyph unicode="]" horiz-adv-x="716" d="M39 -229h301v1529h-301v152h487v-1833h-487v152z" />
<glyph unicode="^" horiz-adv-x="1110" d="M102 809l347 612h213l348 -612h-191l-264 383l-264 -383h-189z" />
<glyph unicode="_" horiz-adv-x="1024" d="M0 -100h1024v-142h-1024v142z" />
<glyph unicode="`" horiz-adv-x="1024" d="M184 1386h260l160 -333h-178z" />
<glyph unicode="a" horiz-adv-x="1110" d="M68 244q0 65 22 116t67 87.5t99 62t134 43.5t154.5 28.5t176.5 20.5v39q0 90 -44.5 132t-137.5 42q-161 0 -248 -158l-156 91q56 95 160.5 154t259.5 59q195 0 291 -90.5t96 -295.5v-366q0 -47 13 -68.5t49 -21.5q33 0 51 6v-115q-46 -22 -117 -22q-85 0 -136 41t-61 121 q-41 -81 -125 -129t-210 -48q-67 0 -125.5 15t-107.5 45.5t-77 84.5t-28 126zM291 264q0 -68 42.5 -105.5t123.5 -37.5q112 0 188 72t76 204v84q-64 -7 -112 -14.5t-100.5 -19t-89 -27.5t-67 -37.5t-46 -51.5t-15.5 -67z" />
<glyph unicode="b" d="M164 0v1434h219v-635q46 74 129 114.5t178 40.5q179 0 295.5 -127t116.5 -360q0 -235 -114.5 -360t-299.5 -125q-102 0 -191 44.5t-135 137.5l-26 -164h-172zM379 467q0 -149 63.5 -237.5t184.5 -88.5q111 0 177 81t66 245q0 165 -66 246.5t-177 81.5 q-121 0 -184.5 -88.5t-63.5 -239.5z" />
<glyph unicode="c" horiz-adv-x="1052" d="M86 467q0 160 65 273t175.5 167t257.5 54q63 0 116 -9.5t105.5 -32t98.5 -64.5t83 -103l-149 -90q-39 68 -96.5 105.5t-147.5 37.5q-131 0 -208 -86t-77 -252q0 -165 80.5 -250.5t210.5 -85.5q174 0 258 137l127 -94q-147 -201 -405 -201q-143 0 -253 54t-175.5 167.5 t-65.5 272.5z" />
<glyph unicode="d" d="M90 467q0 118 32.5 212t89.5 153.5t130.5 90.5t159.5 31q96 0 178.5 -39.5t128.5 -113.5v633h219v-1434h-170l-29 162q-46 -92 -134 -136t-189 -44q-186 0 -301 125t-115 360zM322 467q0 -164 66 -245t177 -81q121 0 185.5 88.5t64.5 237.5q0 151 -64.5 239.5 t-185.5 88.5q-111 0 -177 -81.5t-66 -246.5z" />
<glyph unicode="e" horiz-adv-x="1120" d="M86 461q0 122 38 218.5t105.5 157.5t157 92.5t195.5 31.5q96 0 177 -28t145.5 -84t101 -149.5t36.5 -214.5q0 -33 -2 -49h-725q4 -159 81 -233t200 -74q96 0 165.5 39.5t121.5 132.5l135 -86q-65 -108 -172 -175t-256 -67q-106 0 -196.5 30t-160 89t-108.5 153.5 t-39 215.5zM319 580h504q-16 127 -80 179t-168 52q-107 0 -172.5 -61t-83.5 -170z" />
<glyph unicode="f" horiz-adv-x="671" d="M51 776v160h142v174q0 186 76.5 270t250.5 84q77 0 123 -16v-156q-34 11 -86 11q-67 0 -106 -32t-39 -120v-215h211v-160h-211v-776h-219v776h-142z" />
<glyph unicode="g" d="M90 481q0 118 33.5 210.5t91.5 148t131 84t156 28.5q91 0 174.5 -36.5t132.5 -112.5v133h219v-909q0 -216 -116 -316t-349 -100q-171 0 -282 53t-175 162l154 98q35 -56 66.5 -87.5t90 -53t142.5 -21.5q41 0 73 4.5t67.5 21t58.5 44t38 77.5t15 118v131 q-50 -70 -132 -107t-177 -37q-86 0 -159.5 29t-130.5 85t-89.5 147t-32.5 206zM322 483q0 -162 70.5 -237.5t174.5 -75.5q108 0 177 79.5t69 235.5t-70 234t-176 78q-104 0 -174.5 -76t-70.5 -238z" />
<glyph unicode="h" horiz-adv-x="1200" d="M164 0v1434h219v-666q83 188 326 188q167 0 251 -96t84 -270v-590h-219v532q0 132 -43 197.5t-149 65.5q-78 0 -134.5 -43.5t-84.5 -122.5q-31 -78 -31 -238v-391h-219z" />
<glyph unicode="i" horiz-adv-x="546" d="M158 1108v262h231v-262h-231zM164 0v936h219v-936h-219z" />
<glyph unicode="j" horiz-adv-x="548" d="M-4 -195q35 -6 80 -6t67.5 29t22.5 96v1012h219v-1032q0 -82 -17 -136t-53.5 -83t-81.5 -40.5t-112 -11.5q-71 0 -125 13v159zM160 1108v262h231v-262h-231z" />
<glyph unicode="k" horiz-adv-x="1095" d="M164 0v1434h219v-910l414 412h262l-348 -344l370 -592h-250l-280 455l-168 -168v-287h-219z" />
<glyph unicode="l" horiz-adv-x="546" d="M164 0v1434h219v-1434h-219z" />
<glyph unicode="m" horiz-adv-x="1816" d="M164 0v936h219v-186q32 95 113 150.5t202 55.5q241 0 306 -215q53 109 131 162t202 53q162 0 243 -98.5t81 -284.5v-573h-219v532q0 132 -40 197.5t-138 65.5q-79 0 -134 -47.5t-79 -118.5q-29 -90 -29 -232v-397h-219v532q0 131 -41 197t-139 66q-78 0 -131.5 -47.5 t-77.5 -118.5q-31 -90 -31 -232v-397h-219z" />
<glyph unicode="n" horiz-adv-x="1200" d="M164 0v936h219v-168q83 188 326 188q167 0 251 -96t84 -270v-590h-219v532q0 132 -43 197.5t-149 65.5q-78 0 -134.5 -43.5t-84.5 -122.5q-31 -78 -31 -238v-391h-219z" />
<glyph unicode="o" horiz-adv-x="1150" d="M86 467q0 120 38 215t104.5 155.5t155 92t191.5 31.5q139 0 248 -54t175.5 -167.5t66.5 -272.5t-66.5 -272.5t-175.5 -167.5t-248 -54q-102 0 -190.5 31.5t-155.5 92t-105 155.5t-38 215zM315 467q0 -164 74 -251t186 -87q113 0 187 87t74 251q0 165 -74 252.5t-187 87.5 q-112 0 -186 -87.5t-74 -252.5z" />
<glyph unicode="p" d="M164 -360v1296h219v-137q46 74 129 114.5t178 40.5q179 0 295.5 -127t116.5 -360q0 -235 -114.5 -360t-299.5 -125q-93 0 -174.5 37t-130.5 110v-489h-219zM379 467q0 -149 63.5 -237.5t184.5 -88.5q111 0 177 81t66 245q0 165 -66 246.5t-177 81.5q-121 0 -184.5 -88.5 t-63.5 -239.5z" />
<glyph unicode="q" d="M90 467q0 233 116.5 360t295.5 127q94 0 176.5 -40t130.5 -115v137h219v-1296h-219v489q-49 -73 -130.5 -110t-174.5 -37q-185 0 -299.5 125t-114.5 360zM322 467q0 -164 66 -245t177 -81q121 0 184.5 88.5t63.5 237.5q0 151 -63.5 239.5t-184.5 88.5q-111 0 -177 -81.5 t-66 -246.5z" />
<glyph unicode="r" horiz-adv-x="735" d="M164 0v936h219v-201q23 67 58 112t79.5 67t86.5 30.5t95 9.5v-227q-18 4 -57 4q-118 0 -188 -67q-74 -71 -74 -197v-467h-219z" />
<glyph unicode="s" horiz-adv-x="929" d="M68 131l110 123q47 -52 128.5 -89.5t174.5 -37.5q71 0 115.5 25.5t44.5 80.5q0 40 -31 67.5t-80.5 44t-109.5 32t-119.5 38t-109 54t-80.5 87.5t-31 132q0 126 109.5 199.5t273.5 73.5q263 0 397 -148l-106 -119q-109 115 -289 115q-166 0 -166 -98q0 -39 31 -66 t80.5 -43.5t109.5 -32.5t120.5 -38.5t110 -54t80.5 -87.5t31 -131q0 -133 -108 -209t-275 -76q-123 0 -233.5 42.5t-177.5 115.5z" />
<glyph unicode="t" horiz-adv-x="679" d="M41 776v160h147l43 291h172v-291h193v-160h-193v-534q0 -59 26 -81t77 -22q26 0 84 8v-151q-66 -19 -150 -19q-254 0 -254 242v557h-145z" />
<glyph unicode="u" d="M158 344v592h219v-533q0 -131 42 -197.5t142 -66.5q78 0 133 43.5t84 120.5q31 80 31 242v391h219v-936h-215v174q-81 -194 -330 -194q-161 0 -243 95t-82 269z" />
<glyph unicode="v" horiz-adv-x="989" d="M18 936h232l260 -709l262 709h199l-369 -940h-215z" />
<glyph unicode="w" horiz-adv-x="1447" d="M27 936h219l198 -674l220 674h153l203 -680l217 680h190l-307 -936h-221l-182 594l-189 -594h-213z" />
<glyph unicode="x" horiz-adv-x="913" d="M33 0l311 469l-303 467h248l184 -301l186 301h215l-296 -447l321 -489h-248l-198 326l-201 -326h-219z" />
<glyph unicode="y" horiz-adv-x="989" d="M18 936h232l258 -711l264 711h199l-436 -1106q-30 -75 -61.5 -118.5t-87.5 -69t-140 -25.5q-70 0 -156 14v170q79 -24 156 -24q44 0 74.5 20t52.5 76l28 80z" />
<glyph unicode="z" horiz-adv-x="985" d="M96 0v127l510 633h-500v176h775v-139l-502 -621h516v-176h-799z" />
<glyph unicode="{" horiz-adv-x="749" d="M88 469v158q80 0 108.5 39.5t28.5 140.5v391q0 121 61.5 187.5t180.5 66.5h244v-152h-168q-81 0 -106 -36.5t-25 -118.5v-391q0 -94 -23 -140t-80 -65q57 -20 80 -66.5t23 -140.5v-416q0 -83 24.5 -119t106.5 -36h168v-152h-244q-119 0 -180.5 65.5t-61.5 186.5v420 q0 99 -28.5 138.5t-108.5 39.5z" />
<glyph unicode="|" horiz-adv-x="579" d="M201 -397v1933h180v-1933h-180z" />
<glyph unicode="}" horiz-adv-x="749" d="M39 -229h168q82 0 106.5 36t24.5 119v416q0 94 22.5 140.5t79.5 66.5q-57 19 -79.5 65t-22.5 140v391q0 82 -25 118.5t-106 36.5h-168v152h244q119 0 180 -66t61 -188v-391q0 -101 29 -140.5t109 -39.5v-158q-80 0 -109 -39.5t-29 -138.5v-420q0 -121 -61 -186.5 t-180 -65.5h-244v152z" />
<glyph unicode="~" horiz-adv-x="1241" d="M98 672q11 25 23.5 48t40.5 59t59.5 61t80.5 44t104 19q91 0 233 -38t207 -38q61 0 96.5 30t69.5 91l131 -69q-11 -26 -23.5 -48.5t-40 -58.5t-59 -61.5t-81 -44.5t-105.5 -19q-90 0 -232.5 38t-206.5 38q-61 0 -98 -29.5t-70 -89.5z" />
<glyph unicode="&#xa1;" horiz-adv-x="671" d="M201 0v209l73 762h123l74 -762v-209h-270zM209 1163v271h254v-271h-254z" />
<glyph unicode="&#xa2;" horiz-adv-x="759" d="M51 1065q0 149 78.5 240t208.5 110v117h131v-115q158 -20 238 -151l-109 -66q-60 98 -180 98q-93 0 -147 -58t-54 -175q0 -116 54.5 -172.5t144.5 -56.5q68 0 113.5 23t82.5 71l95 -86q-96 -111 -238 -129v-115h-131v115q-130 19 -208.5 110t-78.5 240z" />
<glyph unicode="&#xa3;" horiz-adv-x="1259" d="M6 147q0 70 56.5 118t152.5 48q69 0 152 -34q2 18 2 57q0 117 -52 250h-194v141h133q-76 167 -76 301q0 188 131.5 291.5t337.5 103.5q103 0 186.5 -24.5t137.5 -65.5t91.5 -97.5t55 -115.5t21.5 -125l-226 -18q-4 59 -17.5 105t-41 87.5t-78 64.5t-121.5 23 q-124 0 -186.5 -67t-62.5 -184q0 -120 55 -279h307v-141h-264q22 -86 22 -185q0 -95 -28 -190q70 -36 124.5 -55t112.5 -19q125 0 171 59.5t44 200.5h185q18 -63 18 -125q0 -149 -103.5 -222t-275.5 -73q-110 0 -188 29.5t-150 79.5q-82 -106 -221 -106q-36 0 -69.5 7.5 t-67.5 24.5t-54 51.5t-20 83.5zM117 141q0 -32 24.5 -52.5t69.5 -20.5q91 0 129 90q-69 49 -135 49q-88 0 -88 -66z" />
<glyph unicode="&#xa5;" horiz-adv-x="1177" d="M-8 1401h252l356 -608l365 608h215l-445 -729h348v-123h-385v-154h385v-123h-385v-272h-221v272h-387v123h387v154h-387v123h344z" />
<glyph unicode="&#xa6;" horiz-adv-x="579" d="M201 -395v858h180v-858h-180zM201 678v858h180v-858h-180z" />
<glyph unicode="&#xa7;" horiz-adv-x="989" d="M88 70l111 110q52 -57 125 -88t151 -31q106 0 156.5 38t50.5 94q0 40 -25 71t-66 49.5t-93 37t-107 34.5t-107 42.5t-93 59t-66 86.5t-25 123q0 158 144 242q-127 84 -127 240q0 146 104.5 224.5t294.5 78.5q114 0 216.5 -42.5t168.5 -117.5l-110 -111q-51 55 -125 87 t-152 32q-106 0 -156.5 -38t-50.5 -93q0 -46 32 -79t83.5 -53.5t113.5 -39.5t124 -44t113.5 -59t83.5 -92.5t32 -136.5q0 -160 -146 -243q129 -80 129 -240q0 -144 -104 -222.5t-295 -78.5q-113 0 -216 42.5t-169 117.5zM283 745q0 -39 16 -69.5t39 -50.5t62.5 -38.5 t72.5 -29t84.5 -27t83.5 -28.5q68 60 68 143q0 38 -16 68.5t-40 50t-64 38t-74.5 29.5t-85 28t-83.5 30q-63 -59 -63 -144z" />
<glyph unicode="&#xa8;" horiz-adv-x="1024" d="M209 1102v235h215v-235h-215zM600 1102v235h215v-235h-215z" />
<glyph unicode="&#xa9;" horiz-adv-x="1712" d="M109 717q0 156 57.5 293.5t157 235.5t237.5 155t293 57q206 0 378 -96.5t272 -267t100 -377.5q0 -156 -59 -294.5t-159 -237t-238.5 -155.5t-293.5 -57q-207 0 -378 97t-269 267.5t-98 379.5zM213 717q0 -179 85.5 -327.5t232.5 -233t323 -84.5q177 0 325 84.5t234 233 t86 327.5q0 133 -51 252.5t-137 205t-205.5 135.5t-251.5 50q-131 0 -250 -50t-204.5 -135.5t-136 -205t-50.5 -252.5zM492 705q0 183 105.5 284t274.5 101q202 0 306 -152l-103 -86q-64 115 -205 115q-89 0 -143.5 -66.5t-54.5 -195.5q0 -127 54.5 -194t143.5 -67 q135 0 205 119l111 -90q-107 -149 -314 -149q-168 0 -274 100t-106 281z" />
<glyph unicode="&#xaa;" horiz-adv-x="880" d="M72 907q0 56 26 99.5t67.5 70.5t106 46.5t129 29t148.5 16.5v27q0 123 -139 123q-66 0 -107.5 -28t-71.5 -79l-112 62q90 153 295 153q147 0 221 -67t74 -221v-250q0 -68 43 -68q18 0 34 4v-86q-32 -14 -88 -14q-116 0 -137 115q-30 -55 -96 -91t-160 -36 q-59 0 -109.5 17.5t-87 63.5t-36.5 113zM100 477v119h666v-119h-666zM225 930q0 -51 31 -79t88 -28q79 0 142 51t63 138v71q-78 -7 -132 -17t-100 -27t-69 -44t-23 -65z" />
<glyph unicode="&#xab;" horiz-adv-x="948" d="M29 465l286 395h187l-260 -397l256 -397h-174zM446 465l289 395h187l-260 -397l253 -397h-174z" />
<glyph unicode="&#xad;" horiz-adv-x="868" d="M178 477v189h512v-189h-512z" />
<glyph unicode="&#xae;" horiz-adv-x="890" d="M59 1075q0 160 112.5 272.5t272.5 112.5t272.5 -112.5t112.5 -272.5t-112.5 -272.5t-272.5 -112.5t-272.5 112.5t-112.5 272.5zM123 1075q0 -134 94 -228.5t227 -94.5q134 0 229 95t95 228t-95 228.5t-229 95.5q-133 0 -227 -95t-94 -229zM276 862v432h195 q68 0 115 -30.5t47 -102.5q0 -51 -25.5 -83t-62.5 -44l90 -172h-98l-80 164h-88v-164h-93zM369 1090h88q84 0 84 67q0 64 -82 64h-90v-131z" />
<glyph unicode="&#xaf;" horiz-adv-x="1024" d="M225 1137v166h574v-166h-574z" />
<glyph unicode="&#xb0;" horiz-adv-x="870" d="M66 1083q0 157 107.5 263t262.5 106t263 -106t108 -263t-108 -262.5t-263 -105.5t-262.5 105.5t-107.5 262.5zM225 1083q0 -98 60.5 -158.5t150.5 -60.5q91 0 152 60.5t61 158.5t-61 159t-152 61q-90 0 -150.5 -61t-60.5 -159z" />
<glyph unicode="&#xb1;" horiz-adv-x="1214" d="M121 0v170h973v-170h-973zM121 672v176h391v403h186v-403h396v-176h-396v-404h-186v404h-391z" />
<glyph unicode="&#xb2;" horiz-adv-x="751" d="M39 686v102l137 105q73 55 107.5 81.5t81.5 64.5t66 57.5t43 46.5t32 47.5t14 45t6 52.5q0 72 -42.5 116t-116.5 44q-156 0 -185 -170l-143 29q25 127 110.5 195.5t219.5 68.5q144 0 226.5 -77.5t82.5 -207.5q0 -53 -14.5 -98.5t-37.5 -82.5t-70.5 -82t-94.5 -81.5 t-129 -95.5l-43 -31h401v-129h-651z" />
<glyph unicode="&#xb3;" horiz-adv-x="759" d="M41 899l147 29q22 -146 183 -146q76 0 124 34t48 104q0 72 -47.5 107.5t-128.5 35.5h-91v123h84q91 0 130.5 31.5t39.5 101.5q0 65 -43.5 96t-115.5 31q-149 0 -174 -129l-142 35q26 105 112 161t212 56q133 0 218 -69.5t85 -178.5q0 -69 -31 -120t-90 -75 q135 -52 135 -208q0 -122 -86 -190.5t-235 -68.5q-289 0 -334 240z" />
<glyph unicode="&#xb4;" horiz-adv-x="1024" d="M420 1053l160 333h260l-242 -333h-178z" />
<glyph unicode="&#xb6;" horiz-adv-x="1105" d="M61 1038q0 86 25 155t66 113t96 73.5t112.5 42t118.5 12.5h586v-121h-141v-1313h-136v1313h-133v-1313h-135v637h-39q-82 0 -156 25t-133.5 73t-95 126.5t-35.5 176.5z" />
<glyph unicode="&#xb7;" horiz-adv-x="608" d="M178 567v271h252v-271h-252z" />
<glyph unicode="&#xb8;" horiz-adv-x="1024" d="M322 -350l47 94q54 -33 120 -33q103 0 103 68q0 63 -125 63q-38 0 -53 -6l39 164h86l-15 -82q193 0 193 -141q0 -170 -219 -170q-101 0 -176 43z" />
<glyph unicode="&#xb9;" horiz-adv-x="645" d="M78 1421l241 127h107v-735h192v-127h-538v127h192v569l-147 -65z" />
<glyph unicode="&#xba;" horiz-adv-x="856" d="M74 1071q0 168 100.5 261t253.5 93t253.5 -93t100.5 -261q0 -167 -100.5 -260.5t-253.5 -93.5t-253.5 93.5t-100.5 260.5zM104 477v119h648v-119h-648zM244 1071q0 -116 52 -176.5t132 -60.5t132 60.5t52 176.5q0 117 -52 177.5t-132 60.5t-132 -60.5t-52 -177.5z" />
<glyph unicode="&#xbb;" horiz-adv-x="948" d="M27 860h186l289 -395l-295 -399h-174l254 397zM446 860h187l287 -395l-295 -399h-174l256 397z" />
<glyph unicode="&#xbc;" horiz-adv-x="1824" d="M125 1303l242 127h106v-736h193v-127h-539v127h192v570l-147 -66zM356 -20l967 1450h133l-964 -1450h-136zM1020 197v120l432 545h162v-538h110v-127h-110v-197h-152v197h-442zM1178 324h284v366z" />
<glyph unicode="&#xbd;" horiz-adv-x="1921" d="M125 1303l242 127h106v-736h193v-127h-539v127h192v570l-147 -66zM354 -20l967 1450h133l-965 -1450h-135zM1149 0v102l137 105q73 55 107.5 81.5t81.5 64.5t66 57.5t43 46.5t32 47.5t14 45t6 52.5q0 72 -42.5 116t-116.5 44q-156 0 -185 -170l-143 29 q25 127 110.5 195.5t219.5 68.5q144 0 226.5 -77.5t82.5 -207.5q0 -53 -14.5 -98.5t-37.5 -82.5t-70.5 -82t-94.5 -81.5t-129 -95.5l-43 -31h401v-129h-651z" />
<glyph unicode="&#xbe;" horiz-adv-x="1892" d="M80 780l147 29q22 -145 183 -145q76 0 124 33.5t48 103.5q0 72 -47.5 107.5t-128.5 35.5h-91v123h84q91 0 130.5 31.5t39.5 101.5q0 65 -43.5 96t-115.5 31q-149 0 -174 -129l-142 35q26 105 112 161t212 56q133 0 218 -69.5t85 -178.5q0 -68 -31 -119t-90 -75 q135 -53 135 -209q0 -122 -86 -190t-235 -68q-289 0 -334 239zM424 -20l967 1450h133l-965 -1450h-135zM1087 197v120l433 545h161v-538h111v-127h-111v-197h-151v197h-443zM1245 324h285v366z" />
<glyph unicode="&#xbf;" horiz-adv-x="964" d="M76 360q0 68 22.5 129.5t54 106t84.5 90.5t95 74t104 65v189h201v-266q-71 -37 -125 -73.5t-105.5 -84t-79.5 -105t-28 -120.5q0 -108 56 -168t161 -60q204 0 242 221l200 -30q-29 -166 -149.5 -260.5t-306.5 -94.5q-84 0 -158.5 22.5t-135.5 67t-96.5 121t-35.5 176.5z M410 1163v271h252v-271h-252z" />
<glyph unicode="&#xc0;" horiz-adv-x="1425" d="M16 0l586 1440h236l577 -1440h-254l-145 381h-625l-145 -381h-230zM391 1880h262l156 -315h-186zM461 561h487l-241 635z" />
<glyph unicode="&#xc1;" horiz-adv-x="1425" d="M16 0l586 1440h236l577 -1440h-254l-145 381h-625l-145 -381h-230zM461 561h487l-241 635zM627 1563l153 315h264l-231 -315h-186z" />
<glyph unicode="&#xc2;" horiz-adv-x="1425" d="M16 0l586 1440h236l577 -1440h-254l-145 381h-625l-145 -381h-230zM403 1565l201 315h230l200 -315h-176l-139 176l-139 -176h-177zM461 561h487l-241 635z" />
<glyph unicode="&#xc3;" horiz-adv-x="1425" d="M16 0l586 1440h236l577 -1440h-254l-145 381h-625l-145 -381h-230zM348 1628q43 232 240 232q52 0 94 -17.5t65 -38t54 -38t63 -17.5q38 0 60 22t37 74l129 -28q-43 -232 -240 -232q-52 0 -94 17.5t-65 38t-54 38t-64 17.5q-38 0 -59.5 -22t-36.5 -75zM461 561h487 l-241 635z" />
<glyph unicode="&#xc4;" horiz-adv-x="1425" d="M16 0l586 1440h236l577 -1440h-254l-145 381h-625l-145 -381h-230zM389 1599v244h234v-244h-234zM461 561h487l-241 635zM815 1599v244h234v-244h-234z" />
<glyph unicode="&#xc5;" horiz-adv-x="1425" d="M16 0l586 1440h236l577 -1440h-254l-145 381h-625l-145 -381h-230zM461 561h487l-241 635zM502 1722q0 88 63 144.5t154 56.5t154 -56.5t63 -144.5t-63 -145t-154 -57t-154 57t-63 145zM612 1722q0 -49 30.5 -80.5t76.5 -31.5t76 31.5t30 80.5q0 47 -30 79t-76 32 t-76.5 -32t-30.5 -79z" />
<glyph unicode="&#xc6;" horiz-adv-x="1847" d="M8 0l606 1434h1080v-193h-729l53 -422h430v-188h-406l58 -434h639v-197h-840l-41 330h-496l-133 -330h-221zM430 498h408l-95 772z" />
<glyph unicode="&#xc7;" horiz-adv-x="1515" d="M125 717q0 181 57.5 325.5t156.5 236t227.5 139.5t275.5 48q372 0 579 -295l-161 -120q-148 227 -412 227q-219 0 -348 -142t-129 -419q0 -144 37.5 -254t103.5 -175.5t149.5 -98.5t182.5 -33q274 0 418 223l163 -119q-191 -279 -548 -293l-11 -49q94 0 146.5 -33 t52.5 -114q0 -174 -231 -174q-108 0 -187 45l49 100q52 -37 133 -37q103 0 103 68q0 65 -119 65q-31 0 -61 -6l32 137q-140 9 -259.5 63t-209 146.5t-140 231t-50.5 307.5z" />
<glyph unicode="&#xc8;" horiz-adv-x="1314" d="M188 0v1434h986v-195h-748v-420h422v-188h-422v-434h778v-197h-1016zM375 1880h262l156 -315h-187z" />
<glyph unicode="&#xc9;" horiz-adv-x="1314" d="M188 0v1434h986v-195h-748v-420h422v-188h-422v-434h778v-197h-1016zM610 1563l154 315h264l-231 -315h-187z" />
<glyph unicode="&#xca;" horiz-adv-x="1314" d="M188 0v1434h986v-195h-748v-420h422v-188h-422v-434h778v-197h-1016zM387 1565l201 315h229l201 -315h-176l-140 176l-139 -176h-176z" />
<glyph unicode="&#xcb;" horiz-adv-x="1314" d="M188 0v1434h986v-195h-748v-420h422v-188h-422v-434h778v-197h-1016zM373 1599v244h233v-244h-233zM799 1599v244h233v-244h-233z" />
<glyph unicode="&#xcc;" horiz-adv-x="614" d="M-23 1880h263l155 -315h-186zM188 0v1434h238v-1434h-238z" />
<glyph unicode="&#xcd;" horiz-adv-x="614" d="M188 0v1434h238v-1434h-238zM213 1563l154 315h264l-232 -315h-186z" />
<glyph unicode="&#xce;" horiz-adv-x="614" d="M-10 1565l200 315h230l201 -315h-177l-139 176l-139 -176h-176zM188 0v1434h238v-1434h-238z" />
<glyph unicode="&#xcf;" horiz-adv-x="614" d="M-25 1599v244h234v-244h-234zM188 0v1434h238v-1434h-238zM401 1599v244h234v-244h-234z" />
<glyph unicode="&#xd0;" horiz-adv-x="1566" d="M27 631v190h161v613h525q173 0 304 -37.5t229 -119t149 -220.5t51 -332q0 -159 -35.5 -283.5t-98 -206.5t-153 -135.5t-194.5 -76.5t-228 -23h-549v631h-161zM426 201h256q93 0 162 10.5t139.5 43.5t115.5 89t73 152.5t28 228.5q0 129 -28 222.5t-73 147.5t-115.5 86 t-139.5 42t-162 10h-256v-412h346v-190h-346v-430z" />
<glyph unicode="&#xd1;" horiz-adv-x="1615" d="M188 0v1434h230l799 -1074v1074h210v-1434h-229l-801 1073v-1073h-209zM436 1628q43 232 240 232q52 0 94 -17.5t65 -38t54 -38t63 -17.5q38 0 60 22t37 74l129 -28q-43 -232 -240 -232q-52 0 -94 17.5t-64.5 38t-53.5 38t-64 17.5q-38 0 -60 -22t-37 -75z" />
<glyph unicode="&#xd2;" horiz-adv-x="1652" d="M121 717q0 176 56 320t152.5 236.5t223.5 142.5t272 50t272 -50t224 -142.5t153 -236.5t56 -320t-56 -320t-153 -237t-224 -143t-272 -50q-115 0 -219.5 31t-193 94t-153.5 152t-101.5 210t-36.5 263zM369 717q0 -268 127 -414.5t329 -146.5q203 0 330 146.5t127 414.5 t-127 414.5t-330 146.5q-202 0 -329 -146.5t-127 -414.5zM498 1880h262l155 -315h-186z" />
<glyph unicode="&#xd3;" horiz-adv-x="1652" d="M121 717q0 176 56 320t152.5 236.5t223.5 142.5t272 50t272 -50t224 -142.5t153 -236.5t56 -320t-56 -320t-153 -237t-224 -143t-272 -50q-115 0 -219.5 31t-193 94t-153.5 152t-101.5 210t-36.5 263zM369 717q0 -268 127 -414.5t329 -146.5q203 0 330 146.5t127 414.5 t-127 414.5t-330 146.5q-202 0 -329 -146.5t-127 -414.5zM733 1563l154 315h264l-231 -315h-187z" />
<glyph unicode="&#xd4;" horiz-adv-x="1652" d="M121 717q0 176 56 320t152.5 236.5t223.5 142.5t272 50t272 -50t224 -142.5t153 -236.5t56 -320t-56 -320t-153 -237t-224 -143t-272 -50q-115 0 -219.5 31t-193 94t-153.5 152t-101.5 210t-36.5 263zM369 717q0 -268 127 -414.5t329 -146.5q203 0 330 146.5t127 414.5 t-127 414.5t-330 146.5q-202 0 -329 -146.5t-127 -414.5zM510 1565l201 315h229l201 -315h-176l-140 176l-139 -176h-176z" />
<glyph unicode="&#xd5;" horiz-adv-x="1652" d="M121 717q0 176 56 320t152.5 236.5t223.5 142.5t272 50t272 -50t224 -142.5t153 -236.5t56 -320t-56 -320t-153 -237t-224 -143t-272 -50q-115 0 -219.5 31t-193 94t-153.5 152t-101.5 210t-36.5 263zM369 717q0 -268 127 -414.5t329 -146.5q203 0 330 146.5t127 414.5 t-127 414.5t-330 146.5q-202 0 -329 -146.5t-127 -414.5zM455 1628q43 232 239 232q52 0 94.5 -17.5t65.5 -38t54 -38t63 -17.5q38 0 59.5 22t36.5 74l129 -28q-43 -232 -240 -232q-52 0 -94 17.5t-64.5 38t-53.5 38t-64 17.5q-38 0 -59.5 -22t-36.5 -75z" />
<glyph unicode="&#xd6;" horiz-adv-x="1652" d="M121 717q0 176 56 320t152.5 236.5t223.5 142.5t272 50t272 -50t224 -142.5t153 -236.5t56 -320t-56 -320t-153 -237t-224 -143t-272 -50q-115 0 -219.5 31t-193 94t-153.5 152t-101.5 210t-36.5 263zM369 717q0 -268 127 -414.5t329 -146.5q203 0 330 146.5t127 414.5 t-127 414.5t-330 146.5q-202 0 -329 -146.5t-127 -414.5zM496 1599v244h233v-244h-233zM922 1599v244h233v-244h-233z" />
<glyph unicode="&#xd7;" horiz-adv-x="1214" d="M123 408l346 290l-346 291l115 135l368 -311l371 311l115 -135l-347 -291l347 -290l-115 -136l-371 310l-368 -310z" />
<glyph unicode="&#xd8;" horiz-adv-x="1652" d="M121 717q0 176 56 320t152.5 236.5t223.5 142.5t272 50q159 0 295 -59l56 100h178l-99 -178q129 -97 202 -252.5t73 -359.5q0 -176 -56 -320t-153 -237t-224 -143t-272 -50q-152 0 -293 58l-51 -93h-178l94 170q-130 97 -203 253t-73 362zM369 717q0 -275 133 -424 l522 940q-86 45 -199 45q-202 0 -329 -146.5t-127 -414.5zM629 199q87 -43 196 -43q203 0 330 146.5t127 414.5t-133 420z" />
<glyph unicode="&#xd9;" horiz-adv-x="1509" d="M176 559v875h238v-877q0 -216 93 -309.5t265 -93.5q163 0 256.5 98t93.5 315v867h211v-844q0 -143 -30 -252t-81.5 -178t-127.5 -112.5t-159 -61t-185 -17.5q-58 0 -112 7t-112.5 25t-108 46t-95 74.5t-77.5 106.5t-50.5 144.5t-18.5 186.5zM428 1880h262l156 -315h-187z " />
<glyph unicode="&#xda;" horiz-adv-x="1509" d="M176 559v875h238v-877q0 -216 93 -309.5t265 -93.5q163 0 256.5 98t93.5 315v867h211v-844q0 -143 -30 -252t-81.5 -178t-127.5 -112.5t-159 -61t-185 -17.5q-58 0 -112 7t-112.5 25t-108 46t-95 74.5t-77.5 106.5t-50.5 144.5t-18.5 186.5zM664 1563l153 315h264 l-231 -315h-186z" />
<glyph unicode="&#xdb;" horiz-adv-x="1509" d="M176 559v875h238v-877q0 -216 93 -309.5t265 -93.5q163 0 256.5 98t93.5 315v867h211v-844q0 -143 -30 -252t-81.5 -178t-127.5 -112.5t-159 -61t-185 -17.5q-58 0 -112 7t-112.5 25t-108 46t-95 74.5t-77.5 106.5t-50.5 144.5t-18.5 186.5zM440 1565l201 315h229 l201 -315h-176l-139 176l-140 -176h-176z" />
<glyph unicode="&#xdc;" horiz-adv-x="1509" d="M176 559v875h238v-877q0 -216 93 -309.5t265 -93.5q163 0 256.5 98t93.5 315v867h211v-844q0 -143 -30 -252t-81.5 -178t-127.5 -112.5t-159 -61t-185 -17.5q-58 0 -112 7t-112.5 25t-108 46t-95 74.5t-77.5 106.5t-50.5 144.5t-18.5 186.5zM426 1599v244h233v-244h-233z M852 1599v244h233v-244h-233z" />
<glyph unicode="&#xdd;" horiz-adv-x="1273" d="M14 1434h269l366 -625l375 625h233l-501 -826v-608h-238v602zM555 1563l154 315h264l-232 -315h-186z" />
<glyph unicode="&#xde;" horiz-adv-x="1447" d="M188 0v1434h238v-273h365q530 0 530 -438q0 -122 -42.5 -211t-119 -140t-171.5 -74.5t-212 -23.5h-350v-274h-238zM426 459h344q160 0 236.5 57.5t76.5 202.5q0 140 -75.5 195t-237.5 55h-344v-510z" />
<glyph unicode="&#xdf;" horiz-adv-x="1241" d="M164 0v1049q0 108 20.5 185t53 121.5t86.5 69t106.5 32t128.5 7.5q167 0 260.5 -88.5t93.5 -240.5q0 -209 -137 -277q61 -2 115 -15.5t104.5 -44.5t87 -76.5t58.5 -115.5t22 -157q0 -128 -36 -221t-101 -146t-144.5 -77.5t-176.5 -24.5q-98 0 -164 10v155q62 -12 145 -12 q119 0 183.5 75.5t64.5 231.5q0 160 -73 226.5t-245 66.5h-61v158q184 0 184 221q0 193 -178 193q-96 0 -137 -50t-41 -182v-1073h-219z" />
<glyph unicode="&#xe0;" horiz-adv-x="1116" d="M74 244q0 65 22 116t67 87.5t99 62t134 43.5t154.5 28.5t176.5 20.5v39q0 90 -44.5 132t-137.5 42q-161 0 -248 -158l-156 91q56 95 160.5 154t259.5 59q195 0 291 -90.5t96 -295.5v-366q0 -47 13 -68.5t49 -21.5q33 0 51 6v-115q-46 -22 -117 -22q-175 0 -196 162 q-41 -81 -125.5 -129t-210.5 -48q-67 0 -125.5 15t-107.5 45.5t-77 84.5t-28 126zM238 1386h260l159 -333h-178zM297 264q0 -68 42.5 -105.5t123.5 -37.5q112 0 188 72t76 204v84q-64 -7 -112 -14.5t-100.5 -19t-89 -27.5t-67 -37.5t-46 -51.5t-15.5 -67z" />
<glyph unicode="&#xe1;" horiz-adv-x="1116" d="M74 244q0 65 22 116t67 87.5t99 62t134 43.5t154.5 28.5t176.5 20.5v39q0 90 -44.5 132t-137.5 42q-161 0 -248 -158l-156 91q56 95 160.5 154t259.5 59q195 0 291 -90.5t96 -295.5v-366q0 -47 13 -68.5t49 -21.5q33 0 51 6v-115q-46 -22 -117 -22q-175 0 -196 162 q-41 -81 -125.5 -129t-210.5 -48q-67 0 -125.5 15t-107.5 45.5t-77 84.5t-28 126zM297 264q0 -68 42.5 -105.5t123.5 -37.5q112 0 188 72t76 204v84q-64 -7 -112 -14.5t-100.5 -19t-89 -27.5t-67 -37.5t-46 -51.5t-15.5 -67zM473 1053l160 333h260l-242 -333h-178z" />
<glyph unicode="&#xe2;" horiz-adv-x="1116" d="M74 244q0 65 22 116t67 87.5t99 62t134 43.5t154.5 28.5t176.5 20.5v39q0 90 -44.5 132t-137.5 42q-161 0 -248 -158l-156 91q56 95 160.5 154t259.5 59q195 0 291 -90.5t96 -295.5v-366q0 -47 13 -68.5t49 -21.5q33 0 51 6v-115q-46 -22 -117 -22q-175 0 -196 162 q-41 -81 -125.5 -129t-210.5 -48q-67 0 -125.5 15t-107.5 45.5t-77 84.5t-28 126zM246 1053l207 333h225l207 -333h-170l-150 192l-149 -192h-170zM297 264q0 -68 42.5 -105.5t123.5 -37.5q112 0 188 72t76 204v84q-64 -7 -112 -14.5t-100.5 -19t-89 -27.5t-67 -37.5 t-46 -51.5t-15.5 -67z" />
<glyph unicode="&#xe3;" horiz-adv-x="1116" d="M74 244q0 65 22 116t67 87.5t99 62t134 43.5t154.5 28.5t176.5 20.5v39q0 90 -44.5 132t-137.5 42q-161 0 -248 -158l-156 91q56 95 160.5 154t259.5 59q195 0 291 -90.5t96 -295.5v-366q0 -47 13 -68.5t49 -21.5q33 0 51 6v-115q-46 -22 -117 -22q-175 0 -196 162 q-41 -81 -125.5 -129t-210.5 -48q-67 0 -125.5 15t-107.5 45.5t-77 84.5t-28 126zM229 1128q13 113 72 166.5t137 53.5q43 0 82 -16.5t62.5 -36t54.5 -36t59 -16.5q71 0 88 92l117 -22q-13 -113 -72.5 -166t-138.5 -53q-41 0 -79.5 16t-63 36t-55 36t-58.5 16q-70 0 -90 -92 zM297 264q0 -68 42.5 -105.5t123.5 -37.5q112 0 188 72t76 204v84q-64 -7 -112 -14.5t-100.5 -19t-89 -27.5t-67 -37.5t-46 -51.5t-15.5 -67z" />
<glyph unicode="&#xe4;" horiz-adv-x="1116" d="M74 244q0 65 22 116t67 87.5t99 62t134 43.5t154.5 28.5t176.5 20.5v39q0 90 -44.5 132t-137.5 42q-161 0 -248 -158l-156 91q56 95 160.5 154t259.5 59q195 0 291 -90.5t96 -295.5v-366q0 -47 13 -68.5t49 -21.5q33 0 51 6v-115q-46 -22 -117 -22q-175 0 -196 162 q-41 -81 -125.5 -129t-210.5 -48q-67 0 -125.5 15t-107.5 45.5t-77 84.5t-28 126zM262 1102v235h215v-235h-215zM297 264q0 -68 42.5 -105.5t123.5 -37.5q112 0 188 72t76 204v84q-64 -7 -112 -14.5t-100.5 -19t-89 -27.5t-67 -37.5t-46 -51.5t-15.5 -67zM653 1102v235h215 v-235h-215z" />
<glyph unicode="&#xe5;" horiz-adv-x="1116" d="M74 244q0 65 22 116t67 87.5t99 62t134 43.5t154.5 28.5t176.5 20.5v39q0 90 -44.5 132t-137.5 42q-161 0 -248 -158l-156 91q56 95 160.5 154t259.5 59q195 0 291 -90.5t96 -295.5v-366q0 -47 13 -68.5t49 -21.5q33 0 51 6v-115q-46 -22 -117 -22q-175 0 -196 162 q-41 -81 -125.5 -129t-210.5 -48q-67 0 -125.5 15t-107.5 45.5t-77 84.5t-28 126zM297 264q0 -68 42.5 -105.5t123.5 -37.5q112 0 188 72t76 204v84q-64 -7 -112 -14.5t-100.5 -19t-89 -27.5t-67 -37.5t-46 -51.5t-15.5 -67zM375 1221q0 78 54.5 126t135.5 48t136 -48 t55 -126q0 -80 -54.5 -128.5t-136.5 -48.5q-81 0 -135.5 48.5t-54.5 128.5zM479 1221q0 -42 24.5 -68.5t61.5 -26.5t61.5 26.5t24.5 68.5q0 41 -24.5 66.5t-61.5 25.5t-61.5 -25.5t-24.5 -66.5z" />
<glyph unicode="&#xe6;" horiz-adv-x="1746" d="M74 246q0 79 34 137.5t91 94.5t144 58t178.5 30t209.5 9v66q0 90 -46.5 132t-139.5 42q-161 0 -248 -158l-156 91q56 95 160.5 154t259.5 59q228 0 305 -142q118 142 355 142q96 0 177.5 -28t146 -84t101.5 -149.5t37 -214.5q0 -31 -2 -45h-731q4 -159 84 -236t203 -77 q96 0 165.5 40.5t121.5 135.5l137 -86q-67 -108 -174 -176t-256 -68q-156 0 -271.5 60.5t-166.5 179.5q-85 -240 -381 -240q-50 0 -96 8t-91 27.5t-78 50t-53 78.5t-20 109zM297 252q0 -60 43 -95.5t123 -35.5q113 0 190.5 72.5t77.5 207.5v41q-70 0 -118.5 -2t-102.5 -8.5 t-89 -19.5t-65.5 -33.5t-44.5 -52t-14 -74.5zM956 575h506q-24 236 -248 236q-108 0 -175.5 -63t-82.5 -173z" />
<glyph unicode="&#xe7;" horiz-adv-x="1052" d="M86 467q0 160 65 273t175.5 167t257.5 54q63 0 116 -9.5t105.5 -32t98.5 -64.5t83 -103l-149 -90q-39 68 -96.5 105.5t-147.5 37.5q-131 0 -208 -86t-77 -252q0 -165 80.5 -250.5t210.5 -85.5q174 0 258 137l127 -94q-140 -192 -383 -201l-8 -55q192 0 192 -141 q0 -170 -219 -170q-101 0 -176 43l47 94q54 -33 121 -33q103 0 103 68q0 63 -125 63q-39 0 -54 -6l33 141q-194 18 -312 144t-118 346z" />
<glyph unicode="&#xe8;" horiz-adv-x="1120" d="M86 461q0 122 38 218.5t105.5 157.5t157 92.5t195.5 31.5q96 0 177 -28t145.5 -84t101 -149.5t36.5 -214.5q0 -33 -2 -49h-725q4 -159 81 -233t200 -74q96 0 165.5 39.5t121.5 132.5l135 -86q-65 -108 -172 -175t-256 -67q-106 0 -196.5 30t-160 89t-108.5 153.5 t-39 215.5zM254 1386h260l160 -333h-178zM319 580h504q-16 127 -80 179t-168 52q-107 0 -172.5 -61t-83.5 -170z" />
<glyph unicode="&#xe9;" horiz-adv-x="1120" d="M86 461q0 122 38 218.5t105.5 157.5t157 92.5t195.5 31.5q96 0 177 -28t145.5 -84t101 -149.5t36.5 -214.5q0 -33 -2 -49h-725q4 -159 81 -233t200 -74q96 0 165.5 39.5t121.5 132.5l135 -86q-65 -108 -172 -175t-256 -67q-106 0 -196.5 30t-160 89t-108.5 153.5 t-39 215.5zM319 580h504q-16 127 -80 179t-168 52q-107 0 -172.5 -61t-83.5 -170zM489 1053l160 333h260l-241 -333h-179z" />
<glyph unicode="&#xea;" horiz-adv-x="1120" d="M86 461q0 122 38 218.5t105.5 157.5t157 92.5t195.5 31.5q96 0 177 -28t145.5 -84t101 -149.5t36.5 -214.5q0 -33 -2 -49h-725q4 -159 81 -233t200 -74q96 0 165.5 39.5t121.5 132.5l135 -86q-65 -108 -172 -175t-256 -67q-106 0 -196.5 30t-160 89t-108.5 153.5 t-39 215.5zM262 1053l207 333h225l207 -333h-170l-149 192l-150 -192h-170zM319 580h504q-16 127 -80 179t-168 52q-107 0 -172.5 -61t-83.5 -170z" />
<glyph unicode="&#xeb;" horiz-adv-x="1120" d="M86 461q0 122 38 218.5t105.5 157.5t157 92.5t195.5 31.5q96 0 177 -28t145.5 -84t101 -149.5t36.5 -214.5q0 -33 -2 -49h-725q4 -159 81 -233t200 -74q96 0 165.5 39.5t121.5 132.5l135 -86q-65 -108 -172 -175t-256 -67q-106 0 -196.5 30t-160 89t-108.5 153.5 t-39 215.5zM279 1102v235h215v-235h-215zM319 580h504q-16 127 -80 179t-168 52q-107 0 -172.5 -61t-83.5 -170zM670 1102v235h215v-235h-215z" />
<glyph unicode="&#xec;" horiz-adv-x="546" d="M-53 1386h260l160 -333h-179zM164 0v936h219v-936h-219z" />
<glyph unicode="&#xed;" horiz-adv-x="546" d="M164 0v936h219v-936h-219zM182 1053l160 333h260l-242 -333h-178z" />
<glyph unicode="&#xee;" horiz-adv-x="546" d="M-45 1053l207 333h225l207 -333h-170l-150 192l-149 -192h-170zM164 0v936h219v-936h-219z" />
<glyph unicode="&#xef;" horiz-adv-x="546" d="M-29 1102v235h215v-235h-215zM164 0v936h219v-936h-219zM362 1102v235h216v-235h-216z" />
<glyph unicode="&#xf0;" horiz-adv-x="1157" d="M84 446q0 213 120.5 338t323.5 125q113 0 194 -52.5t120 -121.5q-11 222 -107 352l-291 -92l-32 101l243 75q-97 77 -233 109l51 182q248 -61 391 -223l170 53l35 -100l-137 -43q123 -205 123 -537q0 -301 -124 -468t-372 -167q-112 0 -203.5 39t-150 104.5t-90 149.5 t-31.5 176zM313 444q0 -147 73.5 -233t184.5 -86q114 0 186 92.5t72 231.5q0 127 -70.5 216t-185.5 89q-111 0 -185.5 -82t-74.5 -228z" />
<glyph unicode="&#xf1;" horiz-adv-x="1202" d="M164 0v936h219v-168q83 188 326 188q167 0 251 -96t84 -270v-590h-219v532q0 132 -43 197.5t-149 65.5q-78 0 -134.5 -43.5t-84.5 -122.5q-31 -78 -31 -238v-391h-219zM266 1128q13 113 72 166.5t137 53.5q43 0 82 -16.5t62.5 -36t54.5 -36t59 -16.5q71 0 88 92l117 -22 q-13 -113 -72.5 -166t-138.5 -53q-41 0 -79.5 16t-63 36t-55 36t-58.5 16q-70 0 -90 -92z" />
<glyph unicode="&#xf2;" horiz-adv-x="1150" d="M86 467q0 120 38 215t104.5 155.5t155 92t191.5 31.5q139 0 248 -54t175.5 -167.5t66.5 -272.5t-66.5 -272.5t-175.5 -167.5t-248 -54q-102 0 -190.5 31.5t-155.5 92t-105 155.5t-38 215zM248 1386h260l160 -333h-179zM315 467q0 -164 74 -251t186 -87q113 0 187 87 t74 251q0 165 -74 252.5t-187 87.5q-112 0 -186 -87.5t-74 -252.5z" />
<glyph unicode="&#xf3;" horiz-adv-x="1150" d="M86 467q0 120 38 215t104.5 155.5t155 92t191.5 31.5q139 0 248 -54t175.5 -167.5t66.5 -272.5t-66.5 -272.5t-175.5 -167.5t-248 -54q-102 0 -190.5 31.5t-155.5 92t-105 155.5t-38 215zM315 467q0 -164 74 -251t186 -87q113 0 187 87t74 251q0 165 -74 252.5t-187 87.5 q-112 0 -186 -87.5t-74 -252.5zM483 1053l160 333h260l-241 -333h-179z" />
<glyph unicode="&#xf4;" horiz-adv-x="1150" d="M86 467q0 120 38 215t104.5 155.5t155 92t191.5 31.5q139 0 248 -54t175.5 -167.5t66.5 -272.5t-66.5 -272.5t-175.5 -167.5t-248 -54q-102 0 -190.5 31.5t-155.5 92t-105 155.5t-38 215zM256 1053l207 333h225l207 -333h-170l-150 192l-149 -192h-170zM315 467 q0 -164 74 -251t186 -87q113 0 187 87t74 251q0 165 -74 252.5t-187 87.5q-112 0 -186 -87.5t-74 -252.5z" />
<glyph unicode="&#xf5;" horiz-adv-x="1150" d="M86 467q0 120 38 215t104.5 155.5t155 92t191.5 31.5q139 0 248 -54t175.5 -167.5t66.5 -272.5t-66.5 -272.5t-175.5 -167.5t-248 -54q-102 0 -190.5 31.5t-155.5 92t-105 155.5t-38 215zM240 1128q13 113 72 166.5t137 53.5q43 0 82 -16.5t62.5 -36t54.5 -36t59 -16.5 q71 0 88 92l116 -22q-13 -113 -72.5 -166t-138.5 -53q-41 0 -79.5 16t-63 36t-55 36t-58.5 16q-70 0 -90 -92zM315 467q0 -164 74 -251t186 -87q113 0 187 87t74 251q0 165 -74 252.5t-187 87.5q-112 0 -186 -87.5t-74 -252.5z" />
<glyph unicode="&#xf6;" horiz-adv-x="1150" d="M86 467q0 120 38 215t104.5 155.5t155 92t191.5 31.5q139 0 248 -54t175.5 -167.5t66.5 -272.5t-66.5 -272.5t-175.5 -167.5t-248 -54q-102 0 -190.5 31.5t-155.5 92t-105 155.5t-38 215zM272 1102v235h215v-235h-215zM315 467q0 -164 74 -251t186 -87q113 0 187 87 t74 251q0 165 -74 252.5t-187 87.5q-112 0 -186 -87.5t-74 -252.5zM664 1102v235h215v-235h-215z" />
<glyph unicode="&#xf7;" horiz-adv-x="1214" d="M121 610v176h973v-176h-973zM494 227v250h227v-250h-227zM494 920v254h227v-254h-227z" />
<glyph unicode="&#xf8;" horiz-adv-x="1150" d="M86 467q0 120 38 215t104.5 155.5t155 92t191.5 31.5q108 0 193 -33l33 55h160l-72 -119q176 -132 176 -397q0 -159 -66.5 -272.5t-175.5 -167.5t-248 -54q-103 0 -194 31l-29 -49h-159l67 115q-174 135 -174 397zM315 467q0 -132 52 -219l315 534q-52 25 -107 25 q-112 0 -186 -87.5t-74 -252.5zM469 152q54 -23 106 -23q113 0 187 87t74 251q0 127 -52 219z" />
<glyph unicode="&#xf9;" d="M158 344v592h219v-533q0 -131 42 -197.5t142 -66.5q78 0 133 43.5t84 120.5q31 80 31 242v391h219v-936h-215v174q-81 -194 -330 -194q-161 0 -243 95t-82 269zM268 1386h260l160 -333h-178z" />
<glyph unicode="&#xfa;" d="M158 344v592h219v-533q0 -131 42 -197.5t142 -66.5q78 0 133 43.5t84 120.5q31 80 31 242v391h219v-936h-215v174q-81 -194 -330 -194q-161 0 -243 95t-82 269zM504 1053l160 333h260l-242 -333h-178z" />
<glyph unicode="&#xfb;" d="M158 344v592h219v-533q0 -131 42 -197.5t142 -66.5q78 0 133 43.5t84 120.5q31 80 31 242v391h219v-936h-215v174q-81 -194 -330 -194q-161 0 -243 95t-82 269zM276 1053l207 333h226l206 -333h-170l-149 192l-150 -192h-170z" />
<glyph unicode="&#xfc;" d="M158 344v592h219v-533q0 -131 42 -197.5t142 -66.5q78 0 133 43.5t84 120.5q31 80 31 242v391h219v-936h-215v174q-81 -194 -330 -194q-161 0 -243 95t-82 269zM293 1102v235h215v-235h-215zM684 1102v235h215v-235h-215z" />
<glyph unicode="&#xfd;" horiz-adv-x="989" d="M18 936h232l258 -711l264 711h199l-436 -1106q-30 -75 -61.5 -118.5t-87.5 -69t-140 -25.5q-70 0 -156 14v170q79 -24 156 -24q44 0 74.5 20t52.5 76l28 80zM285 1053l159 333h261l-242 -333h-178z" />
<glyph unicode="&#xfe;" d="M164 -358v1792h219v-635q48 78 132.5 116.5t174.5 38.5q179 0 295.5 -127t116.5 -360q0 -235 -114.5 -360t-299.5 -125q-93 0 -174.5 37t-130.5 110v-487h-219zM379 467q0 -149 63.5 -237.5t184.5 -88.5q111 0 177 81t66 245q0 165 -66 246.5t-177 81.5 q-121 0 -184.5 -88.5t-63.5 -239.5z" />
<glyph unicode="&#xff;" horiz-adv-x="989" d="M18 936h232l258 -711l264 711h199l-436 -1106q-30 -75 -61.5 -118.5t-87.5 -69t-140 -25.5q-70 0 -156 14v170q79 -24 156 -24q44 0 74.5 20t52.5 76l28 80zM193 1102v235h215v-235h-215zM584 1102v235h215v-235h-215z" />
<glyph unicode="&#x152;" horiz-adv-x="1970" d="M125 717q0 177 59.5 315t166.5 225t251.5 132t319.5 45h909v-195h-694v-420h387v-188h-387v-434h723v-197h-938q-176 0 -319.5 42.5t-251.5 128t-167 224.5t-59 322zM369 717q0 -144 40 -249t113 -166t166.5 -89.5t210.5 -28.5v1063q-93 0 -171 -17t-145.5 -56 t-114 -99.5t-73 -151t-26.5 -206.5z" />
<glyph unicode="&#x153;" horiz-adv-x="1867" d="M86 467q0 120 38 215t104.5 155.5t155 92t191.5 31.5q114 0 211 -39t164 -115q136 154 379 154q76 0 143.5 -17t126 -54.5t101 -92.5t66.5 -134.5t24 -177.5q0 -33 -2 -49h-725q4 -159 80.5 -233t199.5 -74q96 0 165.5 39.5t121.5 132.5l135 -86q-65 -108 -172 -175 t-256 -67q-252 0 -389 152q-131 -152 -373 -152q-102 0 -190.5 31.5t-155.5 92t-105 155.5t-38 215zM315 467q0 -164 74 -251t186 -87q113 0 187 87t74 251q0 165 -74 252.5t-187 87.5q-112 0 -186 -87.5t-74 -252.5zM1067 580h504q-16 127 -80 179t-168 52 q-107 0 -172.5 -61t-83.5 -170z" />
<glyph unicode="&#x178;" horiz-adv-x="1273" d="M14 1434h269l366 -625l375 625h233l-501 -826v-608h-238v602zM317 1599v244h234v-244h-234zM743 1599v244h234v-244h-234z" />
<glyph unicode="&#x2c6;" horiz-adv-x="1024" d="M193 1053l206 333h226l206 -333h-169l-150 192l-150 -192h-169z" />
<glyph unicode="&#x2dc;" horiz-adv-x="1024" d="M176 1128q13 113 72 166.5t137 53.5q43 0 82 -16.5t62.5 -36t54.5 -36t59 -16.5q71 0 88 92l117 -22q-13 -113 -72.5 -166t-138.5 -53q-41 0 -79.5 16t-63 36t-55 36t-58.5 16q-70 0 -90 -92z" />
<glyph unicode="&#x2000;" horiz-adv-x="961" />
<glyph unicode="&#x2001;" horiz-adv-x="1923" />
<glyph unicode="&#x2002;" horiz-adv-x="961" />
<glyph unicode="&#x2003;" horiz-adv-x="1923" />
<glyph unicode="&#x2004;" horiz-adv-x="641" />
<glyph unicode="&#x2005;" horiz-adv-x="480" />
<glyph unicode="&#x2006;" horiz-adv-x="320" />
<glyph unicode="&#x2007;" horiz-adv-x="320" />
<glyph unicode="&#x2008;" horiz-adv-x="240" />
<glyph unicode="&#x2009;" horiz-adv-x="384" />
<glyph unicode="&#x200a;" horiz-adv-x="106" />
<glyph unicode="&#x2010;" horiz-adv-x="868" d="M178 477v189h512v-189h-512z" />
<glyph unicode="&#x2011;" horiz-adv-x="868" d="M178 477v189h512v-189h-512z" />
<glyph unicode="&#x2012;" horiz-adv-x="868" d="M178 477v189h512v-189h-512z" />
<glyph unicode="&#x2013;" horiz-adv-x="1024" d="M178 502v164h668v-164h-668z" />
<glyph unicode="&#x2014;" horiz-adv-x="2048" d="M178 502v164h1692v-164h-1692z" />
<glyph unicode="&#x2018;" horiz-adv-x="608" d="M178 895v248q0 61 11.5 109.5t28 80t46 57.5t55 41t64.5 33l47 -90q-68 -34 -92.5 -75t-24.5 -134h117v-270h-252z" />
<glyph unicode="&#x2019;" horiz-adv-x="608" d="M178 954q68 34 92.5 75t24.5 134h-117v271h252v-248q0 -61 -11.5 -109.5t-28 -80t-46 -58t-55 -41.5t-64.5 -33z" />
<glyph unicode="&#x201a;" horiz-adv-x="608" d="M178 0v270h252v-247q0 -61 -11.5 -109t-28 -79t-46 -57.5t-55 -41.5t-64.5 -33l-47 88q68 35 92.5 76t24.5 133h-117z" />
<glyph unicode="&#x201c;" horiz-adv-x="987" d="M178 893v246q0 137 47.5 208t151.5 113l45 -80q-69 -34 -93 -78t-24 -139h113v-270h-240zM565 893v246q0 137 47.5 208t151.5 113l45 -80q-69 -34 -93 -78t-24 -139h113v-270h-240z" />
<glyph unicode="&#x201d;" horiz-adv-x="987" d="M178 946q69 34 93 78t24 139h-113v271h240v-246q0 -137 -47.5 -208.5t-151.5 -113.5zM565 946q69 34 93 78t24 139h-113v271h240v-246q0 -137 -47.5 -208.5t-151.5 -113.5z" />
<glyph unicode="&#x201e;" horiz-adv-x="987" d="M178 -217q69 34 93 78t24 139h-113v270h240v-245q0 -137 -47.5 -208.5t-151.5 -113.5zM565 -217q69 34 93 78t24 139h-113v270h240v-245q0 -137 -47.5 -208.5t-151.5 -113.5z" />
<glyph unicode="&#x2022;" horiz-adv-x="1024" d="M256 684q0 107 75 180.5t181 73.5q105 0 179.5 -73.5t74.5 -180.5t-74.5 -180.5t-179.5 -73.5q-106 0 -181 73.5t-75 180.5z" />
<glyph unicode="&#x2026;" horiz-adv-x="1914" d="M193 0v270h251v-270h-251zM831 0v270h252v-270h-252zM1470 0v270h252v-270h-252z" />
<glyph unicode="&#x202f;" horiz-adv-x="384" />
<glyph unicode="&#x2039;" horiz-adv-x="532" d="M29 465l288 395h189l-260 -397l252 -397h-176z" />
<glyph unicode="&#x203a;" horiz-adv-x="532" d="M27 860h188l289 -395l-293 -399h-176l252 397z" />
<glyph unicode="&#x205f;" horiz-adv-x="480" />
<glyph unicode="&#x20ac;" horiz-adv-x="1157" d="M29 514v125h141q-2 20 -2 61q0 45 2 68h-141v125h155q46 253 209.5 390.5t394.5 137.5q197 0 338 -75l-77 -162q-123 67 -254 67q-150 0 -250 -93t-135 -265h522l-55 -125h-484q-2 -23 -2 -68q0 -43 2 -61h426l-55 -125h-356q35 -175 136.5 -269.5t252.5 -94.5 q135 0 264 71l80 -153q-147 -91 -346 -91q-154 0 -280 61t-214 183t-119 293h-153z" />
<glyph unicode="&#x2122;" horiz-adv-x="1701" d="M37 1319v115h588v-115h-226v-617h-137v617h-225zM733 702v732h185l227 -510l225 510h189v-732h-134v584l-260 -590h-63l-252 570v-564h-117z" />
<glyph unicode="&#xe000;" horiz-adv-x="931" d="M0 0v932h932v-932h-932z" />
</font>
</defs>
</svg>
