<?xml version="1.0" standalone="no"?>
<!DOCTYPE svg PUBLIC "-//W3C//DTD SVG 1.1//EN" "http://www.w3.org/Graphics/SVG/1.1/DTD/svg11.dtd" >
<svg xmlns="http://www.w3.org/2000/svg">
<metadata></metadata>
<defs>
<font id="armitageregular" horiz-adv-x="1024" >
<font-face units-per-em="2048" ascent="1638" descent="-410" />
<missing-glyph horiz-adv-x="491" />
<glyph horiz-adv-x="2048" />
<glyph horiz-adv-x="2048" />
<glyph unicode="&#xd;" horiz-adv-x="2048" />
<glyph unicode=" "  horiz-adv-x="491" />
<glyph unicode="&#x09;" horiz-adv-x="491" />
<glyph unicode="&#xa0;" horiz-adv-x="491" />
<glyph unicode="!" horiz-adv-x="638" d="M205 1255v179h229v-179l-59 -802h-111zM211 0v240h217v-240h-217z" />
<glyph unicode="&#x22;" horiz-adv-x="825" d="M182 803v631h148v-631h-148zM496 803v631h147v-631h-147z" />
<glyph unicode="#" horiz-adv-x="1314" d="M31 403l26 125h265l71 340h-262l27 125h262l88 404h129l-88 -404h340l88 404h129l-88 -404h266l-27 -125h-266l-71 -340h264l-27 -125h-264l-86 -403h-129l86 403h-340l-86 -403h-129l86 403h-264zM451 528h340l71 340h-340z" />
<glyph unicode="$" horiz-adv-x="1167" d="M63 248l130 96q74 -97 155 -153t189 -62v487q-81 23 -136.5 43t-119 55t-102 76t-64 103.5t-25.5 140.5q0 176 125.5 276t323.5 109v168h102v-168q278 -20 455 -229l-119 -107q-69 82 -148 127.5t-188 55.5v-496q64 -19 106.5 -32.5t95 -35t86 -43t68.5 -53t54.5 -67.5 t32 -84.5t12.5 -106.5q0 -177 -122.5 -272t-334.5 -101v-151h-102v153q-140 13 -263.5 80t-210.5 191zM266 1047q0 -56 20 -97.5t62 -69.5t83.5 -45t107.5 -36v465q-273 -15 -273 -217zM639 129q132 3 206.5 54.5t74.5 148.5q0 48 -16 86t-40 63t-64.5 46.5t-75 34 t-85.5 26.5v-459z" />
<glyph unicode="%" horiz-adv-x="1906" d="M82 1006q0 195 106 304t267 109t266.5 -109t105.5 -304q0 -196 -105.5 -305t-266.5 -109t-267 109t-106 305zM213 1006q0 -157 66.5 -233.5t175.5 -76.5q108 0 174.5 76t66.5 234q0 157 -66 232t-175 75t-175.5 -75.5t-66.5 -231.5zM414 -20l964 1447h125l-962 -1447 h-127zM1079 391q0 195 106 304.5t267 109.5t267 -109.5t106 -304.5q0 -196 -106 -305t-267 -109t-267 109t-106 305zM1210 391q0 -157 66.5 -233t175.5 -76t175.5 76t66.5 233t-66.5 232t-175.5 75t-175.5 -75.5t-66.5 -231.5z" />
<glyph unicode="&#x26;" horiz-adv-x="1611" d="M51 420q0 92 27 168t68 125.5t101 89.5t114.5 62t119.5 40q-82 140 -82 269q0 135 94.5 209.5t258.5 74.5q144 0 223.5 -74.5t79.5 -205.5q0 -138 -81 -218.5t-241 -125.5l322 -486q83 93 125 228.5t49 277.5h178q0 -147 -68.5 -320t-199.5 -311q37 -48 75 -66t91 -18 q76 0 107 63.5t18 215.5h169q0 -434 -309 -434q-95 0 -162 29.5t-124 99.5q-179 -138 -431 -138q-76 0 -149 15.5t-141 50t-119 85t-82 126.5t-31 168zM246 453q0 -66 21 -122.5t62.5 -102t112.5 -71.5t164 -26q181 0 316 98l-369 562q-51 -15 -90 -31t-82 -44t-71 -62 t-46 -86t-18 -115zM580 1176q0 -59 18.5 -110.5t60.5 -117.5q60 16 100.5 32.5t76 42t52.5 62t17 86.5q0 74 -40 115t-115 41q-77 0 -123.5 -36.5t-46.5 -114.5z" />
<glyph unicode="'" horiz-adv-x="512" d="M182 803v631h148v-631h-148z" />
<glyph unicode="(" horiz-adv-x="722" d="M170 543q0 70 9 144t37.5 177.5t75 199.5t130 204t192.5 198l76 -73q-340 -354 -340 -852q0 -201 86.5 -421.5t257.5 -404.5l-80 -82q-128 112 -220.5 243t-138.5 254.5t-65.5 224t-19.5 188.5z" />
<glyph unicode=")" horiz-adv-x="722" d="M29 -285q171 184 257.5 404.5t86.5 421.5q0 498 -340 852l76 73q109 -90 192.5 -198t130 -204t75 -199.5t37.5 -177.5t9 -144q0 -88 -19.5 -188.5t-65.5 -224t-138.5 -254.5t-220.5 -243z" />
<glyph unicode="*" d="M100 981v147l326 -24l-184 270l129 74l141 -295l141 295l129 -74l-184 -270l326 24v-147l-326 23l184 -269l-129 -73l-141 292l-141 -292l-129 73l184 269z" />
<glyph unicode="+" horiz-adv-x="1159" d="M106 618v156h390v408h163v-408h394v-156h-394v-407h-163v407h-390z" />
<glyph unicode="," horiz-adv-x="581" d="M182 0v240h217v-217q0 -123 -39.5 -189.5t-123.5 -112.5l-52 74q59 38 79 77t20 128h-101z" />
<glyph unicode="-" horiz-adv-x="862" d="M182 498v159h498v-159h-498z" />
<glyph unicode="." horiz-adv-x="581" d="M182 0v240h217v-240h-217z" />
<glyph unicode="/" horiz-adv-x="839" d="M-18 -143l702 1648h143l-702 -1648h-143z" />
<glyph unicode="0" horiz-adv-x="1290" d="M113 698q0 182 40 322t112.5 227t168 130.5t211.5 43.5t211.5 -43.5t168 -130.5t113 -227t40.5 -322q0 -181 -40.5 -321.5t-113 -227.5t-168 -131.5t-211.5 -44.5q-115 0 -211 44.5t-168.5 131.5t-112.5 227.5t-40 321.5zM289 698q0 -289 92.5 -429t263.5 -140t263.5 140 t92.5 429t-92.5 428.5t-263.5 139.5t-263.5 -139.5t-92.5 -428.5z" />
<glyph unicode="1" horiz-adv-x="933" d="M115 1204l360 193h123v-1233h305v-164h-786v164h305v1026l-250 -109z" />
<glyph unicode="2" horiz-adv-x="1150" d="M82 0v154q91 73 194.5 154.5t163 127t127.5 100.5t102.5 86t73 71.5t55 68t32 65.5t20 75t4.5 85q0 132 -76.5 205.5t-197.5 73.5q-279 0 -328 -279l-170 33q38 194 167 297.5t333 103.5q206 0 328 -115t122 -311q0 -69 -12 -128t-35 -111t-63.5 -104t-90 -101 t-123 -108.5t-154 -120.5t-190.5 -142q-15 -10 -22 -16h700v-164h-960z" />
<glyph unicode="3" horiz-adv-x="1134" d="M55 332l172 35q30 -238 314 -238q87 0 154.5 24t111 82.5t43.5 145.5q0 130 -84.5 191t-228.5 61h-129v164h124q161 0 228 54t67 185q0 114 -79 173t-207 59q-251 0 -299 -209l-162 45q35 150 161.5 233.5t309.5 83.5q201 0 327 -108t126 -279q0 -120 -58.5 -202 t-167.5 -113q250 -70 250 -340q0 -190 -131.5 -298t-349.5 -108q-203 0 -334 89.5t-158 269.5z" />
<glyph unicode="4" horiz-adv-x="1138" d="M20 340v158l709 899h195v-897h180v-160h-180v-340h-172v340h-732zM203 500h549v704z" />
<glyph unicode="5" horiz-adv-x="1159" d="M88 326l168 28q10 -63 41 -108.5t77 -70t96.5 -35.5t109.5 -11q64 0 117.5 15t99.5 49.5t72 98t26 152.5q0 71 -20 127t-52 91.5t-76 58.5t-87.5 32t-90.5 9q-121 0 -194.5 -43t-106.5 -111l-162 31l95 758h807v-164h-666l-43 -418q112 94 307 94q92 0 174.5 -28 t148.5 -82.5t105 -144.5t39 -205q0 -121 -39.5 -214.5t-108 -149.5t-154 -84t-185.5 -28q-91 0 -171 19t-150 59t-116.5 110t-60.5 165z" />
<glyph unicode="6" horiz-adv-x="1177" d="M113 635q0 93 10.5 181.5t33.5 179t63.5 165.5t96.5 134.5t137.5 92.5t180.5 33q92 0 167 -23t125.5 -63.5t83.5 -88t52 -105.5l-162 -45q-37 88 -101.5 129t-170.5 41q-61 0 -110 -18t-83 -47t-59.5 -73t-40 -89.5t-24 -104t-13 -108t-4.5 -109.5q45 80 138.5 136 t223.5 56q204 0 320.5 -130t116.5 -343q0 -91 -31 -173t-88.5 -147.5t-149 -104t-204.5 -38.5q-128 0 -226.5 49.5t-159.5 139t-91.5 209t-30.5 264.5zM309 444q0 -129 80.5 -222t224.5 -93q134 0 217.5 81t83.5 224q0 157 -83 240.5t-220 83.5q-136 0 -219.5 -86 t-83.5 -228z" />
<glyph unicode="7" horiz-adv-x="915" d="M20 1233v164h854v-125q-194 -303 -313 -632t-119 -640h-180q20 609 432 1233h-674z" />
<glyph unicode="8" horiz-adv-x="1175" d="M96 383q0 124 68 218.5t186 131.5q-96 42 -153.5 131.5t-57.5 192.5q0 116 63.5 200.5t163.5 124t222 39.5t222 -39.5t163 -124t63 -200.5q0 -103 -57.5 -192.5t-153.5 -131.5q118 -37 186 -131.5t68 -218.5q0 -190 -136.5 -300t-354.5 -110t-355 110t-137 300zM274 387 q0 -120 83 -189t231 -69t230.5 69t82.5 189q0 126 -89 196t-224 70t-224.5 -70t-89.5 -196zM311 1051q0 -113 76.5 -181.5t200.5 -68.5q123 0 199.5 69.5t76.5 178.5q0 111 -73.5 172t-202.5 61q-128 0 -202.5 -62t-74.5 -169z" />
<glyph unicode="9" horiz-adv-x="1177" d="M84 958q0 91 31 173t88.5 147.5t149 104t204.5 38.5q130 0 229 -49.5t159 -139t90 -208t30 -262.5q0 -99 -9.5 -188t-31 -181t-61 -165.5t-95.5 -132t-139 -90.5t-186 -32q-92 0 -167 23t-125.5 63.5t-83 88.5t-52.5 106l161 45q37 -87 102 -128.5t171 -41.5 q70 0 124.5 21.5t90 63t59.5 90.5t36.5 115t17.5 124.5t6 130.5q-43 -78 -135 -132.5t-222 -54.5q-208 0 -325 129t-117 342zM262 961q0 -157 82.5 -240.5t218.5 -83.5t220.5 85.5t84.5 227.5q0 61 -19 117t-55.5 101t-96 71.5t-132.5 26.5q-134 0 -218.5 -81t-84.5 -224z " />
<glyph unicode=":" horiz-adv-x="581" d="M182 0v240h217v-240h-217zM182 641v240h217v-240h-217z" />
<glyph unicode=";" horiz-adv-x="581" d="M182 0v240h217v-217q0 -123 -39.5 -189.5t-123.5 -112.5l-52 74q59 38 79 77t20 128h-101zM182 641v240h217v-240h-217z" />
<glyph unicode="&#x3c;" horiz-adv-x="1191" d="M96 606v182l979 457v-182l-805 -367l805 -366v-183z" />
<glyph unicode="=" horiz-adv-x="1159" d="M106 432v156h947v-156h-947zM106 807v156h947v-156h-947z" />
<glyph unicode="&#x3e;" horiz-adv-x="1191" d="M117 147v183l805 366l-805 367v182l979 -457v-182z" />
<glyph unicode="?" horiz-adv-x="948" d="M14 1116q34 159 149.5 250.5t291.5 91.5q82 0 153.5 -22.5t129.5 -67.5t92 -121t34 -174q0 -68 -21.5 -129.5t-53.5 -106t-82.5 -88.5t-93.5 -72t-101 -61v-221h-172v287q55 28 96.5 52.5t91 62.5t81 76.5t53.5 90.5t22 109q0 117 -62.5 182.5t-179.5 65.5 q-215 0 -264 -238zM317 0v240h218v-240h-218z" />
<glyph unicode="@" horiz-adv-x="1839" d="M111 395q0 175 52.5 326t142 258.5t208.5 184.5t252.5 114t273.5 37q62 0 124 -8t131.5 -29t131.5 -53t119.5 -83t98.5 -116t65.5 -156.5t24.5 -199.5q0 -133 -31 -241t-79 -175t-109.5 -112.5t-120 -64t-113.5 -18.5q-91 0 -140 40.5t-50 121.5q-48 -76 -129 -124 t-187 -48q-32 0 -64.5 8.5t-67 30t-60.5 54t-43 86t-17 120.5q0 98 31 192.5t86 170t138.5 122t181.5 46.5q78 0 138 -39.5t75 -104.5l22 109h123l-111 -514q-12 -59 -12 -94q0 -46 24.5 -65t84.5 -19q42 0 85.5 15.5t89.5 53.5t81.5 94t58 146.5t22.5 202.5 q0 140 -44.5 248t-126.5 176.5t-192.5 103.5t-246.5 35q-113 0 -227 -30t-223 -96.5t-193 -161.5t-135 -235.5t-51 -308.5q0 -118 26.5 -216.5t69.5 -165.5t103.5 -119t122 -82t132 -48.5t127.5 -25t113 -6.5q384 0 680 225l55 -76q-318 -237 -731 -237q-81 0 -158.5 11 t-157.5 36.5t-148.5 64.5t-129.5 99.5t-103.5 136t-67.5 179t-25 224.5zM653 350q0 -180 170 -180q71 0 130 38t94.5 98t55 130t19.5 139q0 86 -41.5 135.5t-126.5 49.5q-64 0 -116.5 -29t-86 -74t-56.5 -101t-32.5 -108t-9.5 -98z" />
<glyph unicode="A" horiz-adv-x="1390" d="M20 0l584 1442h197l573 -1442h-205l-153 397h-647l-154 -397h-195zM432 557h522l-260 678z" />
<glyph unicode="B" horiz-adv-x="1429" d="M190 0v1434h582q496 0 496 -379q0 -76 -22.5 -136t-60.5 -96t-79.5 -56.5t-87.5 -27.5q139 -23 213 -113.5t74 -238.5q0 -93 -26 -162t-70.5 -111.5t-114 -68.5t-146.5 -35.5t-178 -9.5h-580zM377 162h385q56 0 94 2.5t82.5 10.5t73 24.5t53.5 43t37 69t12 98.5 q0 137 -80 190t-243 53h-414v-491zM377 809h383q172 0 248.5 49.5t76.5 183.5q0 59 -16 101t-43 67t-70.5 39t-88 18.5t-107.5 4.5h-383v-463z" />
<glyph unicode="C" horiz-adv-x="1488" d="M129 717q0 178 55 322t150.5 235.5t220 140.5t266.5 49q368 0 572 -295l-142 -100q-147 231 -424 231q-230 0 -365.5 -149t-135.5 -434q0 -146 39 -259.5t108 -183.5t158 -105.5t194 -35.5q142 0 251.5 58t178.5 169l142 -98q-195 -293 -576 -293q-145 0 -270.5 50 t-219.5 143t-148 236t-54 319z" />
<glyph unicode="D" horiz-adv-x="1525" d="M190 0v1434h478q136 0 245.5 -22t202.5 -73.5t155.5 -132t97 -202t34.5 -279.5q0 -725 -713 -725h-500zM381 170h256q68 0 123 4.5t116 19t107 39t89.5 66.5t71.5 99.5t45 140.5t17 186q0 101 -17 181.5t-45 136t-71.5 96.5t-89.5 64.5t-107 37.5t-115.5 18.5t-123.5 4.5 h-256v-1094z" />
<glyph unicode="E" horiz-adv-x="1280" d="M190 0v1434h953v-166h-762v-461h420v-162h-420v-477h788v-168h-979z" />
<glyph unicode="F" horiz-adv-x="1185" d="M190 0v1434h897v-166h-706v-461h412v-166h-412v-641h-191z" />
<glyph unicode="G" horiz-adv-x="1617" d="M129 713q0 145 36 267.5t100 210.5t151 150.5t190 92.5t217 30q191 0 330.5 -68.5t247.5 -217.5l-141 -101q-72 111 -175.5 167t-257.5 56q-230 0 -365.5 -149.5t-135.5 -437.5q0 -272 134 -426t359 -154q199 0 320 125.5t133 351.5h-373v160h553v-770h-121l-24 240 q-73 -133 -202 -202t-304 -69q-134 0 -254.5 50t-214 141.5t-148.5 235t-55 317.5z" />
<glyph unicode="H" horiz-adv-x="1525" d="M190 0v1434h191v-627h764v627h190v-1434h-190v641h-764v-641h-191z" />
<glyph unicode="I" horiz-adv-x="571" d="M190 0v1434h191v-1434h-191z" />
<glyph unicode="J" horiz-adv-x="1003" d="M37 113l113 137q102 -105 241 -105q118 0 180 77t62 261v951h190v-957q0 -134 -31 -233t-87 -156.5t-128 -85t-161 -27.5q-238 0 -379 138z" />
<glyph unicode="K" horiz-adv-x="1327" d="M190 0v1434h191v-701l670 701h233l-541 -566l564 -868h-226l-471 737l-229 -239v-498h-191z" />
<glyph unicode="L" horiz-adv-x="1202" d="M190 0v1434h191v-1266h774v-168h-965z" />
<glyph unicode="M" horiz-adv-x="1929" d="M197 0v1434h252l516 -1125l514 1125h254v-1434h-191v1151l-532 -1151h-101l-536 1159v-1159h-176z" />
<glyph unicode="N" horiz-adv-x="1589" d="M190 0v1434h197l832 -1139v1139h180v-1434h-197l-833 1141v-1141h-179z" />
<glyph unicode="O" horiz-adv-x="1626" d="M129 717q0 176 54.5 319t148 235.5t217 142.5t264.5 50t264.5 -50t217 -142.5t148 -235.5t54.5 -319t-54.5 -319t-148 -236t-217 -143t-264.5 -50t-264.5 50t-217 143t-148 236t-54.5 319zM326 717q0 -140 37 -251.5t103 -184t154.5 -110.5t192.5 -38t192.5 38 t154.5 110.5t103 184t37 251.5t-37 251.5t-103 183.5t-154.5 110t-192.5 38t-192.5 -38t-154.5 -110t-103 -183.5t-37 -251.5z" />
<glyph unicode="P" horiz-adv-x="1400" d="M190 0v1434h572q84 0 154 -10t141.5 -39t121 -76.5t80.5 -127.5t31 -186q0 -101 -30.5 -178.5t-80.5 -126t-122 -80t-147.5 -43.5t-164.5 -12h-364v-555h-191zM381 717h369q178 0 263 61.5t85 216.5q0 154 -84 213.5t-264 59.5h-369v-551z" />
<glyph unicode="Q" horiz-adv-x="1626" d="M129 717q0 176 54.5 319t148 235.5t217 142.5t264.5 50t264.5 -50t217 -142.5t148 -235.5t54.5 -319q0 -164 -47.5 -300t-130 -228.5t-192.5 -148t-238 -67.5q2 -71 63.5 -101t212.5 -30v-174q-122 0 -207.5 22.5t-131.5 64.5t-65.5 92t-19.5 116v10q-129 12 -239.5 67 t-194 147t-131 228.5t-47.5 301.5zM326 717q0 -140 37 -251.5t103 -184t154.5 -110.5t192.5 -38t192.5 38t154.5 110.5t103 184t37 251.5t-37 251.5t-103 183.5t-154.5 110t-192.5 38t-192.5 -38t-154.5 -110t-103 -183.5t-37 -251.5z" />
<glyph unicode="R" horiz-adv-x="1421" d="M190 0v1434h576q84 0 153.5 -10t140.5 -39t120 -76.5t79.5 -127.5t30.5 -186q0 -333 -317 -415l344 -580h-219l-326 557h-391v-557h-191zM381 717h373q177 0 260.5 61.5t83.5 216.5t-82.5 214t-261.5 59h-373v-551z" />
<glyph unicode="S" horiz-adv-x="1300" d="M100 246l138 108q71 -104 187.5 -162.5t244.5 -58.5q72 0 127 10.5t101.5 36t71.5 73t25 116.5q0 60 -29.5 104t-79.5 70.5t-115 46.5t-136.5 37t-143 36.5t-136.5 51.5t-115 75t-79.5 113.5t-29.5 161.5q0 124 69 216t183.5 137.5t257.5 45.5q341 0 547 -239l-133 -117 q-156 192 -410 192q-154 0 -238.5 -60t-84.5 -175q0 -54 24 -94.5t66 -65t97 -45.5t117.5 -33.5t128.5 -30.5t128.5 -36.5t117.5 -51t97 -74t66 -106.5t24 -147q0 -111 -41 -193t-114.5 -128.5t-163.5 -68.5t-199 -22q-177 0 -326 69t-244 208z" />
<glyph unicode="T" horiz-adv-x="1157" d="M35 1268v166h1087v-166h-448v-1268h-191v1268h-448z" />
<glyph unicode="U" horiz-adv-x="1474" d="M176 551v883h191v-881q0 -226 98 -325t280 -99q84 0 149.5 23t117 73t79 136t27.5 204v869h180v-852q0 -141 -30.5 -249t-81 -176t-125 -110.5t-155 -59t-177.5 -16.5q-82 0 -154.5 14t-147.5 54t-129 102.5t-88 167.5t-34 242z" />
<glyph unicode="V" horiz-adv-x="1368" d="M25 1434h198l471 -1211l461 1211h188l-567 -1442h-184z" />
<glyph unicode="W" horiz-adv-x="2043" d="M66 1434h194l324 -1135l377 1135h135l374 -1139l324 1139h184l-419 -1434h-181l-358 1081l-356 -1081h-181z" />
<glyph unicode="X" horiz-adv-x="1280" d="M53 0l473 727l-456 707h219l350 -553l356 553h201l-453 -697l482 -737h-224l-370 584l-371 -584h-207z" />
<glyph unicode="Y" horiz-adv-x="1236" d="M18 1434h218l387 -652l395 652h199l-506 -826v-608h-191v606z" />
<glyph unicode="Z" horiz-adv-x="1325" d="M86 0v141l868 1121h-839v172h1093v-144l-862 -1116h887v-174h-1147z" />
<glyph unicode="[" horiz-adv-x="694" d="M195 -379v1831h458v-131h-299v-1569h299v-131h-458z" />
<glyph unicode="\" horiz-adv-x="808" d="M12 1505h144l702 -1648h-143z" />
<glyph unicode="]" horiz-adv-x="694" d="M41 -248h299v1569h-299v131h459v-1831h-459v131z" />
<glyph unicode="^" horiz-adv-x="1103" d="M109 811l358 606h170l358 -606h-159l-285 410l-283 -410h-159z" />
<glyph unicode="_" d="M0 -100h1024v-127h-1024v127z" />
<glyph unicode="`" d="M205 1372h223l160 -332h-146z" />
<glyph unicode="a" horiz-adv-x="1069" d="M78 244q0 55 17.5 101t47.5 79.5t78 60t99.5 44.5t122 31.5t136 22t150.5 15.5v37q0 186 -199 186q-167 0 -258 -155l-127 79q124 203 400 203q360 0 360 -368v-379q0 -52 13 -73.5t47 -21.5q27 0 45 7v-109q-40 -14 -90 -14q-79 0 -126 40.5t-51 116.5 q-40 -80 -123.5 -126t-205.5 -46q-149 0 -242.5 67t-93.5 202zM266 258q0 -72 44.5 -112t135.5 -40q123 0 203 74t80 215v86q-104 -8 -180 -21.5t-144 -38t-103.5 -65.5t-35.5 -98z" />
<glyph unicode="b" horiz-adv-x="1148" d="M166 0v1434h176v-646q46 75 128 115.5t181 40.5q178 0 292 -126t114 -355q0 -231 -114 -356t-296 -125q-105 0 -190.5 45t-130.5 135l-21 -162h-139zM338 463q0 -154 66.5 -249t199.5 -95q122 0 193 86t71 258q0 173 -71 258.5t-193 85.5q-133 0 -199.5 -95t-66.5 -249z " />
<glyph unicode="c" horiz-adv-x="1017" d="M86 463q0 235 130 361t341 126q128 0 223.5 -43.5t167.5 -156.5l-125 -82q-88 147 -258 147q-135 0 -217 -89.5t-82 -262.5q0 -172 84 -261t217 -89q184 0 269 141l110 -76q-140 -203 -393 -203q-205 0 -336 127t-131 361z" />
<glyph unicode="d" horiz-adv-x="1148" d="M92 463q0 229 114 355t292 126q97 0 178.5 -40.5t130.5 -115.5v646h176v-1434h-139l-21 162q-45 -90 -131 -135t-190 -45q-182 0 -296 125t-114 356zM281 463q0 -172 71 -258t193 -86q133 0 199.5 95t66.5 249t-66.5 249t-199.5 95q-122 0 -193 -85.5t-71 -258.5z" />
<glyph unicode="e" horiz-adv-x="1087" d="M86 457q0 121 36.5 216t101.5 155t151 91t188 31q93 0 173 -28.5t142 -84t97 -146.5t35 -208q0 -33 -4 -49h-734q6 -171 87 -247t210 -76q103 0 174.5 44.5t120.5 143.5l123 -66q-62 -113 -166.5 -185.5t-255.5 -72.5q-99 0 -184.5 29.5t-152 87t-104.5 151.5t-38 214z M279 573h544q-33 242 -268 242q-117 0 -186.5 -65.5t-89.5 -176.5z" />
<glyph unicode="f" horiz-adv-x="628" d="M55 788v138h142v217q0 168 71 242.5t219 74.5q69 0 105 -12v-133q-31 8 -76 8q-72 0 -109.5 -32t-37.5 -122v-243h204v-138h-204v-788h-172v788h-142z" />
<glyph unicode="g" horiz-adv-x="1148" d="M92 477q0 118 33 209.5t90.5 146.5t129 83t153.5 28q98 0 179.5 -39t129.5 -114v135h176v-914q0 -397 -436 -397q-174 0 -273.5 52.5t-164.5 156.5l129 88q28 -44 49 -69t56.5 -50.5t84.5 -37t117 -11.5q41 0 70.5 3.5t69 19t65 43.5t43.5 81.5t18 128.5v152 q-46 -75 -127.5 -116.5t-185.5 -41.5q-84 0 -156 28.5t-128.5 84t-89 145.5t-32.5 205zM281 479q0 -72 15 -129t40.5 -94t60.5 -61.5t72 -34.5t78 -10q115 0 189.5 85t74.5 248q0 84 -22 148.5t-59.5 102.5t-83.5 56.5t-99 18.5q-52 0 -97 -17t-84.5 -53t-62 -102.5 t-22.5 -157.5z" />
<glyph unicode="h" horiz-adv-x="1155" d="M166 0v1434h176v-674q86 186 326 186q164 0 246.5 -96.5t82.5 -263.5v-586h-176v530q0 140 -47 209.5t-162 69.5q-81 0 -140.5 -43.5t-92.5 -122.5q-37 -88 -37 -250v-393h-176z" />
<glyph unicode="i" horiz-adv-x="507" d="M162 1110v236h184v-236h-184zM166 0v926h176v-926h-176z" />
<glyph unicode="j" horiz-adv-x="507" d="M-2 -215q30 -6 74 -6q47 0 70.5 31.5t23.5 103.5v1012h176v-1030q0 -77 -17 -129t-51 -79.5t-74.5 -38.5t-97.5 -11q-52 0 -104 10v137zM162 1110v236h184v-236h-184z" />
<glyph unicode="k" horiz-adv-x="1048" d="M166 0v1434h176v-940l446 432h222l-353 -346l375 -580h-209l-299 467l-182 -178v-289h-176z" />
<glyph unicode="l" horiz-adv-x="507" d="M166 0v1434h176v-1434h-176z" />
<glyph unicode="m" horiz-adv-x="1759" d="M166 0v926h176v-187q32 94 113.5 150.5t199.5 56.5q232 0 297 -215q58 112 136 163.5t198 51.5q160 0 239 -99.5t79 -279.5v-567h-177v530q0 140 -43.5 209.5t-150.5 69.5q-79 0 -137.5 -48t-85.5 -118q-24 -61 -30.5 -114.5t-6.5 -127.5v-401h-176v530 q0 140 -43.5 209.5t-151.5 69.5q-78 0 -137 -48.5t-86 -117.5q-24 -61 -30.5 -114.5t-6.5 -127.5v-401h-176z" />
<glyph unicode="n" horiz-adv-x="1155" d="M166 0v926h176v-166q86 186 326 186q164 0 246.5 -96.5t82.5 -263.5v-586h-176v530q0 140 -47 209.5t-162 69.5q-81 0 -140.5 -43.5t-92.5 -122.5q-37 -88 -37 -250v-393h-176z" />
<glyph unicode="o" horiz-adv-x="1110" d="M86 463q0 118 36.5 212t100.5 153.5t148.5 90.5t183.5 31t183.5 -31t148.5 -90.5t100.5 -153.5t36.5 -212t-36.5 -212t-100.5 -154t-148.5 -91t-183.5 -31q-203 0 -336 127.5t-133 360.5zM274 463q0 -171 79.5 -261.5t201.5 -90.5t201.5 90.5t79.5 261.5t-79.5 261.5 t-201.5 90.5t-201.5 -90.5t-79.5 -261.5z" />
<glyph unicode="p" horiz-adv-x="1148" d="M166 -358v1284h176v-138q46 75 128 115.5t181 40.5q178 0 292 -126t114 -355q0 -231 -114 -356t-296 -125q-98 0 -178 40.5t-127 114.5v-495h-176zM338 463q0 -154 66.5 -249t199.5 -95q122 0 193 86t71 258q0 173 -71 258.5t-193 85.5q-133 0 -199.5 -95t-66.5 -249z " />
<glyph unicode="q" horiz-adv-x="1148" d="M92 463q0 229 114 355t292 126q97 0 178.5 -40.5t130.5 -115.5v138h176v-1284h-176v495q-47 -74 -127 -114.5t-178 -40.5q-182 0 -296 125t-114 356zM281 463q0 -172 71 -258t193 -86q133 0 199.5 95t66.5 249t-66.5 249t-199.5 95q-122 0 -193 -85.5t-71 -258.5z" />
<glyph unicode="r" horiz-adv-x="677" d="M166 0v926h174v-191q19 51 45.5 88t54.5 59t64 35.5t68 18.5t73 6v-190q-16 2 -43 2q-125 0 -194 -78q-68 -77 -68 -217v-459h-174z" />
<glyph unicode="s" horiz-adv-x="892" d="M68 133l102 107q48 -55 126.5 -92t168.5 -37q77 0 126.5 29t49.5 91q0 43 -31 73t-80.5 47t-109.5 32.5t-119.5 37t-109 52.5t-80.5 86.5t-31 132.5q0 119 103.5 188.5t258.5 69.5q247 0 381 -147l-102 -103q-51 58 -117 86.5t-160 28.5q-182 0 -182 -113q0 -33 19.5 -58 t52 -41t74.5 -29.5t89 -26t93.5 -27.5t88.5 -38t74.5 -53t52 -77t19.5 -106q0 -126 -102.5 -198.5t-259.5 -72.5q-117 0 -222 42.5t-173 115.5z" />
<glyph unicode="t" horiz-adv-x="636" d="M45 788v138h145l33 288h137v-288h195v-138h-195v-567q0 -60 25 -82t76 -22q28 0 82 8v-129q-59 -16 -131 -16q-33 0 -62 5t-59.5 20t-52.5 38.5t-36 63.5t-14 92v589h-143z" />
<glyph unicode="u" horiz-adv-x="1144" d="M158 340v586h176v-531q0 -140 45.5 -209t157.5 -69q75 0 134 42t93 120q39 91 39 253v394h176v-926h-172v174q-86 -194 -330 -194q-159 0 -239 96.5t-80 263.5z" />
<glyph unicode="v" horiz-adv-x="946" d="M18 926h189l272 -733l277 733h172l-365 -932h-180z" />
<glyph unicode="w" horiz-adv-x="1409" d="M29 926h176l207 -705l229 705h139l213 -711l230 711h163l-303 -926h-194l-195 625l-198 -625h-183z" />
<glyph unicode="x" horiz-adv-x="872" d="M37 0l305 467l-295 459h201l198 -318l197 318h184l-288 -443l317 -483h-205l-213 344l-213 -344h-188z" />
<glyph unicode="y" horiz-adv-x="946" d="M18 926h189l274 -738l275 738h172l-430 -1096q-42 -110 -100.5 -160.5t-176.5 -50.5q-79 0 -143 12v146q71 -23 139 -23q48 0 80 23.5t57 87.5l39 102z" />
<glyph unicode="z" horiz-adv-x="946" d="M94 0v115l520 655h-510v156h740v-123l-516 -647h530v-156h-764z" />
<glyph unicode="{" horiz-adv-x="724" d="M98 481v144q73 0 100 39.5t27 138.5v411q0 112 57.5 175t168.5 63h233v-131h-166q-81 0 -107 -37t-26 -117v-409q0 -92 -21.5 -139.5t-74.5 -65.5q53 -18 74.5 -65.5t21.5 -139.5v-442q0 -80 26 -117t107 -37h166v-131h-233q-111 0 -168.5 63t-57.5 175v444 q0 99 -27 138.5t-100 39.5z" />
<glyph unicode="|" horiz-adv-x="544" d="M199 -391v1927h147v-1927h-147z" />
<glyph unicode="}" horiz-adv-x="724" d="M41 -248h166q81 0 107 37t26 117v442q0 92 21.5 139.5t74.5 65.5q-53 18 -74.5 65.5t-21.5 139.5v409q0 80 -26 117t-107 37h-166v131h233q111 0 168.5 -63t57.5 -175v-411q0 -99 27 -138.5t100 -39.5v-144q-73 0 -100 -39.5t-27 -138.5v-444q0 -112 -57.5 -175 t-168.5 -63h-233v131z" />
<glyph unicode="~" horiz-adv-x="1212" d="M106 678q100 217 287 217q86 0 227 -39t211 -39q56 0 91.5 29t68.5 88l115 -60q-100 -217 -287 -217q-86 0 -227 39t-211 39q-56 0 -91.5 -29t-68.5 -88z" />
<glyph unicode="&#xa1;" horiz-adv-x="638" d="M205 0v178l59 803h111l59 -803v-178h-229zM211 1194v240h217v-240h-217z" />
<glyph unicode="&#xa2;" horiz-adv-x="739" d="M55 1063q0 151 78 241.5t207 108.5v111h111v-111q153 -16 237 -147l-92 -60q-32 52 -77 77.5t-116 25.5q-96 0 -153 -62t-57 -184t56.5 -183t149.5 -61q72 0 119 24.5t86 74.5l84 -74q-97 -115 -237 -133v-109h-111v111q-128 18 -206.5 109t-78.5 241z" />
<glyph unicode="&#xa3;" horiz-adv-x="1202" d="M4 143q0 68 54.5 112t144.5 44q70 0 153 -39q6 41 6 88q0 118 -53 248h-192v125h139q-80 175 -80 313q0 122 60 210.5t159.5 131.5t225.5 43q98 0 176.5 -24.5t129.5 -64.5t86.5 -96t51.5 -114t20 -123l-178 -14q-19 295 -282 295q-131 0 -201 -71.5t-70 -188.5 q0 -57 11 -113.5t22.5 -90.5t34.5 -93h315v-125h-272q29 -107 29 -201q0 -96 -29 -194q72 -41 127.5 -62.5t116.5 -21.5q135 0 181.5 60.5t43.5 205.5h153q13 -76 13 -109q0 -149 -97.5 -221.5t-265.5 -72.5q-104 0 -178 29t-147 81q-74 -108 -209 -108q-36 0 -68 7.5 t-63 24.5t-49.5 50t-18.5 79zM102 137q0 -32 25.5 -53t71.5 -21q89 0 131 89q-79 51 -140 51q-42 0 -65 -17.5t-23 -48.5z" />
<glyph unicode="&#xa5;" horiz-adv-x="1118" d="M-10 1397h200l377 -633l381 633h180l-444 -725h334v-111h-371v-151h371v-111h-371v-299h-176v299h-371v111h371v151h-371v111h330z" />
<glyph unicode="&#xa6;" horiz-adv-x="544" d="M199 -389v854h147v-854h-147zM199 682v854h147v-854h-147z" />
<glyph unicode="&#xa7;" horiz-adv-x="976" d="M94 72l107 106q52 -56 122.5 -87.5t149.5 -31.5q109 0 162 41t53 101q0 38 -20 67.5t-53.5 49.5t-76.5 36.5t-91.5 32t-96.5 32.5t-91 42t-76.5 57t-53.5 80t-20 109q0 150 137 235q-127 81 -127 236q0 139 101.5 218t289.5 79q109 0 209.5 -42.5t163.5 -115.5l-107 -107 q-52 56 -122.5 87.5t-149.5 31.5q-109 0 -162 -40.5t-53 -100.5q0 -38 20 -67.5t53.5 -49.5t76.5 -36.5t91.5 -32t96.5 -32.5t91 -42t76.5 -57t53.5 -80t20 -109q0 -148 -139 -238q129 -80 129 -233q0 -139 -101.5 -218t-289.5 -79q-109 0 -209.5 42.5t-163.5 115.5z M270 745q0 -41 16.5 -73.5t40.5 -53.5t64.5 -40.5t74.5 -30.5t85.5 -28t83.5 -30q72 68 72 154q0 40 -16.5 73t-40 53.5t-65 40t-74.5 30.5t-86.5 28t-84.5 29q-70 -66 -70 -152z" />
<glyph unicode="&#xa8;" d="M236 1100v215h184v-215h-184zM604 1100v215h184v-215h-184z" />
<glyph unicode="&#xa9;" horiz-adv-x="1716" d="M113 717q0 157 57.5 295t156.5 235.5t236.5 154t292.5 56.5q206 0 377 -95.5t271 -266t100 -379.5q0 -210 -100 -380.5t-271 -266t-377 -95.5q-207 0 -377 95.5t-268 266t-98 380.5zM209 717q0 -136 50.5 -257t137 -207.5t206 -136.5t253.5 -50q179 0 328 85t236 235 t87 331t-87 331t-236 235t-328 85q-134 0 -253.5 -50t-206 -136.5t-137 -207.5t-50.5 -257zM508 705q0 180 100.5 280t259.5 100q198 0 299 -151l-90 -74q-65 117 -211 117q-94 0 -153.5 -70t-59.5 -202q0 -133 59.5 -203t153.5 -70q142 0 211 121l97 -76 q-108 -151 -306 -151q-158 0 -259 99.5t-101 279.5z" />
<glyph unicode="&#xaa;" horiz-adv-x="851" d="M74 907q0 68 36 117t104 78t150 44t189 21v27q0 133 -152 133q-68 0 -110.5 -28t-73.5 -80l-96 55q88 151 282 151q138 0 209.5 -65.5t71.5 -208.5v-266q0 -72 41 -72q17 0 33 4v-82q-33 -10 -72 -10q-108 0 -125 111q-33 -55 -100 -90t-158 -35q-95 0 -162 49.5 t-67 146.5zM102 487v107h637v-107h-637zM203 924q0 -55 33 -86t96 -31q83 0 152 54.5t69 144.5v77q-89 -7 -148.5 -17t-107.5 -28t-71 -46t-23 -68z" />
<glyph unicode="&#xab;" horiz-adv-x="911" d="M31 461l297 389h159l-270 -391l264 -387h-151zM426 461l297 389h160l-271 -391l265 -387h-152z" />
<glyph unicode="&#xad;" horiz-adv-x="862" d="M182 498v159h498v-159h-498z" />
<glyph unicode="&#xae;" horiz-adv-x="897" d="M63 1075q0 160 113 272.5t273 112.5t272.5 -112.5t112.5 -272.5t-112.5 -272.5t-272.5 -112.5t-273 112.5t-113 272.5zM123 1075q0 -135 95.5 -230t230.5 -95t230 95t95 230t-95 230.5t-230 95.5t-230.5 -95.5t-95.5 -230.5zM283 862v432h180q168 0 168 -133 q0 -51 -25.5 -82t-62.5 -43l90 -174h-88l-78 164h-102v-164h-82zM365 1087h92q45 0 68.5 16t23.5 56q0 38 -24 53t-68 15h-92v-140z" />
<glyph unicode="&#xaf;" d="M236 1133v147h552v-147h-552z" />
<glyph unicode="&#xb0;" horiz-adv-x="860" d="M66 1090q0 155 106 258.5t258 103.5t258.5 -103.5t106.5 -258.5t-106.5 -259t-258.5 -104t-258 104t-106 259zM209 1090q0 -104 63.5 -167t157.5 -63t157.5 63t63.5 167q0 103 -63 166t-158 63t-158 -63t-63 -166z" />
<glyph unicode="&#xb1;" horiz-adv-x="1159" d="M106 0v156h947v-156h-947zM106 659v156h390v408h163v-408h394v-156h-394v-407h-163v407h-390z" />
<glyph unicode="&#xb2;" horiz-adv-x="735" d="M43 686v96l104 80q224 170 282 224q81 77 96 146q5 25 5 54q0 78 -46.5 124t-123.5 46q-163 0 -194 -172l-123 25q25 125 107.5 192.5t209.5 67.5q138 0 217.5 -78t79.5 -207q0 -54 -14 -99.5t-36.5 -83t-70 -82.5t-94 -82t-129.5 -99l-45 -33h402v-119h-627z" />
<glyph unicode="&#xb3;" horiz-adv-x="731" d="M45 897l123 27q28 -150 188 -150q80 0 131.5 35t51.5 109q0 76 -51 114.5t-134 38.5h-90v113h86q94 0 134 31.5t40 103.5q0 70 -46 103.5t-120 33.5q-151 0 -180 -131l-117 33q23 99 104.5 155t196.5 56q127 0 208 -69.5t81 -178.5q0 -71 -31.5 -121.5t-89.5 -73.5 q136 -53 136 -211q0 -121 -83 -187t-223 -66q-267 0 -315 235z" />
<glyph unicode="&#xb4;" d="M436 1040l160 332h223l-237 -332h-146z" />
<glyph unicode="&#xb6;" horiz-adv-x="1069" d="M63 1053q0 99 34 174.5t91.5 119.5t126 65.5t144.5 21.5h575v-117h-145v-1317h-127v1317h-121v-1317h-129v664h-47q-80 0 -151.5 25.5t-128 72.5t-89.5 122.5t-33 168.5z" />
<glyph unicode="&#xb7;" horiz-adv-x="581" d="M182 578v239h217v-239h-217z" />
<glyph unicode="&#xb8;" d="M328 -344l45 86q53 -35 127 -35q58 0 83 17.5t25 54.5q0 67 -137 67q-27 0 -47 -4l37 158h82l-17 -82q188 0 191 -141q0 -78 -53.5 -121t-159.5 -43q-101 0 -176 43z" />
<glyph unicode="&#xb9;" horiz-adv-x="608" d="M82 1425l227 121h88v-741h185v-119h-496v119h184v592l-145 -64z" />
<glyph unicode="&#xba;" horiz-adv-x="839" d="M80 1069q0 167 97 260.5t243 93.5q145 0 242.5 -94t97.5 -260q0 -165 -97.5 -259.5t-242.5 -94.5q-146 0 -243 94t-97 260zM109 487v107h622v-107h-622zM219 1069q0 -121 56.5 -184.5t144.5 -63.5q87 0 144 64t57 184q0 122 -57 186t-144 64q-88 0 -144.5 -64t-56.5 -186 z" />
<glyph unicode="&#xbb;" horiz-adv-x="911" d="M29 850h159l297 -389l-299 -389h-151l264 387zM424 850h160l297 -389l-299 -389h-152l264 387z" />
<glyph unicode="&#xbc;" horiz-adv-x="1769" d="M131 1307l227 120h88v-741h185v-119h-496v119h184v592l-145 -64zM332 -20l964 1447h125l-962 -1447h-127zM989 205v108l430 547h133v-538h109v-117h-109v-205h-125v205h-438zM1130 322h297v383z" />
<glyph unicode="&#xbd;" horiz-adv-x="1875" d="M131 1307l227 120h88v-741h185v-119h-496v119h184v592l-145 -64zM330 -20l964 1447h125l-962 -1447h-127zM1114 0v96l105 80q224 170 282 224q81 77 96 146q5 24 5 54q0 78 -46.5 124t-123.5 46q-164 0 -195 -172l-123 25q25 125 108 192.5t210 67.5q138 0 217.5 -78 t79.5 -207q0 -45 -8 -82.5t-29 -74t-44.5 -66.5t-68.5 -69t-85.5 -71t-109.5 -83l-45 -33h402v-119h-627z" />
<glyph unicode="&#xbe;" horiz-adv-x="1837" d="M88 778l123 27q28 -150 188 -150q80 0 131.5 35t51.5 109q0 76 -51 114.5t-134 38.5h-90v113h86q94 0 134 31.5t40 103.5q0 70 -46 103.5t-120 33.5q-151 0 -180 -131l-117 33q23 99 105 155t197 56q127 0 207.5 -69.5t80.5 -178.5q0 -71 -31.5 -121t-89.5 -73 q136 -53 136 -211q0 -121 -83.5 -187.5t-222.5 -66.5q-267 0 -315 235zM399 -20l965 1447h125l-963 -1447h-127zM1057 205v108l430 547h133v-538h109v-117h-109v-205h-125v205h-438zM1198 322h297v383z" />
<glyph unicode="&#xbf;" horiz-adv-x="948" d="M84 360q0 68 21.5 129.5t53.5 106t82.5 88.5t93.5 72t101 61v221h172v-286q-55 -28 -96.5 -52.5t-91 -63t-81.5 -77t-53.5 -90.5t-21.5 -109q0 -117 62.5 -182t179.5 -65q216 0 264 237l164 -33q-34 -159 -149 -250.5t-291 -91.5q-82 0 -153.5 22.5t-130 67.5t-92.5 121 t-34 174zM414 1194v240h217v-240h-217z" />
<glyph unicode="&#xc0;" horiz-adv-x="1390" d="M20 0l584 1442h197l573 -1442h-205l-153 397h-647l-154 -397h-195zM393 1876h228l151 -311h-154zM432 557h522l-260 678z" />
<glyph unicode="&#xc1;" horiz-adv-x="1390" d="M20 0l584 1442h197l573 -1442h-205l-153 397h-647l-154 -397h-195zM432 557h522l-260 678zM625 1563l151 311h228l-226 -311h-153z" />
<glyph unicode="&#xc2;" horiz-adv-x="1390" d="M20 0l584 1442h197l573 -1442h-205l-153 397h-647l-154 -397h-195zM408 1565l190 311h205l190 -311h-147l-146 186l-145 -186h-147zM432 557h522l-260 678z" />
<glyph unicode="&#xc3;" horiz-adv-x="1390" d="M20 0l584 1442h197l573 -1442h-205l-153 397h-647l-154 -397h-195zM350 1634q40 213 225 213q50 0 90.5 -16.5t63 -36.5t52.5 -36.5t61 -16.5q38 0 59.5 20t38.5 74l111 -27q-12 -62 -36.5 -106t-56.5 -66t-64.5 -31.5t-68.5 -9.5q-41 0 -74.5 11t-56 26.5t-42.5 31.5 t-43.5 27t-49.5 11q-38 0 -59.5 -20t-38.5 -74zM432 557h522l-260 678z" />
<glyph unicode="&#xc4;" horiz-adv-x="1390" d="M20 0l584 1442h197l573 -1442h-205l-153 397h-647l-154 -397h-195zM399 1610v221h201v-221h-201zM432 557h522l-260 678zM801 1610v221h200v-221h-200z" />
<glyph unicode="&#xc5;" horiz-adv-x="1390" d="M20 0l584 1442h197l573 -1442h-205l-153 397h-647l-154 -397h-195zM432 557h522l-260 678zM494 1720q0 86 60.5 144.5t145.5 58.5t146 -58.5t61 -144.5q0 -85 -60.5 -143.5t-146.5 -58.5q-85 0 -145.5 58t-60.5 144zM588 1720q0 -49 32 -81.5t80 -32.5t80.5 32.5 t32.5 81.5t-32.5 82t-80.5 33q-47 0 -79.5 -33t-32.5 -82z" />
<glyph unicode="&#xc6;" horiz-adv-x="1822" d="M10 0l615 1434h1040v-162h-747l61 -465h440v-162h-420l64 -477h649v-168h-815l-45 354h-510l-147 -354h-185zM401 498h433l-99 796z" />
<glyph unicode="&#xc7;" horiz-adv-x="1488" d="M129 717q0 178 55 322t150.5 235.5t220 140.5t266.5 49q368 0 572 -295l-142 -100q-147 231 -424 231q-230 0 -365.5 -149t-135.5 -434q0 -146 39 -259.5t108 -183.5t158 -105.5t194 -35.5q142 0 251.5 58t178.5 169l142 -98q-187 -280 -543 -291l-10 -55 q95 0 146.5 -32.5t51.5 -112.5q0 -81 -56.5 -124.5t-168.5 -43.5q-108 0 -194 47l49 92q58 -39 143 -39q107 0 107 70q0 69 -127 69q-38 0 -58 -4l31 133q-136 9 -252 62.5t-202.5 146t-135.5 230.5t-49 307z" />
<glyph unicode="&#xc8;" horiz-adv-x="1280" d="M190 0v1434h953v-166h-762v-461h420v-162h-420v-477h788v-168h-979zM381 1876h227l152 -311h-154z" />
<glyph unicode="&#xc9;" horiz-adv-x="1280" d="M190 0v1434h953v-166h-762v-461h420v-162h-420v-477h788v-168h-979zM612 1563l152 311h227l-225 -311h-154z" />
<glyph unicode="&#xca;" horiz-adv-x="1280" d="M190 0v1434h953v-166h-762v-461h420v-162h-420v-477h788v-168h-979zM395 1565l191 311h205l190 -311h-147l-146 186l-145 -186h-148z" />
<glyph unicode="&#xcb;" horiz-adv-x="1280" d="M190 0v1434h953v-166h-762v-461h420v-162h-420v-477h788v-168h-979zM387 1610v221h201v-221h-201zM788 1610v221h201v-221h-201z" />
<glyph unicode="&#xcc;" horiz-adv-x="571" d="M-23 1876h228l151 -311h-153zM190 0v1434h191v-1434h-191z" />
<glyph unicode="&#xcd;" horiz-adv-x="571" d="M190 0v1434h191v-1434h-191zM209 1563l151 311h228l-226 -311h-153z" />
<glyph unicode="&#xce;" horiz-adv-x="571" d="M-8 1565l190 311h205l191 -311h-148l-145 186l-146 -186h-147zM190 0v1434h191v-1434h-191z" />
<glyph unicode="&#xcf;" horiz-adv-x="571" d="M-16 1610v221h200v-221h-200zM190 0v1434h191v-1434h-191zM385 1610v221h201v-221h-201z" />
<glyph unicode="&#xd0;" horiz-adv-x="1525" d="M23 645v162h167v627h478q136 0 245.5 -22t202.5 -73.5t155.5 -132t97 -202t34.5 -279.5q0 -725 -713 -725h-500v645h-167zM381 170h256q68 0 123 4.5t116 19t107 39t89.5 66.5t71.5 99.5t45 140.5t17 186q0 101 -17 181.5t-45 136t-71.5 96.5t-89.5 64.5t-107 37.5 t-115.5 18.5t-123.5 4.5h-256v-457h369v-162h-369v-475z" />
<glyph unicode="&#xd1;" horiz-adv-x="1589" d="M190 0v1434h197l832 -1139v1139h180v-1434h-197l-833 1141v-1141h-179zM444 1634q12 62 36.5 106t56.5 66t64.5 31.5t68.5 9.5q50 0 90.5 -16.5t62.5 -36.5t52 -36.5t61 -16.5q38 0 59.5 20t38.5 74l111 -27q-40 -213 -225 -213q-41 0 -74.5 11t-56 26.5t-42.5 31.5 t-44 27t-50 11q-38 0 -59.5 -20t-38.5 -74z" />
<glyph unicode="&#xd2;" horiz-adv-x="1626" d="M129 717q0 176 54.5 319t148 235.5t217 142.5t264.5 50t264.5 -50t217 -142.5t148 -235.5t54.5 -319t-54.5 -319t-148 -236t-217 -143t-264.5 -50t-264.5 50t-217 143t-148 236t-54.5 319zM326 717q0 -140 37 -251.5t103 -184t154.5 -110.5t192.5 -38t192.5 38 t154.5 110.5t103 184t37 251.5t-37 251.5t-103 183.5t-154.5 110t-192.5 38t-192.5 -38t-154.5 -110t-103 -183.5t-37 -251.5zM506 1876h227l152 -311h-154z" />
<glyph unicode="&#xd3;" horiz-adv-x="1626" d="M129 717q0 176 54.5 319t148 235.5t217 142.5t264.5 50t264.5 -50t217 -142.5t148 -235.5t54.5 -319t-54.5 -319t-148 -236t-217 -143t-264.5 -50t-264.5 50t-217 143t-148 236t-54.5 319zM326 717q0 -140 37 -251.5t103 -184t154.5 -110.5t192.5 -38t192.5 38 t154.5 110.5t103 184t37 251.5t-37 251.5t-103 183.5t-154.5 110t-192.5 38t-192.5 -38t-154.5 -110t-103 -183.5t-37 -251.5zM737 1563l152 311h227l-225 -311h-154z" />
<glyph unicode="&#xd4;" horiz-adv-x="1626" d="M129 717q0 176 54.5 319t148 235.5t217 142.5t264.5 50t264.5 -50t217 -142.5t148 -235.5t54.5 -319t-54.5 -319t-148 -236t-217 -143t-264.5 -50t-264.5 50t-217 143t-148 236t-54.5 319zM326 717q0 -140 37 -251.5t103 -184t154.5 -110.5t192.5 -38t192.5 38 t154.5 110.5t103 184t37 251.5t-37 251.5t-103 183.5t-154.5 110t-192.5 38t-192.5 -38t-154.5 -110t-103 -183.5t-37 -251.5zM520 1565l191 311h204l191 -311h-148l-145 186l-145 -186h-148z" />
<glyph unicode="&#xd5;" horiz-adv-x="1626" d="M129 717q0 176 54.5 319t148 235.5t217 142.5t264.5 50t264.5 -50t217 -142.5t148 -235.5t54.5 -319t-54.5 -319t-148 -236t-217 -143t-264.5 -50t-264.5 50t-217 143t-148 236t-54.5 319zM326 717q0 -140 37 -251.5t103 -184t154.5 -110.5t192.5 -38t192.5 38 t154.5 110.5t103 184t37 251.5t-37 251.5t-103 183.5t-154.5 110t-192.5 38t-192.5 -38t-154.5 -110t-103 -183.5t-37 -251.5zM463 1634q40 213 225 213q50 0 90.5 -16.5t62.5 -36.5t52 -36.5t61 -16.5q39 0 60.5 20t38.5 74l110 -27q-40 -213 -225 -213q-41 0 -74.5 11 t-56 26.5t-42.5 31.5t-43.5 27t-49.5 11q-39 0 -60.5 -20t-38.5 -74z" />
<glyph unicode="&#xd6;" horiz-adv-x="1626" d="M129 717q0 176 54.5 319t148 235.5t217 142.5t264.5 50t264.5 -50t217 -142.5t148 -235.5t54.5 -319t-54.5 -319t-148 -236t-217 -143t-264.5 -50t-264.5 50t-217 143t-148 236t-54.5 319zM326 717q0 -140 37 -251.5t103 -184t154.5 -110.5t192.5 -38t192.5 38 t154.5 110.5t103 184t37 251.5t-37 251.5t-103 183.5t-154.5 110t-192.5 38t-192.5 -38t-154.5 -110t-103 -183.5t-37 -251.5zM512 1610v221h201v-221h-201zM913 1610v221h201v-221h-201z" />
<glyph unicode="&#xd7;" horiz-adv-x="1159" d="M109 406l346 290l-346 291l102 123l369 -309l368 309l103 -123l-346 -291l346 -290l-103 -123l-368 309l-369 -309z" />
<glyph unicode="&#xd8;" horiz-adv-x="1626" d="M129 717q0 176 54.5 319t148 235.5t217 142.5t264.5 50q160 0 291 -61l55 100h176l-100 -180q124 -97 193 -251t69 -355q0 -176 -54.5 -319t-148 -236t-217 -143t-264.5 -50q-150 0 -293 62l-51 -94h-176l96 174q-123 97 -191.5 251t-68.5 355zM326 717q0 -292 151 -449 l545 987q-96 45 -209 45q-104 0 -192.5 -38t-154.5 -110t-103 -183.5t-37 -251.5zM602 178q95 -45 211 -45q104 0 192.5 38t154.5 110.5t103 184t37 251.5q0 288 -153 448z" />
<glyph unicode="&#xd9;" horiz-adv-x="1474" d="M176 551v883h191v-881q0 -226 98 -325t280 -99q84 0 149.5 23t117 73t79 136t27.5 204v869h180v-852q0 -141 -30.5 -249t-81 -176t-125 -110.5t-155 -59t-177.5 -16.5q-82 0 -154.5 14t-147.5 54t-129 102.5t-88 167.5t-34 242zM432 1876h227l152 -311h-154z" />
<glyph unicode="&#xda;" horiz-adv-x="1474" d="M176 551v883h191v-881q0 -226 98 -325t280 -99q84 0 149.5 23t117 73t79 136t27.5 204v869h180v-852q0 -141 -30.5 -249t-81 -176t-125 -110.5t-155 -59t-177.5 -16.5q-82 0 -154.5 14t-147.5 54t-129 102.5t-88 167.5t-34 242zM664 1563l151 311h227l-225 -311h-153z " />
<glyph unicode="&#xdb;" horiz-adv-x="1474" d="M176 551v883h191v-881q0 -226 98 -325t280 -99q84 0 149.5 23t117 73t79 136t27.5 204v869h180v-852q0 -141 -30.5 -249t-81 -176t-125 -110.5t-155 -59t-177.5 -16.5q-82 0 -154.5 14t-147.5 54t-129 102.5t-88 167.5t-34 242zM446 1565l191 311h205l190 -311h-147 l-146 186l-145 -186h-148z" />
<glyph unicode="&#xdc;" horiz-adv-x="1474" d="M176 551v883h191v-881q0 -226 98 -325t280 -99q84 0 149.5 23t117 73t79 136t27.5 204v869h180v-852q0 -141 -30.5 -249t-81 -176t-125 -110.5t-155 -59t-177.5 -16.5q-82 0 -154.5 14t-147.5 54t-129 102.5t-88 167.5t-34 242zM438 1610v221h201v-221h-201zM840 1610 v221h200v-221h-200z" />
<glyph unicode="&#xdd;" horiz-adv-x="1236" d="M18 1434h218l387 -652l395 652h199l-506 -826v-608h-191v606zM543 1563l151 311h228l-226 -311h-153z" />
<glyph unicode="&#xde;" horiz-adv-x="1413" d="M190 0v1434h191v-277h375q84 0 153.5 -10t140.5 -39t120 -76t79.5 -127t30.5 -186q0 -101 -30 -178.5t-79.5 -126t-121 -80t-147 -43.5t-163.5 -12h-358v-279h-191zM381 440h362q177 0 262 62t85 217q0 154 -83.5 213t-263.5 59h-362v-551z" />
<glyph unicode="&#xdf;" horiz-adv-x="1171" d="M166 0v1059q0 105 18.5 179.5t47.5 117t78 66.5t97 31t117 7q162 0 250 -88.5t88 -241.5q0 -209 -133 -282q51 -3 99 -15t97.5 -41.5t86 -73.5t59.5 -115.5t23 -162.5q0 -98 -22.5 -176t-62.5 -130.5t-97 -87.5t-122.5 -50.5t-142.5 -15.5q-80 0 -149 10v137 q58 -12 149 -12q123 0 190.5 79.5t67.5 241.5q0 167 -77.5 236t-260.5 69h-55v136q195 0 195 239q0 209 -189 209q-96 0 -136 -50.5t-40 -180.5v-1094h-176z" />
<glyph unicode="&#xe0;" horiz-adv-x="1069" d="M78 244q0 55 17.5 101t47.5 79.5t78 60t99.5 44.5t122 31.5t136 22t150.5 15.5v37q0 186 -199 186q-167 0 -258 -155l-127 79q124 203 400 203q360 0 360 -368v-379q0 -52 13 -73.5t47 -21.5q27 0 45 7v-109q-40 -14 -90 -14q-79 0 -126 40.5t-51 116.5 q-40 -80 -123.5 -126t-205.5 -46q-149 0 -242.5 67t-93.5 202zM238 1372h223l160 -332h-146zM266 258q0 -72 44.5 -112t135.5 -40q123 0 203 74t80 215v86q-104 -8 -180 -21.5t-144 -38t-103.5 -65.5t-35.5 -98z" />
<glyph unicode="&#xe1;" horiz-adv-x="1069" d="M78 244q0 55 17.5 101t47.5 79.5t78 60t99.5 44.5t122 31.5t136 22t150.5 15.5v37q0 186 -199 186q-167 0 -258 -155l-127 79q124 203 400 203q360 0 360 -368v-379q0 -52 13 -73.5t47 -21.5q27 0 45 7v-109q-40 -14 -90 -14q-79 0 -126 40.5t-51 116.5 q-40 -80 -123.5 -126t-205.5 -46q-149 0 -242.5 67t-93.5 202zM266 258q0 -72 44.5 -112t135.5 -40q123 0 203 74t80 215v86q-104 -8 -180 -21.5t-144 -38t-103.5 -65.5t-35.5 -98zM469 1040l160 332h223l-238 -332h-145z" />
<glyph unicode="&#xe2;" horiz-adv-x="1069" d="M78 244q0 55 17.5 101t47.5 79.5t78 60t99.5 44.5t122 31.5t136 22t150.5 15.5v37q0 186 -199 186q-167 0 -258 -155l-127 79q124 203 400 203q360 0 360 -368v-379q0 -52 13 -73.5t47 -21.5q27 0 45 7v-109q-40 -14 -90 -14q-79 0 -126 40.5t-51 116.5 q-40 -80 -123.5 -126t-205.5 -46q-149 0 -242.5 67t-93.5 202zM246 1040l205 332h188l205 -332h-139l-160 203l-160 -203h-139zM266 258q0 -72 44.5 -112t135.5 -40q123 0 203 74t80 215v86q-104 -8 -180 -21.5t-144 -38t-103.5 -65.5t-35.5 -98z" />
<glyph unicode="&#xe3;" horiz-adv-x="1069" d="M78 244q0 55 17.5 101t47.5 79.5t78 60t99.5 44.5t122 31.5t136 22t150.5 15.5v37q0 186 -199 186q-167 0 -258 -155l-127 79q124 203 400 203q360 0 360 -368v-379q0 -52 13 -73.5t47 -21.5q27 0 45 7v-109q-40 -14 -90 -14q-79 0 -126 40.5t-51 116.5 q-40 -80 -123.5 -126t-205.5 -46q-149 0 -242.5 67t-93.5 202zM229 1122q14 104 70.5 152.5t126.5 48.5q40 0 77 -15.5t60.5 -34.5t53 -34.5t55.5 -15.5q69 0 88 90l100 -21q-14 -104 -70 -152t-126 -48q-40 0 -77 15.5t-60.5 34.5t-53 34.5t-55.5 15.5q-69 0 -88 -90z M266 258q0 -72 44.5 -112t135.5 -40q123 0 203 74t80 215v86q-104 -8 -180 -21.5t-144 -38t-103.5 -65.5t-35.5 -98z" />
<glyph unicode="&#xe4;" horiz-adv-x="1069" d="M78 244q0 55 17.5 101t47.5 79.5t78 60t99.5 44.5t122 31.5t136 22t150.5 15.5v37q0 186 -199 186q-167 0 -258 -155l-127 79q124 203 400 203q360 0 360 -368v-379q0 -52 13 -73.5t47 -21.5q27 0 45 7v-109q-40 -14 -90 -14q-79 0 -126 40.5t-51 116.5 q-40 -80 -123.5 -126t-205.5 -46q-149 0 -242.5 67t-93.5 202zM266 258q0 -72 44.5 -112t135.5 -40q123 0 203 74t80 215v86q-104 -8 -180 -21.5t-144 -38t-103.5 -65.5t-35.5 -98zM268 1100v215h185v-215h-185zM637 1100v215h184v-215h-184z" />
<glyph unicode="&#xe5;" horiz-adv-x="1069" d="M78 244q0 55 17.5 101t47.5 79.5t78 60t99.5 44.5t122 31.5t136 22t150.5 15.5v37q0 186 -199 186q-167 0 -258 -155l-127 79q124 203 400 203q360 0 360 -368v-379q0 -52 13 -73.5t47 -21.5q27 0 45 7v-109q-40 -14 -90 -14q-79 0 -126 40.5t-51 116.5 q-40 -80 -123.5 -126t-205.5 -46q-149 0 -242.5 67t-93.5 202zM266 258q0 -72 44.5 -112t135.5 -40q123 0 203 74t80 215v86q-104 -8 -180 -21.5t-144 -38t-103.5 -65.5t-35.5 -98zM367 1206q0 76 51 124t127 48t127 -48t51 -124t-51 -124t-127 -48t-127 48t-51 124z M457 1206q0 -41 25.5 -66.5t62.5 -25.5t62.5 25.5t25.5 66.5t-25.5 66.5t-62.5 25.5t-62.5 -25.5t-25.5 -66.5z" />
<glyph unicode="&#xe6;" horiz-adv-x="1708" d="M78 246q0 65 23 116.5t67.5 86.5t101.5 59t134 37t155 18.5t174 5.5v66q0 186 -203 186q-167 0 -258 -155l-127 79q124 203 400 203q233 0 305 -153q108 155 352 155q93 0 173 -28.5t142 -84t97 -146.5t35 -208q0 -31 -2 -45h-740q6 -171 89 -249t212 -78 q103 0 174.5 44.5t120.5 143.5l123 -66q-62 -113 -166.5 -185.5t-255.5 -72.5q-145 0 -253.5 58t-162.5 172q-95 -230 -374 -230q-67 0 -124 14t-106 44t-77.5 84.5t-28.5 128.5zM266 240q0 -59 45.5 -96.5t134.5 -37.5q122 0 200 73.5t87 221.5l2 37q-69 0 -112.5 -1 t-98.5 -5t-88.5 -12t-69.5 -22.5t-55.5 -35t-32 -51.5t-12.5 -71zM913 569h549q-33 246 -268 246q-117 0 -189 -67.5t-92 -178.5z" />
<glyph unicode="&#xe7;" horiz-adv-x="1017" d="M86 463q0 235 130 361t341 126q128 0 223.5 -43.5t167.5 -156.5l-125 -82q-88 147 -258 147q-135 0 -217 -89.5t-82 -262.5q0 -172 84 -261t217 -89q184 0 269 141l110 -76q-140 -203 -393 -203q-205 0 -336 127t-131 361zM373 -344l45 86q53 -35 127 -35q58 0 83 17.5 t25 54.5q0 67 -137 67q-27 0 -47 -4l37 158h82l-17 -82q188 0 191 -141q0 -78 -53.5 -121t-159.5 -43q-101 0 -176 43z" />
<glyph unicode="&#xe8;" horiz-adv-x="1087" d="M86 457q0 121 36.5 216t101.5 155t151 91t188 31q93 0 173 -28.5t142 -84t97 -146.5t35 -208q0 -33 -4 -49h-734q6 -171 87 -247t210 -76q103 0 174.5 44.5t120.5 143.5l123 -66q-62 -113 -166.5 -185.5t-255.5 -72.5q-99 0 -184.5 29.5t-152 87t-104.5 151.5t-38 214z M256 1372h223l160 -332h-145zM279 573h544q-33 242 -268 242q-117 0 -186.5 -65.5t-89.5 -176.5z" />
<glyph unicode="&#xe9;" horiz-adv-x="1087" d="M86 457q0 121 36.5 216t101.5 155t151 91t188 31q93 0 173 -28.5t142 -84t97 -146.5t35 -208q0 -33 -4 -49h-734q6 -171 87 -247t210 -76q103 0 174.5 44.5t120.5 143.5l123 -66q-62 -113 -166.5 -185.5t-255.5 -72.5q-99 0 -184.5 29.5t-152 87t-104.5 151.5t-38 214z M279 573h544q-33 242 -268 242q-117 0 -186.5 -65.5t-89.5 -176.5zM487 1040l160 332h223l-237 -332h-146z" />
<glyph unicode="&#xea;" horiz-adv-x="1087" d="M86 457q0 121 36.5 216t101.5 155t151 91t188 31q93 0 173 -28.5t142 -84t97 -146.5t35 -208q0 -33 -4 -49h-734q6 -171 87 -247t210 -76q103 0 174.5 44.5t120.5 143.5l123 -66q-62 -113 -166.5 -185.5t-255.5 -72.5q-99 0 -184.5 29.5t-152 87t-104.5 151.5t-38 214z M264 1040l205 332h188l205 -332h-139l-160 203l-160 -203h-139zM279 573h544q-33 242 -268 242q-117 0 -186.5 -65.5t-89.5 -176.5z" />
<glyph unicode="&#xeb;" horiz-adv-x="1087" d="M86 457q0 121 36.5 216t101.5 155t151 91t188 31q93 0 173 -28.5t142 -84t97 -146.5t35 -208q0 -33 -4 -49h-734q6 -171 87 -247t210 -76q103 0 174.5 44.5t120.5 143.5l123 -66q-62 -113 -166.5 -185.5t-255.5 -72.5q-99 0 -184.5 29.5t-152 87t-104.5 151.5t-38 214z M279 573h544q-33 242 -268 242q-117 0 -186.5 -65.5t-89.5 -176.5zM287 1100v215h184v-215h-184zM655 1100v215h185v-215h-185z" />
<glyph unicode="&#xec;" horiz-adv-x="507" d="M-53 1372h223l160 -332h-146zM166 0v926h176v-926h-176z" />
<glyph unicode="&#xed;" horiz-adv-x="507" d="M166 0v926h176v-926h-176zM178 1040l160 332h223l-237 -332h-146z" />
<glyph unicode="&#xee;" horiz-adv-x="507" d="M-45 1040l205 332h188l205 -332h-139l-160 203l-160 -203h-139zM166 0v926h176v-926h-176z" />
<glyph unicode="&#xef;" horiz-adv-x="507" d="M-23 1100v215h185v-215h-185zM166 0v926h176v-926h-176zM346 1100v215h184v-215h-184z" />
<glyph unicode="&#xf0;" horiz-adv-x="1122" d="M86 440q0 210 118.5 335.5t317.5 125.5q66 0 124 -20t97 -52t65 -65.5t40 -67.5q-8 247 -115 402l-282 -92l-33 98l241 78q-90 84 -229 123l49 155q224 -64 352 -221l160 51l35 -98l-133 -43q121 -212 121 -553q0 -139 -27 -250t-83 -194.5t-148 -129t-215 -45.5 q-142 0 -247.5 67t-156.5 170.5t-51 225.5zM274 440q0 -153 78 -244.5t199 -91.5q84 0 148 48.5t96 125.5t32 168q0 84 -30 155.5t-94 119t-150 47.5q-122 0 -200.5 -86t-78.5 -242z" />
<glyph unicode="&#xf1;" horiz-adv-x="1155" d="M166 0v926h176v-166q86 186 326 186q164 0 246.5 -96.5t82.5 -263.5v-586h-176v530q0 140 -47 209.5t-162 69.5q-81 0 -140.5 -43.5t-92.5 -122.5q-37 -88 -37 -250v-393h-176zM262 1122q14 104 70.5 152.5t126.5 48.5q40 0 77 -15.5t60.5 -34.5t53 -34.5t55.5 -15.5 q69 0 88 90l100 -21q-14 -104 -70 -152t-127 -48q-40 0 -77 15.5t-60 34.5t-52.5 34.5t-55.5 15.5q-70 0 -89 -90z" />
<glyph unicode="&#xf2;" horiz-adv-x="1110" d="M86 463q0 118 36.5 212t100.5 153.5t148.5 90.5t183.5 31t183.5 -31t148.5 -90.5t100.5 -153.5t36.5 -212t-36.5 -212t-100.5 -154t-148.5 -91t-183.5 -31q-203 0 -336 127.5t-133 360.5zM248 1372h223l160 -332h-146zM274 463q0 -171 79.5 -261.5t201.5 -90.5 t201.5 90.5t79.5 261.5t-79.5 261.5t-201.5 90.5t-201.5 -90.5t-79.5 -261.5z" />
<glyph unicode="&#xf3;" horiz-adv-x="1110" d="M86 463q0 118 36.5 212t100.5 153.5t148.5 90.5t183.5 31t183.5 -31t148.5 -90.5t100.5 -153.5t36.5 -212t-36.5 -212t-100.5 -154t-148.5 -91t-183.5 -31q-203 0 -336 127.5t-133 360.5zM274 463q0 -171 79.5 -261.5t201.5 -90.5t201.5 90.5t79.5 261.5t-79.5 261.5 t-201.5 90.5t-201.5 -90.5t-79.5 -261.5zM479 1040l160 332h223l-237 -332h-146z" />
<glyph unicode="&#xf4;" horiz-adv-x="1110" d="M86 463q0 118 36.5 212t100.5 153.5t148.5 90.5t183.5 31t183.5 -31t148.5 -90.5t100.5 -153.5t36.5 -212t-36.5 -212t-100.5 -154t-148.5 -91t-183.5 -31q-203 0 -336 127.5t-133 360.5zM256 1040l205 332h188l205 -332h-139l-160 203l-160 -203h-139zM274 463 q0 -171 79.5 -261.5t201.5 -90.5t201.5 90.5t79.5 261.5t-79.5 261.5t-201.5 90.5t-201.5 -90.5t-79.5 -261.5z" />
<glyph unicode="&#xf5;" horiz-adv-x="1110" d="M86 463q0 118 36.5 212t100.5 153.5t148.5 90.5t183.5 31t183.5 -31t148.5 -90.5t100.5 -153.5t36.5 -212t-36.5 -212t-100.5 -154t-148.5 -91t-183.5 -31q-203 0 -336 127.5t-133 360.5zM240 1122q14 104 70 152.5t126 48.5q40 0 77 -15.5t60.5 -34.5t53 -34.5 t55.5 -15.5q69 0 88 90l100 -21q-14 -104 -70 -152t-126 -48q-40 0 -77 15.5t-60.5 34.5t-53 34.5t-55.5 15.5q-69 0 -88 -90zM274 463q0 -171 79.5 -261.5t201.5 -90.5t201.5 90.5t79.5 261.5t-79.5 261.5t-201.5 90.5t-201.5 -90.5t-79.5 -261.5z" />
<glyph unicode="&#xf6;" horiz-adv-x="1110" d="M86 463q0 118 36.5 212t100.5 153.5t148.5 90.5t183.5 31t183.5 -31t148.5 -90.5t100.5 -153.5t36.5 -212t-36.5 -212t-100.5 -154t-148.5 -91t-183.5 -31q-203 0 -336 127.5t-133 360.5zM274 463q0 -171 79.5 -261.5t201.5 -90.5t201.5 90.5t79.5 261.5t-79.5 261.5 t-201.5 90.5t-201.5 -90.5t-79.5 -261.5zM279 1100v215h184v-215h-184zM647 1100v215h184v-215h-184z" />
<glyph unicode="&#xf7;" horiz-adv-x="1159" d="M106 618v156h947v-156h-947zM485 252v229h191v-229h-191zM485 911v234h191v-234h-191z" />
<glyph unicode="&#xf8;" horiz-adv-x="1110" d="M86 463q0 118 36.5 212t100.5 153.5t148.5 90.5t183.5 31q90 0 176 -28l29 51h162l-66 -119q168 -132 168 -391q0 -118 -36.5 -212t-100.5 -154t-148.5 -91t-183.5 -31q-89 0 -178 29l-27 -49h-162l66 117q-168 132 -168 391zM274 463q0 -153 64 -242l321 574 q-55 20 -104 20q-122 0 -201.5 -90.5t-79.5 -261.5zM449 131q47 -20 106 -20q122 0 201.5 90.5t79.5 261.5q0 150 -66 242z" />
<glyph unicode="&#xf9;" horiz-adv-x="1144" d="M158 340v586h176v-531q0 -140 45.5 -209t157.5 -69q75 0 134 42t93 120q39 91 39 253v394h176v-926h-172v174q-86 -194 -330 -194q-159 0 -239 96.5t-80 263.5zM264 1372h223l160 -332h-145z" />
<glyph unicode="&#xfa;" horiz-adv-x="1144" d="M158 340v586h176v-531q0 -140 45.5 -209t157.5 -69q75 0 134 42t93 120q39 91 39 253v394h176v-926h-172v174q-86 -194 -330 -194q-159 0 -239 96.5t-80 263.5zM496 1040l159 332h224l-238 -332h-145z" />
<glyph unicode="&#xfb;" horiz-adv-x="1144" d="M158 340v586h176v-531q0 -140 45.5 -209t157.5 -69q75 0 134 42t93 120q39 91 39 253v394h176v-926h-172v174q-86 -194 -330 -194q-159 0 -239 96.5t-80 263.5zM272 1040l205 332h189l204 -332h-139l-160 203l-159 -203h-140z" />
<glyph unicode="&#xfc;" horiz-adv-x="1144" d="M158 340v586h176v-531q0 -140 45.5 -209t157.5 -69q75 0 134 42t93 120q39 91 39 253v394h176v-926h-172v174q-86 -194 -330 -194q-159 0 -239 96.5t-80 263.5zM295 1100v215h184v-215h-184zM664 1100v215h184v-215h-184z" />
<glyph unicode="&#xfd;" horiz-adv-x="946" d="M18 926h189l274 -738l275 738h172l-430 -1096q-42 -110 -100.5 -160.5t-176.5 -50.5q-79 0 -143 12v146q71 -23 139 -23q48 0 80 23.5t57 87.5l39 102zM406 1040l159 332h223l-237 -332h-145z" />
<glyph unicode="&#xfe;" horiz-adv-x="1148" d="M166 -356v1790h176v-646q46 75 128 115.5t181 40.5q178 0 292 -126t114 -355q0 -231 -114 -356t-296 -125q-98 0 -178 40.5t-127 114.5v-493h-176zM338 463q0 -154 66.5 -249t199.5 -95q122 0 193 86t71 258q0 173 -71 258.5t-193 85.5q-133 0 -199.5 -95t-66.5 -249z " />
<glyph unicode="&#xff;" horiz-adv-x="946" d="M18 926h189l274 -738l275 738h172l-430 -1096q-42 -110 -100.5 -160.5t-176.5 -50.5q-79 0 -143 12v146q71 -23 139 -23q48 0 80 23.5t57 87.5l39 102zM205 1100v215h184v-215h-184zM573 1100v215h185v-215h-185z" />
<glyph unicode="&#x152;" horiz-adv-x="1921" d="M129 717q0 179 59 317.5t165.5 225t249.5 130.5t317 44h864v-166h-705v-461h377v-162h-377v-477h731v-168h-890q-140 0 -258 25.5t-217.5 80.5t-169 138t-108 203t-38.5 270zM322 717q0 -124 28.5 -220t78.5 -159.5t123 -104t155.5 -58t181.5 -17.5v1118 q-99 0 -181.5 -17.5t-155.5 -58t-123 -104t-78.5 -159.5t-28.5 -220z" />
<glyph unicode="&#x153;" horiz-adv-x="1835" d="M86 463q0 118 36.5 212t100.5 153.5t148.5 90.5t183.5 31q117 0 213 -43t160 -127q64 83 163.5 126.5t219.5 43.5q93 0 172.5 -28.5t141.5 -84t97 -146.5t35 -208q0 -33 -4 -49h-733q6 -171 87 -247t210 -76q103 0 174.5 44.5t120.5 143.5l123 -66 q-62 -113 -166.5 -185.5t-255.5 -72.5q-120 0 -220 42.5t-165 125.5q-63 -83 -160 -125.5t-213 -42.5q-203 0 -336 127.5t-133 360.5zM274 463q0 -171 79.5 -261.5t201.5 -90.5t201.5 90.5t79.5 261.5t-79.5 261.5t-201.5 90.5t-201.5 -90.5t-79.5 -261.5zM1026 573h545 q-33 242 -268 242q-117 0 -187 -65.5t-90 -176.5z" />
<glyph unicode="&#x178;" horiz-adv-x="1236" d="M18 1434h218l387 -652l395 652h199l-506 -826v-608h-191v606zM317 1610v221h201v-221h-201zM719 1610v221h201v-221h-201z" />
<glyph unicode="&#x2c6;" d="M213 1040l205 332h188l205 -332h-139l-160 203l-160 -203h-139z" />
<glyph unicode="&#x2dc;" d="M197 1122q14 104 70 152.5t126 48.5q40 0 77 -15.5t60.5 -34.5t53 -34.5t55.5 -15.5q69 0 88 90l100 -21q-14 -104 -69.5 -152t-126.5 -48q-40 0 -77 15.5t-60.5 34.5t-53 34.5t-55.5 15.5q-69 0 -88 -90z" />
<glyph unicode="&#x2000;" horiz-adv-x="961" />
<glyph unicode="&#x2001;" horiz-adv-x="1923" />
<glyph unicode="&#x2002;" horiz-adv-x="961" />
<glyph unicode="&#x2003;" horiz-adv-x="1923" />
<glyph unicode="&#x2004;" horiz-adv-x="641" />
<glyph unicode="&#x2005;" horiz-adv-x="480" />
<glyph unicode="&#x2006;" horiz-adv-x="320" />
<glyph unicode="&#x2007;" horiz-adv-x="320" />
<glyph unicode="&#x2008;" horiz-adv-x="240" />
<glyph unicode="&#x2009;" horiz-adv-x="384" />
<glyph unicode="&#x200a;" horiz-adv-x="106" />
<glyph unicode="&#x2010;" horiz-adv-x="862" d="M182 498v159h498v-159h-498z" />
<glyph unicode="&#x2011;" horiz-adv-x="862" d="M182 498v159h498v-159h-498z" />
<glyph unicode="&#x2012;" horiz-adv-x="862" d="M182 498v159h498v-159h-498z" />
<glyph unicode="&#x2013;" d="M182 514v143h660v-143h-660z" />
<glyph unicode="&#x2014;" horiz-adv-x="2048" d="M182 514v143h1684v-143h-1684z" />
<glyph unicode="&#x2018;" horiz-adv-x="581" d="M182 944v217q0 123 39.5 189t124.5 112l51 -73q-59 -38 -78.5 -76.5t-19.5 -128.5h100v-240h-217z" />
<glyph unicode="&#x2019;" horiz-adv-x="581" d="M182 1194v240h217v-217q0 -123 -39.5 -189.5t-123.5 -112.5l-52 74q59 38 79 77t20 128h-101z" />
<glyph unicode="&#x201a;" horiz-adv-x="581" d="M182 0v240h217v-217q0 -123 -39.5 -189.5t-123.5 -112.5l-52 74q59 38 79 77t20 128h-101z" />
<glyph unicode="&#x201c;" horiz-adv-x="929" d="M182 944v217q0 123 39.5 189t124.5 112l47 -67q-59 -38 -80.5 -80t-21.5 -131h98v-240h-207zM537 944v217q0 85 20 143.5t53.5 92.5t89.5 65l48 -67q-60 -38 -81.5 -80t-21.5 -131h98v-240h-206z" />
<glyph unicode="&#x201d;" horiz-adv-x="929" d="M182 983q60 38 81.5 80t21.5 131h-99v240h207v-217q0 -84 -20.5 -143t-54 -93.5t-89.5 -65.5zM537 983q59 38 80.5 80t21.5 131h-98v240h207v-217q0 -84 -20.5 -143t-54 -93.5t-89.5 -65.5z" />
<glyph unicode="&#x201e;" horiz-adv-x="929" d="M182 -211q60 38 81.5 80t21.5 131h-99v240h207v-217q0 -84 -20.5 -143t-54 -93.5t-89.5 -65.5zM537 -211q59 38 80.5 80t21.5 131h-98v240h207v-217q0 -84 -20.5 -143t-54 -93.5t-89.5 -65.5z" />
<glyph unicode="&#x2022;" d="M272 674q0 100 70 169.5t170 69.5t170 -69.5t70 -169.5t-70 -170t-170 -70t-170 70t-70 170z" />
<glyph unicode="&#x2026;" horiz-adv-x="1843" d="M199 0v240h217v-240h-217zM813 0v240h217v-240h-217zM1427 0v240h218v-240h-218z" />
<glyph unicode="&#x202f;" horiz-adv-x="384" />
<glyph unicode="&#x2039;" horiz-adv-x="516" d="M31 461l297 389h159l-270 -391l264 -387h-151z" />
<glyph unicode="&#x203a;" horiz-adv-x="516" d="M29 850h159l297 -389l-299 -389h-151l264 387z" />
<glyph unicode="&#x205f;" horiz-adv-x="480" />
<glyph unicode="&#x20ac;" horiz-adv-x="1126" d="M29 526v111h143q-2 20 -2 63t2 66h-143v111h155q42 258 200.5 399t383.5 141q186 0 324 -69l-64 -138q-128 64 -256 64q-159 0 -268 -104t-144 -293h543l-45 -111h-510q-2 -23 -2 -66t2 -63h459l-45 -111h-402q35 -191 145 -297t271 -106q136 0 266 70l64 -132 q-143 -84 -332 -84q-228 0 -388 144.5t-202 404.5h-155z" />
<glyph unicode="&#x2122;" horiz-adv-x="1669" d="M41 1331v103h569v-103h-225v-629h-119v629h-225zM721 702v732h160l237 -539l238 539h164v-732h-115v596l-266 -602h-56l-260 590v-584h-102z" />
<glyph unicode="&#xe000;" horiz-adv-x="921" d="M0 0v922h922v-922h-922z" />
</font>
</defs>
</svg>
